<svg width="116" height="142" viewBox="0 0 116 142" fill="none" xmlns="http://www.w3.org/2000/svg">
<g clip-path="url(#clip0_939_284)">
<path d="M55.8705 74.52C77.4428 74.52 94.9305 57.8381 94.9305 37.26C94.9305 16.6819 77.4428 0 55.8705 0C34.2983 0 16.8105 16.6819 16.8105 37.26C16.8105 57.8381 34.2983 74.52 55.8705 74.52Z" fill="#FFE2A9"/>
<path d="M34.5895 110.39L18.1995 100.47C13.0995 97.3303 6.41948 98.9203 3.27948 104.01C1.48948 106.92 2.38948 110.73 5.29948 112.52L19.0995 121.05L37.3895 132.32C51.4095 140.96 70.6395 141.24 84.3595 134.37C84.3595 134.37 97.2695 127.16 113.539 129.35V96.8003L101.149 89.9403C87.3295 82.2203 69.6595 95.3403 69.6595 95.3403C62.9295 99.7703 57.2495 102.63 49.4095 104.13C46.4995 104.68 42.9095 104.64 40.2395 105.83C36.9195 107.3 34.2395 109.81 33.4095 113.43C32.8195 115.98 33.9295 119.16 36.1195 120.64C39.0895 122.65 43.5595 121.94 46.8695 121.52C55.0395 120.47 63.0595 118.25 70.6995 115.21C70.7995 115.17 70.8995 115.13 70.9995 115.09" stroke="#414042" stroke-width="4.73" stroke-linecap="round" stroke-linejoin="round"/>
<path d="M40.9798 105.54L23.1898 95.1105C18.6798 92.3305 12.7698 93.7405 9.99977 98.2405L9.50977 99.2905" stroke="#414042" stroke-width="4.73" stroke-linecap="round" stroke-linejoin="round"/>
<path d="M51.2701 103.77L30.9001 91.7501C26.8201 89.2401 21.6001 90.1501 18.5801 93.6801" stroke="#414042" stroke-width="4.73" stroke-linecap="round" stroke-linejoin="round"/>
<path d="M60.9203 81.3561C81.7383 80.9927 98.32 63.8218 97.9566 43.0038C97.5933 22.1859 80.4224 5.60415 59.6044 5.96753C38.7864 6.33091 22.2047 23.5018 22.5681 44.3197C22.9315 65.1377 40.1024 81.7194 60.9203 81.3561Z" stroke="#414042" stroke-width="4.73" stroke-linecap="round" stroke-linejoin="round"/>
<path d="M60.2598 5.97021V81.3702" stroke="#414042" stroke-width="4.73" stroke-linecap="round" stroke-linejoin="round"/>
<path d="M52.2596 6.80029C52.2596 6.80029 23.0496 42.9003 52.2596 80.5403" stroke="#414042" stroke-width="4.73" stroke-linecap="round" stroke-linejoin="round"/>
<path d="M68.25 6.80029C68.25 6.80029 97.46 42.9003 68.25 80.5403" stroke="#414042" stroke-width="4.73" stroke-linecap="round" stroke-linejoin="round"/>
<path d="M22.5586 43.0303C22.5586 43.0303 55.1086 60.7703 97.8986 42.2803" stroke="#414042" stroke-width="4.73" stroke-linecap="round" stroke-linejoin="round"/>
<path d="M30.0488 21.1104C30.0488 21.1104 55.9188 34.8704 90.4588 21.1104" stroke="#414042" stroke-width="4.73" stroke-linecap="round" stroke-linejoin="round"/>
<path d="M30.0488 65.75C30.0488 65.75 55.9188 79.51 90.4588 65.75" stroke="#414042" stroke-width="4.73" stroke-linecap="round" stroke-linejoin="round"/>
</g>
<defs>
<clipPath id="clip0_939_284">
<rect width="115.9" height="141.56" fill="white"/>
</clipPath>
</defs>
</svg>
