<svg width="128" height="120" viewBox="0 0 128 120" fill="none" xmlns="http://www.w3.org/2000/svg">
<g clip-path="url(#clip0_939_285)">
<path d="M89.1001 11.9298C77.9901 12.0098 67.6101 3.95983 47.6901 10.4498C47.6901 10.4498 29.4401 17.0698 21.5801 43.6598C21.5801 43.6598 48.9001 50.6598 62.5101 43.2598C80.6101 34.7298 89.0301 11.9398 89.1001 11.9298Z" fill="#A6C498"/>
<path d="M0 72.6194C5.62 82.1994 3.84 95.2094 19.42 109.219C19.42 109.219 34.28 121.719 61.24 115.229C61.24 115.229 53.64 88.0694 40.43 79.9894C23.99 68.5694 0.04 72.6694 0 72.6194Z" fill="#A6C498"/>
<path d="M99.5894 119.21C105.069 109.55 117.239 104.58 121.569 84.0901C121.569 84.0901 124.959 64.9701 105.859 44.8701C105.859 44.8701 86.1394 65.0301 85.7394 80.5201C84.0794 100.46 99.6094 119.15 99.5794 119.21H99.5894Z" fill="#A6C498"/>
<path d="M92.3501 6.24037C81.2401 6.32037 70.8601 -1.72962 50.9401 4.76038C50.9401 4.76038 32.6901 11.3804 24.8301 37.9704C24.8301 37.9704 52.1501 44.9704 65.7601 37.5704C83.8601 29.0404 92.2801 6.25037 92.3501 6.24037Z" stroke="#414042" stroke-width="4.47" stroke-linecap="round" stroke-linejoin="round"/>
<path d="M73.1005 15.6602C73.1005 15.6602 31.6605 19.8802 14.4805 51.5402" stroke="#414042" stroke-width="4.47" stroke-linecap="round" stroke-linejoin="round"/>
<path d="M3.25 66.9399C8.87 76.5199 7.09 89.5299 22.67 103.54C22.67 103.54 37.53 116.04 64.49 109.55C64.49 109.55 56.89 82.3899 43.68 74.3099C27.25 62.8999 3.29 67.0099 3.25 66.9499V66.9399Z" stroke="#414042" stroke-width="4.47" stroke-linecap="round" stroke-linejoin="round"/>
<path d="M21.0293 78.8994C21.0293 78.8994 45.4093 112.679 81.4093 111.729" stroke="#414042" stroke-width="4.47" stroke-linecap="round" stroke-linejoin="round"/>
<path d="M102.839 113.53C108.319 103.87 120.489 98.9004 124.819 78.4104C124.819 78.4104 128.209 59.2904 109.109 39.1904C109.109 39.1904 89.3894 59.3504 88.9894 74.8404C87.3294 94.7804 102.859 113.47 102.829 113.53H102.839Z" stroke="#414042" stroke-width="4.47" stroke-linecap="round" stroke-linejoin="round"/>
<path d="M104.309 92.1502C104.309 92.1502 121.369 54.1502 102.549 23.4502" stroke="#414042" stroke-width="4.47" stroke-linecap="round" stroke-linejoin="round"/>
</g>
<defs>
<clipPath id="clip0_939_285">
<rect width="127.29" height="119.21" fill="white"/>
</clipPath>
</defs>
</svg>
