<svg width="468" height="160" viewBox="0 0 468 160" fill="none" xmlns="http://www.w3.org/2000/svg">
<path d="M0.0560005 157V132.04H33.336V34.904H5.256V15.768C13.0213 14.3813 19.6773 12.7173 25.224 10.776C30.9093 8.69599 36.1787 6.06132 41.032 2.87199H63.704V132.04H92.616V157H0.0560005ZM158.728 159.912C149.16 159.912 140.84 158.179 133.768 154.712C126.834 151.245 121.08 147.155 116.504 142.44L132.728 123.928C135.501 127.117 139.106 129.752 143.544 131.832C147.981 133.912 152.488 134.952 157.064 134.952C161.501 134.952 165.73 133.981 169.752 132.04C173.773 129.96 177.24 126.701 180.152 122.264C183.202 117.688 185.56 111.656 187.224 104.168C189.026 96.68 189.928 87.4587 189.928 76.504C189.928 63.3307 188.68 52.8613 186.184 45.096C183.826 37.3307 180.637 31.784 176.616 28.456C172.594 24.9893 168.018 23.256 162.888 23.256C159.144 23.256 155.677 24.296 152.488 26.376C149.298 28.456 146.733 31.576 144.792 35.736C142.989 39.896 142.088 45.1653 142.088 51.544C142.088 57.5067 142.989 62.4987 144.792 66.52C146.594 70.4027 149.09 73.3147 152.28 75.256C155.608 77.1973 159.49 78.168 163.928 78.168C168.226 78.168 172.664 76.8507 177.24 74.216C181.816 71.5813 185.976 67.144 189.72 60.904L191.176 81.496C188.541 85.24 185.282 88.4987 181.4 91.272C177.656 94.0453 173.773 96.1947 169.752 97.72C165.73 99.2453 161.848 100.008 158.104 100.008C149.645 100.008 142.088 98.2747 135.432 94.808C128.776 91.2027 123.506 85.864 119.624 78.792C115.88 71.5813 114.008 62.4987 114.008 51.544C114.008 41.0053 116.226 31.9227 120.664 24.296C125.101 16.5307 130.994 10.568 138.344 6.40799C145.693 2.248 153.736 0.167998 162.472 0.167998C169.821 0.167998 176.754 1.69333 183.272 4.74399C189.928 7.65599 195.821 12.232 200.952 18.472C206.221 24.5733 210.312 32.4773 213.224 42.184C216.274 51.752 217.8 63.192 217.8 76.504C217.8 91.064 216.205 103.613 213.016 114.152C209.826 124.552 205.389 133.149 199.704 139.944C194.157 146.739 187.848 151.8 180.776 155.128C173.704 158.317 166.354 159.912 158.728 159.912ZM281.415 159.912C271.847 159.912 263.527 158.179 256.455 154.712C249.522 151.245 243.767 147.155 239.191 142.44L255.415 123.928C258.188 127.117 261.794 129.752 266.231 131.832C270.668 133.912 275.175 134.952 279.751 134.952C284.188 134.952 288.418 133.981 292.439 132.04C296.46 129.96 299.927 126.701 302.839 122.264C305.89 117.688 308.247 111.656 309.911 104.168C311.714 96.68 312.615 87.4587 312.615 76.504C312.615 63.3307 311.367 52.8613 308.871 45.096C306.514 37.3307 303.324 31.784 299.303 28.456C295.282 24.9893 290.706 23.256 285.575 23.256C281.831 23.256 278.364 24.296 275.175 26.376C271.986 28.456 269.42 31.576 267.479 35.736C265.676 39.896 264.775 45.1653 264.775 51.544C264.775 57.5067 265.676 62.4987 267.479 66.52C269.282 70.4027 271.778 73.3147 274.967 75.256C278.295 77.1973 282.178 78.168 286.615 78.168C290.914 78.168 295.351 76.8507 299.927 74.216C304.503 71.5813 308.663 67.144 312.407 60.904L313.863 81.496C311.228 85.24 307.97 88.4987 304.087 91.272C300.343 94.0453 296.46 96.1947 292.439 97.72C288.418 99.2453 284.535 100.008 280.791 100.008C272.332 100.008 264.775 98.2747 258.119 94.808C251.463 91.2027 246.194 85.864 242.311 78.792C238.567 71.5813 236.695 62.4987 236.695 51.544C236.695 41.0053 238.914 31.9227 243.351 24.296C247.788 16.5307 253.682 10.568 261.031 6.40799C268.38 2.248 276.423 0.167998 285.159 0.167998C292.508 0.167998 299.442 1.69333 305.959 4.74399C312.615 7.65599 318.508 12.232 323.639 18.472C328.908 24.5733 332.999 32.4773 335.911 42.184C338.962 51.752 340.487 63.192 340.487 76.504C340.487 91.064 338.892 103.613 335.703 114.152C332.514 124.552 328.076 133.149 322.391 139.944C316.844 146.739 310.535 151.8 303.463 155.128C296.391 158.317 289.042 159.912 281.415 159.912ZM421.159 157V62.36C421.159 57.9227 421.297 52.6533 421.575 46.552C421.852 40.312 422.129 34.904 422.407 30.328H421.367C419.564 34.488 417.623 38.648 415.543 42.808C413.463 46.968 411.313 51.1973 409.095 55.496L385.175 93.768H467.959V117.064H355.431V96.264L412.839 2.87199H449.655V157H421.159Z" fill="#CCCCCC" fill-opacity="0.4"/>
</svg>
