<svg width="475" height="160" viewBox="0 0 475 160" fill="none" xmlns="http://www.w3.org/2000/svg">
<path d="M1.944 157V139.32C15.9493 126.84 27.8747 115.261 37.72 104.584C47.704 93.9067 55.3307 83.992 60.6 74.84C65.8693 65.5493 68.504 56.952 68.504 49.048C68.504 44.056 67.6027 39.688 65.8 35.944C63.9973 32.2 61.3627 29.3573 57.896 27.416C54.568 25.336 50.408 24.296 45.416 24.296C39.8693 24.296 34.7387 25.8907 30.024 29.08C25.448 32.1307 21.2187 35.8053 17.336 40.104L0.28 23.672C7.49067 15.9067 14.84 10.0827 22.328 6.2C29.9547 2.17866 38.968 0.167998 49.368 0.167998C59.0747 0.167998 67.5333 2.17866 74.744 6.2C82.0933 10.0827 87.7787 15.56 91.8 22.632C95.8213 29.704 97.832 38.024 97.832 47.592C97.832 56.8827 95.4747 66.3813 90.76 76.088C86.184 85.656 80.0133 95.224 72.248 104.792C64.4827 114.36 55.8853 123.789 46.456 133.08C50.4773 132.525 54.776 132.109 59.352 131.832C64.0667 131.416 68.2267 131.208 71.832 131.208H105.112V157H1.944ZM177.048 159.912C166.648 159.912 157.496 156.931 149.592 150.968C141.826 144.867 135.725 135.853 131.288 123.928C126.989 111.864 124.84 96.9573 124.84 79.208C124.84 61.5973 126.989 46.968 131.288 35.32C135.725 23.5333 141.826 14.728 149.592 8.904C157.496 3.08 166.648 0.167998 177.048 0.167998C187.586 0.167998 196.738 3.14933 204.504 9.11199C212.269 14.936 218.301 23.672 222.599 35.32C227.037 46.968 229.256 61.5973 229.256 79.208C229.256 96.9573 227.037 111.864 222.599 123.928C218.301 135.853 212.269 144.867 204.504 150.968C196.738 156.931 187.586 159.912 177.048 159.912ZM177.048 135.992C181.624 135.992 185.645 134.259 189.112 130.792C192.578 127.325 195.282 121.501 197.224 113.32C199.165 105 200.136 93.6293 200.136 79.208C200.136 64.9253 199.165 53.7627 197.224 45.72C195.282 37.5387 192.578 31.8533 189.112 28.664C185.645 25.336 181.624 23.672 177.048 23.672C172.749 23.672 168.797 25.336 165.192 28.664C161.725 31.8533 158.952 37.5387 156.872 45.72C154.792 53.7627 153.752 64.9253 153.752 79.208C153.752 93.6293 154.792 105 156.872 113.32C158.952 121.501 161.725 127.325 165.192 130.792C168.797 134.259 172.749 135.992 177.048 135.992ZM299.735 159.912C289.335 159.912 280.183 156.931 272.279 150.968C264.514 144.867 258.412 135.853 253.975 123.928C249.676 111.864 247.527 96.9573 247.527 79.208C247.527 61.5973 249.676 46.968 253.975 35.32C258.412 23.5333 264.514 14.728 272.279 8.904C280.183 3.08 289.335 0.167998 299.735 0.167998C310.274 0.167998 319.426 3.14933 327.191 9.11199C334.956 14.936 340.988 23.672 345.287 35.32C349.724 46.968 351.943 61.5973 351.943 79.208C351.943 96.9573 349.724 111.864 345.287 123.928C340.988 135.853 334.956 144.867 327.191 150.968C319.426 156.931 310.274 159.912 299.735 159.912ZM299.735 135.992C304.311 135.992 308.332 134.259 311.799 130.792C315.266 127.325 317.97 121.501 319.911 113.32C321.852 105 322.823 93.6293 322.823 79.208C322.823 64.9253 321.852 53.7627 319.911 45.72C317.97 37.5387 315.266 31.8533 311.799 28.664C308.332 25.336 304.311 23.672 299.735 23.672C295.436 23.672 291.484 25.336 287.879 28.664C284.412 31.8533 281.639 37.5387 279.559 45.72C277.479 53.7627 276.439 64.9253 276.439 79.208C276.439 93.6293 277.479 105 279.559 113.32C281.639 121.501 284.412 127.325 287.879 130.792C291.484 134.259 295.436 135.992 299.735 135.992ZM422.423 159.912C412.577 159.912 403.772 158.179 396.007 154.712C388.241 151.245 382.071 146.392 377.495 140.152C373.057 133.912 370.839 126.771 370.839 118.728C370.839 112.072 372.017 106.248 374.375 101.256C376.871 96.1253 380.129 91.688 384.151 87.944C388.172 84.2 392.54 81.08 397.255 78.584V77.544C391.431 73.384 386.577 68.3227 382.695 62.36C378.812 56.2587 376.871 49.1867 376.871 41.144C376.871 32.824 378.881 25.6133 382.903 19.512C386.924 13.4107 392.401 8.69599 399.335 5.36799C406.407 2.03999 414.38 0.375996 423.255 0.375996C432.407 0.375996 440.311 2.10933 446.967 5.57599C453.623 8.90399 458.753 13.6187 462.359 19.72C466.103 25.8213 467.974 33.032 467.974 41.352C467.974 46.344 467.004 51.0587 465.062 55.496C463.26 59.9333 460.833 63.9547 457.783 67.56C454.871 71.0267 451.681 74.008 448.215 76.504V77.544C453.068 80.04 457.436 83.16 461.319 86.904C465.201 90.648 468.321 95.1547 470.679 100.424C473.036 105.555 474.215 111.656 474.215 118.728C474.215 126.493 471.996 133.496 467.559 139.736C463.26 145.976 457.228 150.899 449.463 154.504C441.697 158.109 432.684 159.912 422.423 159.912ZM431.991 69.016C435.735 64.9947 438.508 60.8347 440.311 56.536C442.113 52.2373 443.015 47.8 443.015 43.224C443.015 39.064 442.183 35.3893 440.519 32.2C438.993 28.872 436.705 26.3067 433.655 24.504C430.604 22.7013 426.929 21.8 422.631 21.8C417.361 21.8 412.924 23.464 409.319 26.792C405.713 30.12 403.911 34.904 403.911 41.144C403.911 45.8587 405.089 49.9493 407.447 53.416C409.943 56.744 413.34 59.656 417.639 62.152C421.937 64.5093 426.721 66.7973 431.991 69.016ZM423.047 138.28C427.484 138.28 431.367 137.517 434.695 135.992C438.161 134.328 440.865 131.971 442.807 128.92C444.748 125.731 445.719 121.987 445.719 117.688C445.719 113.667 444.817 110.2 443.015 107.288C441.351 104.237 438.993 101.603 435.943 99.384C432.892 97.0267 429.287 94.8773 425.127 92.936C420.967 90.9947 416.391 88.9147 411.399 86.696C407.239 90.1627 403.841 94.392 401.207 99.384C398.572 104.237 397.255 109.576 397.255 115.4C397.255 119.976 398.364 123.997 400.583 127.464C402.94 130.792 406.06 133.427 409.943 135.368C413.825 137.309 418.193 138.28 423.047 138.28Z" fill="#CCCCCC" fill-opacity="0.4"/>
</svg>
