<svg width="474" height="160" viewBox="0 0 474 160" fill="none" xmlns="http://www.w3.org/2000/svg">
<path d="M1.944 157V139.32C15.9493 126.84 27.8747 115.261 37.72 104.584C47.704 93.9067 55.3307 83.992 60.6 74.84C65.8693 65.5493 68.504 56.952 68.504 49.048C68.504 44.056 67.6027 39.688 65.8 35.944C63.9973 32.2 61.3627 29.3573 57.896 27.416C54.568 25.336 50.408 24.296 45.416 24.296C39.8693 24.296 34.7387 25.8907 30.024 29.08C25.448 32.1307 21.2187 35.8053 17.336 40.104L0.28 23.672C7.49067 15.9067 14.84 10.0827 22.328 6.2C29.9547 2.17866 38.968 0.167998 49.368 0.167998C59.0747 0.167998 67.5333 2.17866 74.744 6.2C82.0933 10.0827 87.7787 15.56 91.8 22.632C95.8213 29.704 97.832 38.024 97.832 47.592C97.832 56.8827 95.4747 66.3813 90.76 76.088C86.184 85.656 80.0133 95.224 72.248 104.792C64.4827 114.36 55.8853 123.789 46.456 133.08C50.4773 132.525 54.776 132.109 59.352 131.832C64.0667 131.416 68.2267 131.208 71.832 131.208H105.112V157H1.944ZM177.048 159.912C166.648 159.912 157.496 156.931 149.592 150.968C141.826 144.867 135.725 135.853 131.288 123.928C126.989 111.864 124.84 96.9573 124.84 79.208C124.84 61.5973 126.989 46.968 131.288 35.32C135.725 23.5333 141.826 14.728 149.592 8.904C157.496 3.08 166.648 0.167998 177.048 0.167998C187.586 0.167998 196.738 3.14933 204.504 9.11199C212.269 14.936 218.301 23.672 222.599 35.32C227.037 46.968 229.256 61.5973 229.256 79.208C229.256 96.9573 227.037 111.864 222.599 123.928C218.301 135.853 212.269 144.867 204.504 150.968C196.738 156.931 187.586 159.912 177.048 159.912ZM177.048 135.992C181.624 135.992 185.645 134.259 189.112 130.792C192.578 127.325 195.282 121.501 197.224 113.32C199.165 105 200.136 93.6293 200.136 79.208C200.136 64.9253 199.165 53.7627 197.224 45.72C195.282 37.5387 192.578 31.8533 189.112 28.664C185.645 25.336 181.624 23.672 177.048 23.672C172.749 23.672 168.797 25.336 165.192 28.664C161.725 31.8533 158.952 37.5387 156.872 45.72C154.792 53.7627 153.752 64.9253 153.752 79.208C153.752 93.6293 154.792 105 156.872 113.32C158.952 121.501 161.725 127.325 165.192 130.792C168.797 134.259 172.749 135.992 177.048 135.992ZM247.319 157V139.32C261.324 126.84 273.25 115.261 283.095 104.584C293.079 93.9067 300.706 83.992 305.975 74.84C311.244 65.5493 313.879 56.952 313.879 49.048C313.879 44.056 312.978 39.688 311.175 35.944C309.372 32.2 306.738 29.3573 303.271 27.416C299.943 25.336 295.783 24.296 290.791 24.296C285.244 24.296 280.114 25.8907 275.399 29.08C270.823 32.1307 266.594 35.8053 262.711 40.104L245.655 23.672C252.866 15.9067 260.215 10.0827 267.703 6.2C275.33 2.17866 284.343 0.167998 294.743 0.167998C304.45 0.167998 312.908 2.17866 320.119 6.2C327.468 10.0827 333.154 15.56 337.175 22.632C341.196 29.704 343.207 38.024 343.207 47.592C343.207 56.8827 340.85 66.3813 336.135 76.088C331.559 85.656 325.388 95.224 317.623 104.792C309.858 114.36 301.26 123.789 291.831 133.08C295.852 132.525 300.151 132.109 304.727 131.832C309.442 131.416 313.602 131.208 317.207 131.208H350.487V157H247.319ZM370.007 157V139.32C384.012 126.84 395.937 115.261 405.783 104.584C415.767 93.9067 423.393 83.992 428.663 74.84C433.932 65.5493 436.567 56.952 436.567 49.048C436.567 44.056 435.665 39.688 433.863 35.944C432.06 32.2 429.425 29.3573 425.959 27.416C422.631 25.336 418.471 24.296 413.479 24.296C407.932 24.296 402.801 25.8907 398.087 29.08C393.511 32.1307 389.281 35.8053 385.399 40.104L368.343 23.672C375.553 15.9067 382.903 10.0827 390.391 6.2C398.017 2.17866 407.031 0.167998 417.431 0.167998C427.137 0.167998 435.596 2.17866 442.807 6.2C450.156 10.0827 455.841 15.56 459.863 22.632C463.884 29.704 465.895 38.024 465.895 47.592C465.895 56.8827 463.537 66.3813 458.823 76.088C454.247 85.656 448.076 95.224 440.311 104.792C432.545 114.36 423.948 123.789 414.518 133.08C418.54 132.525 422.839 132.109 427.415 131.832C432.129 131.416 436.289 131.208 439.895 131.208H473.175V157H370.007Z" fill="#CCCCCC" fill-opacity="0.4"/>
</svg>
