<svg width="336" height="35" viewBox="0 0 336 35" fill="none" xmlns="http://www.w3.org/2000/svg">
<mask id="path-1-outside-1_508_63" maskUnits="userSpaceOnUse" x="319" y="10" width="18" height="17" fill="black">
<rect fill="white" x="319" y="10" width="18" height="17"/>
<path d="M321.912 24.976V22.048L326.952 20.32L330.648 19.024V18.928L326.952 17.608L321.912 15.88V12.952L334.224 17.728V20.224L321.912 24.976Z"/>
</mask>
<path d="M321.912 24.976V22.048L326.952 20.32L330.648 19.024V18.928L326.952 17.608L321.912 15.88V12.952L334.224 17.728V20.224L321.912 24.976Z" fill="#F4911D"/>
<path d="M321.912 24.976H319.912C319.912 25.6353 320.237 26.2523 320.781 26.6253C321.324 26.9982 322.017 27.0793 322.632 26.8418L321.912 24.976ZM321.912 22.048L321.263 20.1561C320.455 20.4333 319.912 21.1934 319.912 22.048H321.912ZM326.952 20.32L327.601 22.2119L327.614 22.2073L326.952 20.32ZM330.648 19.024L331.31 20.9113C332.111 20.6302 332.648 19.8735 332.648 19.024H330.648ZM330.648 18.928H332.648C332.648 18.0828 332.117 17.3288 331.321 17.0445L330.648 18.928ZM326.952 17.608L327.625 15.7245C327.617 15.7217 327.609 15.7189 327.601 15.7161L326.952 17.608ZM321.912 15.88H319.912C319.912 16.7346 320.455 17.4947 321.263 17.7719L321.912 15.88ZM321.912 12.952L322.635 11.0874C322.02 10.8487 321.327 10.9289 320.782 11.3018C320.238 11.6746 319.912 12.2921 319.912 12.952H321.912ZM334.224 17.728H336.224C336.224 16.9026 335.717 16.1619 334.947 15.8634L334.224 17.728ZM334.224 20.224L334.944 22.0898C335.715 21.7922 336.224 21.0507 336.224 20.224H334.224ZM323.912 24.976V22.048H319.912V24.976H323.912ZM322.561 23.9399L327.601 22.2119L326.303 18.4281L321.263 20.1561L322.561 23.9399ZM327.614 22.2073L331.31 20.9113L329.986 17.1367L326.29 18.4327L327.614 22.2073ZM332.648 19.024V18.928H328.648V19.024H332.648ZM331.321 17.0445L327.625 15.7245L326.279 19.4915L329.975 20.8115L331.321 17.0445ZM327.601 15.7161L322.561 13.9881L321.263 17.7719L326.303 19.4999L327.601 15.7161ZM323.912 15.88V12.952H319.912V15.88H323.912ZM321.189 14.8166L333.501 19.5926L334.947 15.8634L322.635 11.0874L321.189 14.8166ZM332.224 17.728V20.224H336.224V17.728H332.224ZM333.504 18.3582L321.192 23.1102L322.632 26.8418L334.944 22.0898L333.504 18.3582Z" fill="white" mask="url(#path-1-outside-1_508_63)"/>
<line x1="-1.74846e-07" y1="19" x2="300" y2="19" stroke="#F4911D" stroke-width="4"/>
</svg>
