<svg width="549" height="170" viewBox="0 0 549 170" fill="none" xmlns="http://www.w3.org/2000/svg">
<path d="M260.977 127.623C260.977 127.623 263.049 168.144 228 168.144" stroke="#FC3D21" stroke-width="2" stroke-miterlimit="10"/>
<path d="M0 168.145L250 168.145" stroke="#FC3D21" stroke-width="2" stroke-miterlimit="10"/>
<path d="M226.12 145.281C226.12 145.281 229.68 145.281 215.18 145.281C200.68 145.281 196.61 161.004 196.61 167.7" stroke="#FC3D21" stroke-width="2" stroke-miterlimit="10"/>
<path d="M255.63 136.781C255.63 136.781 226.89 134.978 222.05 167.699" stroke="#FC3D21" stroke-width="2" stroke-miterlimit="10"/>
<path d="M285.023 127.623C285.023 127.623 282.951 168.144 318 168.144" stroke="#FC3D21" stroke-width="2" stroke-miterlimit="10"/>
<path d="M549 168.145H299" stroke="#FC3D21" stroke-width="2" stroke-miterlimit="10"/>
<path d="M320.04 145.281C320.04 145.281 316.48 145.281 330.98 145.281C345.48 145.281 349.55 161.004 349.55 167.7" stroke="#FC3D21" stroke-width="2" stroke-miterlimit="10"/>
<path d="M290.53 136.781C290.53 136.781 319.27 134.978 324.11 167.699" stroke="#FC3D21" stroke-width="2" stroke-miterlimit="10"/>
<path d="M273.18 0.994141C260.21 1.2474 253.85 33.2086 253.85 33.2086V114.383H292.51V33.2086C292.51 33.2086 286.15 1.2474 273.18 0.994141Z" stroke="#FC3D21" stroke-width="2" stroke-miterlimit="10"/>
<path d="M249.78 113.35H224.34V99.6941C224.34 99.6941 223.32 94.0211 230.95 88.8749C238.58 83.7287 249.77 75.4725 249.77 75.4725V49.701C249.77 49.701 246.37 39.3984 244.57 39.3984C242.77 39.3984 238.84 48.9311 238.84 48.9311V83.1817" stroke="#FC3D21" stroke-width="2" stroke-miterlimit="10"/>
<path d="M249.78 103.807H224.34" stroke="#FC3D21" stroke-width="2" stroke-miterlimit="10"/>
<path d="M296.58 113.35H322.02V99.6941C322.02 99.6941 323.04 94.0211 315.41 88.8749C307.78 83.7287 296.59 75.4725 296.59 75.4725V49.701C296.59 49.701 300.01 39.3984 301.79 39.3984C303.57 39.3984 307.52 48.9311 307.52 48.9311V83.1817" stroke="#FC3D21" stroke-width="2" stroke-miterlimit="10"/>
<path d="M296.58 103.807H322.02" stroke="#FC3D21" stroke-width="2" stroke-miterlimit="10"/>
<path d="M287.17 114.373H259.19V123.906H287.17V114.373Z" stroke="#FC3D21" stroke-width="2" stroke-miterlimit="10"/>
<path d="M272.54 44.2816C278.51 44.2816 283.35 39.3788 283.35 33.3308C283.35 27.2828 278.51 22.3799 272.54 22.3799C266.57 22.3799 261.73 27.2828 261.73 33.3308C261.73 39.3788 266.57 44.2816 272.54 44.2816Z" stroke="#FC3D21" stroke-width="2" stroke-miterlimit="10"/>
<path d="M256 168.145L291 168.145" stroke="#FC3D21" stroke-width="2" stroke-miterlimit="10"/>
</svg>
