<svg width="30" height="45" viewBox="0 0 30 45" fill="none" xmlns="http://www.w3.org/2000/svg">
<g clip-path="url(#clip0_742_352)">
<path d="M16.6408 36.4097C16.6012 36.4393 16.5666 36.474 16.527 36.5086C16.1508 35.4593 15.5668 34.5832 14.8491 33.9893C14.1363 34.5783 13.5522 35.4494 13.1761 36.4938C13.1414 36.4641 13.1117 36.4344 13.0771 36.4047C12.2802 37.063 11.7456 38.2856 11.7456 39.6863C11.7456 41.0871 12.2802 42.3146 13.0771 42.968C13.1959 42.869 13.3097 42.7551 13.4186 42.6314C13.7849 43.4184 14.2749 44.0767 14.8491 44.5469C15.4282 44.0718 15.9182 43.4085 16.2845 42.6165C16.3934 42.7452 16.5121 42.864 16.6408 42.968C17.4377 42.3097 17.9723 41.0871 17.9723 39.6863C17.9723 38.2856 17.4377 37.0581 16.6408 36.4047V36.4097Z" fill="#E13017"/>
<path d="M16.2251 37.0729C16.1954 37.0977 16.1657 37.1224 16.136 37.1521C15.8489 36.3453 15.3985 35.6722 14.8491 35.2168C14.2996 35.6672 13.8542 36.3354 13.5671 37.1422C13.5423 37.1175 13.5176 37.0977 13.4928 37.0729C12.884 37.5778 12.4683 38.5182 12.4683 39.5923C12.4683 40.6664 12.8791 41.6118 13.4928 42.1117C13.5869 42.0375 13.671 41.9484 13.7552 41.8543C14.0373 42.4582 14.4135 42.963 14.854 43.3244C15.2995 42.9581 15.6757 42.4483 15.9578 41.8395C16.0419 41.9385 16.136 42.0325 16.23 42.1117C16.8388 41.6068 17.2546 40.6664 17.2546 39.5923C17.2546 38.5182 16.8438 37.5728 16.23 37.0729H16.2251Z" fill="#F2B00A"/>
<path d="M15.8736 36.5927C15.8736 36.5927 15.8291 36.6323 15.8093 36.6521C15.5965 36.0532 15.2599 35.5583 14.854 35.2217C14.4481 35.5583 14.1165 36.0532 13.9037 36.6472C13.8839 36.6323 13.869 36.6125 13.8492 36.5977C13.3988 36.9689 13.0919 37.6668 13.0919 38.4637C13.0919 39.2606 13.3988 39.9585 13.8492 40.3297C13.9185 40.2753 13.9829 40.211 14.0423 40.1367C14.2501 40.5822 14.5273 40.9584 14.854 41.2256C15.1807 40.9534 15.4628 40.5772 15.6707 40.1268C15.735 40.2011 15.7994 40.2704 15.8736 40.3248C16.3241 39.9536 16.6309 39.2557 16.6309 38.4588C16.6309 37.6619 16.3241 36.964 15.8736 36.5927Z" fill="#FEDC7A"/>
<path d="M14.9975 0.0292969C14.9975 0.0292969 7.29089 4.25137 7.29089 14.6209V31.2618H22.7042V14.6209C22.7042 4.25137 14.9975 0.0292969 14.9975 0.0292969Z" fill="#B7EBF9"/>
<path d="M7.29089 14.6209V31.2618H15.4777C15.6608 21.0852 14.9975 0.0292969 14.9975 0.0292969C14.9975 0.0292969 7.29089 4.25137 7.29089 14.6209Z" fill="#A7DDEA"/>
<path d="M14.9975 0.0292969C14.9975 0.0292969 7.29089 4.25137 7.29089 14.6209V31.2618H9.80038V14.6209C9.80038 4.25137 14.9975 0.0292969 14.9975 0.0292969Z" fill="#7FCCE6"/>
<path d="M14.9976 0.0292969C14.9976 0.0292969 22.7042 4.25137 22.7042 14.6209V31.2618H20.1947V14.6209C20.1947 4.25137 14.9976 0.0292969 14.9976 0.0292969Z" fill="#D2F1F9"/>
<g style="mix-blend-mode:color-burn">
<path d="M14.9975 0.0292969C14.9975 0.0292969 11.6614 1.85573 9.37964 6.05801C10.8497 7.42907 12.8246 8.27051 14.9975 8.27051C17.1704 8.27051 19.1404 7.42907 20.6154 6.05801C18.3336 1.85573 14.9975 0.0292969 14.9975 0.0292969Z" fill="#4C6DA0"/>
</g>
<path d="M17.56 22.4286C19.1122 20.8765 19.1122 18.3599 17.56 16.8077C16.0079 15.2555 13.4913 15.2555 11.9391 16.8077C10.3869 18.3599 10.3869 20.8765 11.9391 22.4286C13.4913 23.9808 16.0079 23.9808 17.56 22.4286Z" fill="#4C6DA0"/>
<path d="M17.6951 19.6199C17.6951 17.9914 16.3785 16.6748 14.7501 16.6748C13.1216 16.6748 11.805 17.9914 11.805 19.6199C11.805 21.2483 13.1216 22.5649 14.7501 22.5649C16.3785 22.5649 17.6951 21.2483 17.6951 19.6199Z" fill="#7FCCE6"/>
<g style="mix-blend-mode:color-burn">
<path d="M12.2455 19.7691C12.4089 18.4476 13.4731 17.3834 14.7897 17.22C15.745 17.1012 16.6211 17.4428 17.2348 18.0466C16.6557 17.1309 15.5866 16.5568 14.3986 16.6954C13.0672 16.8488 11.9882 17.9179 11.8248 19.2445C11.706 20.2096 12.0575 21.1006 12.6762 21.7143C12.3247 21.1649 12.1515 20.4918 12.2406 19.7691H12.2455Z" fill="#7FCCE6"/>
</g>
<path d="M18.8484 38.0378H11.1417L7.29089 31.2617H22.7042L18.8484 38.0378Z" fill="#7FCCE6"/>
<path d="M7.29089 31.2617L11.1417 38.0378H13.6265L9.77563 31.2617H7.29089Z" fill="#60AEC4"/>
<path d="M22.6943 31.2617L18.8434 38.0378H16.3587L20.2096 31.2617H22.6943Z" fill="#B7EBF9"/>
<path d="M5.57334 36.6619C5.54859 36.6817 5.52384 36.7015 5.49909 36.7262C5.24666 36.0728 4.86058 35.5284 4.38542 35.1621C3.9152 35.5284 3.52912 36.0679 3.27669 36.7213C3.25689 36.7015 3.23214 36.6817 3.21234 36.6668C2.68273 37.0776 2.3313 37.8349 2.3313 38.711C2.3313 39.5871 2.68768 40.3444 3.21234 40.7552C3.29154 40.6958 3.36578 40.6216 3.44003 40.5474C3.68256 41.0374 4.00924 41.4432 4.38542 41.7402C4.76654 41.4432 5.09322 41.0324 5.33575 40.5375C5.41 40.6167 5.48919 40.6909 5.56839 40.7552C6.098 40.3444 6.44943 39.5871 6.44943 38.711C6.44943 37.8349 6.09305 37.0776 5.56839 36.6668L5.57334 36.6619Z" fill="#E13017"/>
<path d="M5.3011 37.0781C5.3011 37.0781 5.2615 37.1078 5.2417 37.1276C5.04866 36.6227 4.75168 36.2069 4.3854 35.9248C4.02408 36.2069 3.7271 36.6227 3.53406 37.1226C3.51921 37.1078 3.49941 37.0929 3.48456 37.083C3.07869 37.3949 2.80646 37.9789 2.80646 38.6521C2.80646 39.3252 3.07869 39.9093 3.48456 40.2211C3.54396 40.1716 3.60336 40.1172 3.6578 40.0578C3.84589 40.434 4.09337 40.7458 4.3854 40.9735C4.67744 40.7458 4.92987 40.429 5.11796 40.0528C5.1724 40.1172 5.23675 40.1716 5.29615 40.2211C5.70202 39.9093 5.97425 39.3252 5.97425 38.6521C5.97425 37.9789 5.70202 37.3949 5.29615 37.083L5.3011 37.0781Z" fill="#F2B00A"/>
<path d="M5.06351 36.7752C5.06351 36.7752 5.03382 36.8 5.01897 36.8099C4.87543 36.4387 4.65764 36.1268 4.38541 35.9189C4.11813 36.1268 3.89539 36.4337 3.7568 36.8049C3.7469 36.795 3.73205 36.7851 3.7172 36.7752C3.41527 37.0079 3.21729 37.4385 3.21729 37.9384C3.21729 38.4383 3.42022 38.869 3.7172 39.1016C3.76175 39.0669 3.8063 39.0273 3.84589 38.9828C3.98449 39.26 4.16762 39.4926 4.38541 39.6609C4.60319 39.4926 4.78633 39.255 4.92492 38.9778C4.96452 39.0224 5.00907 39.0669 5.05857 39.1016C5.3605 38.869 5.55848 38.4383 5.55848 37.9384C5.55848 37.4385 5.35555 37.0079 5.05857 36.7752H5.06351Z" fill="#FEDC7A"/>
<path d="M6.45933 32.2373H2.3313V37.0682H6.45933V32.2373Z" fill="#7FCCE6"/>
<path d="M4.01419 32.2373H2.3313V37.0682H4.01419V32.2373Z" fill="#60AEC4"/>
<path d="M7.38493 21.7884C2.89557 24.5206 -0.811737 30.3662 0.15345 37.1572L9.79542 28.7823V20.3184L7.37998 21.7884H7.38493Z" fill="#6488BC"/>
<path d="M0.153442 37.1575L9.79542 31.2872V22.8232L7.37997 24.2933C2.89556 27.0255 0.153442 31.901 0.153442 37.1575Z" fill="#4C6DA0"/>
<path d="M7.15229 27.8565C6.99885 27.7773 6.81076 27.7872 6.66722 27.8862C6.03366 28.3218 5.09322 29.1385 4.21713 30.5541C3.99934 30.9006 3.8855 31.3114 3.8855 31.742V34.885L4.11813 34.7415V31.742C4.11813 31.3559 4.22208 30.9897 4.41511 30.6778C5.27141 29.2969 6.18215 28.5 6.79591 28.0792C6.87015 28.0297 6.95925 28.0248 7.03844 28.0644C7.11764 28.104 7.16713 28.1832 7.16713 28.2723V32.8854L7.39977 32.7418V28.2723C7.39977 28.099 7.30078 27.9357 7.14734 27.8565H7.15229Z" fill="#7FCCE6"/>
<path d="M24.4267 36.6619C24.4514 36.6817 24.4762 36.7015 24.5009 36.7262C24.7534 36.0728 25.1394 35.5284 25.6146 35.1621C26.0848 35.5284 26.4709 36.0679 26.7233 36.7213C26.7431 36.7015 26.7679 36.6817 26.7877 36.6668C27.3173 37.0776 27.6687 37.8349 27.6687 38.711C27.6687 39.5871 27.3124 40.3444 26.7877 40.7552C26.7085 40.6958 26.6342 40.6216 26.56 40.5474C26.3175 41.0374 25.9908 41.4432 25.6146 41.7402C25.2335 41.4432 24.9068 41.0324 24.6643 40.5375C24.59 40.6167 24.5108 40.6909 24.4316 40.7552C23.902 40.3444 23.5506 39.5871 23.5506 38.711C23.5506 37.8349 23.907 37.0776 24.4316 36.6668L24.4267 36.6619Z" fill="#E13017"/>
<path d="M24.7039 37.0781C24.7039 37.0781 24.7435 37.1078 24.7633 37.1276C24.9563 36.6227 25.2533 36.2069 25.6195 35.9248C25.9809 36.2069 26.2779 36.6227 26.4709 37.1226C26.4857 37.1078 26.5055 37.0929 26.5204 37.083C26.9263 37.3949 27.1985 37.9789 27.1985 38.6521C27.1985 39.3252 26.9263 39.9093 26.5204 40.2211C26.461 40.1716 26.4016 40.1172 26.3472 40.0578C26.1591 40.434 25.9116 40.7458 25.6195 40.9735C25.3275 40.7458 25.0751 40.429 24.887 40.0528C24.8325 40.1172 24.7682 40.1716 24.7088 40.2211C24.3029 39.9093 24.0307 39.3252 24.0307 38.6521C24.0307 37.9789 24.3029 37.3949 24.7088 37.083L24.7039 37.0781Z" fill="#F2B00A"/>
<path d="M24.9365 36.7752C24.9365 36.7752 24.9662 36.8 24.981 36.8099C25.1246 36.4387 25.3424 36.1268 25.6146 35.9189C25.8819 36.1268 26.1046 36.4337 26.2432 36.8049C26.2531 36.795 26.268 36.7851 26.2828 36.7752C26.5847 37.0079 26.7827 37.4385 26.7827 37.9384C26.7827 38.4383 26.5798 38.869 26.2828 39.1016C26.2383 39.0669 26.1937 39.0273 26.1541 38.9828C26.0155 39.26 25.8324 39.4926 25.6146 39.6609C25.3968 39.4926 25.2137 39.255 25.0751 38.9778C25.0355 39.0224 24.9909 39.0669 24.9414 39.1016C24.6395 38.869 24.4415 38.4383 24.4415 37.9384C24.4415 37.4385 24.6445 37.0079 24.9414 36.7752H24.9365Z" fill="#FEDC7A"/>
<path d="M23.5456 37.0635H27.6736V32.2326H23.5456V37.0635Z" fill="#7FCCE6"/>
<path d="M25.9908 37.0635H27.6736V32.2326H25.9908V37.0635Z" fill="#60AEC4"/>
<path d="M22.62 21.7884C27.1094 24.5206 30.8167 30.3662 29.8466 37.1572L20.2046 28.7823V20.3184L22.62 21.7884Z" fill="#6488BC"/>
<path d="M29.8466 37.1575L20.2046 31.2872V22.8232L22.62 24.2933C27.1094 27.0255 29.8466 31.901 29.8466 37.1575Z" fill="#4C6DA0"/>
<path d="M22.8477 27.8565C23.0011 27.7773 23.1892 27.7872 23.3328 27.8862C23.9663 28.3218 24.9068 29.1385 25.7829 30.5541C26.0006 30.9006 26.1145 31.3114 26.1145 31.742V34.885L25.8819 34.7415V31.742C25.8819 31.3559 25.7779 30.9897 25.5849 30.6778C24.7286 29.2969 23.8178 28.5 23.2041 28.0792C23.1298 28.0297 23.0407 28.0248 22.9615 28.0644C22.8824 28.104 22.8329 28.1832 22.8329 28.2723V32.8854L22.6002 32.7418V28.2723C22.6002 28.099 22.6943 27.9357 22.8527 27.8565H22.8477Z" fill="#7FCCE6"/>
</g>
<defs>
<clipPath id="clip0_742_352">
<rect width="30" height="44.5273" fill="white" transform="translate(0 0.0292969)"/>
</clipPath>
</defs>
</svg>
