<svg width="60" height="60" viewBox="0 0 60 60" fill="none" xmlns="http://www.w3.org/2000/svg">
<circle cx="30" cy="30" r="30" fill="#2E2E32"/>
<path fill-rule="evenodd" clip-rule="evenodd" d="M45.6784 36.6338C45.6784 36.6338 46 34.0421 46 31.4551V29.0312C46 26.4395 45.6784 23.8524 45.6784 23.8524C45.6784 23.8524 45.3661 21.6476 44.4058 20.6781C43.3099 19.5276 42.093 19.4097 41.4057 19.3431C41.33 19.3357 41.2608 19.329 41.1988 19.3216C36.724 19 30.007 19 30.007 19H29.993C29.993 19 23.2807 19 18.8012 19.3216C18.7404 19.3288 18.6727 19.3354 18.599 19.3426C17.9102 19.4098 16.6932 19.5285 15.5942 20.6781C14.6339 21.6476 14.3216 23.8524 14.3216 23.8524C14.3216 23.8524 14 26.4441 14 29.0312V31.4597C14 34.0514 14.3216 36.6385 14.3216 36.6385C14.3216 36.6385 14.6339 38.8433 15.5942 39.8128C16.6006 40.8656 17.8687 41.0187 18.6805 41.1167C18.85 41.1372 18.9996 41.1552 19.1228 41.1786C21.6865 41.4256 30.0023 41.5002 30.0023 41.5002C30.0023 41.5002 36.724 41.4862 41.1988 41.1646C41.2596 41.1574 41.3273 41.1508 41.401 41.1436C42.0898 41.0764 43.3068 40.9577 44.4058 39.8082C45.3661 38.8386 45.6784 36.6338 45.6784 36.6338Z" fill="#EAEAEA"/>
<path d="M26.6975 34.3962L35.3443 29.9213L26.6975 25.4092V34.3962Z" fill="#2E2E32"/>
</svg>
