<svg width="60" height="60" viewBox="0 0 60 60" fill="none" xmlns="http://www.w3.org/2000/svg">
<circle cx="30" cy="30" r="30" fill="#2E2E32"/>
<g clip-path="url(#clip0_624_1416)">
<path d="M42.9996 42.9906C40.5383 42.9906 38.2209 42.9984 35.9023 42.9761C35.7312 42.975 35.5098 42.7934 35.3991 42.6374C33.2848 39.6657 31.183 36.6852 29.079 33.7068C28.982 33.5698 28.8827 33.4361 28.7389 33.2388C28.4092 33.6021 28.0977 33.9375 27.7953 34.2795C25.3535 37.0517 22.9106 39.8217 20.479 42.6028C20.236 42.8803 19.9918 43.024 19.6095 42.9995C19.1235 42.9683 18.6328 42.9917 17.9984 42.9917C18.7526 42.1293 19.419 41.3605 20.0922 40.5961C22.5203 37.8373 24.9427 35.074 27.3902 32.3319C27.72 31.9619 27.6903 31.7213 27.4245 31.3458C24.427 27.1195 21.4455 22.8832 18.4605 18.648C18.3362 18.4708 18.2209 18.287 18.0589 18.043C18.3065 18.0318 18.4697 18.0196 18.6328 18.0184C20.7049 18.0184 22.7771 18.0307 24.8492 18.0084C25.2634 18.004 25.4961 18.1432 25.7232 18.4675C27.6184 21.1806 29.532 23.8826 31.4398 26.588C31.5687 26.7707 31.6988 26.9535 31.8722 27.1964C32.2259 26.8019 32.5614 26.4342 32.89 26.0621C35.0842 23.5718 37.2875 21.0893 39.4612 18.5811C39.8286 18.1566 40.204 17.9527 40.7677 18.0106C41.1591 18.0508 41.5596 18.0184 42.1118 18.0184C38.9671 21.5918 35.9069 25.0704 32.833 28.5635C36.2104 33.3558 39.5673 38.1192 42.9996 42.9906ZM39.7716 41.3449C39.6267 41.1198 39.5445 40.9794 39.4509 40.8468C38.7526 39.8518 38.052 38.8579 37.3514 37.864C33.1604 31.9174 28.9683 25.9696 24.7693 20.0263C24.662 19.8736 24.4738 19.6775 24.3174 19.672C23.3213 19.6397 22.3229 19.6553 21.2378 19.6553C21.3702 19.8636 21.442 19.9884 21.5242 20.1054C23.0224 22.2302 24.5228 24.354 26.021 26.4788C29.4167 31.2945 32.8124 36.1102 36.2127 40.9237C36.3245 41.083 36.4877 41.3204 36.6337 41.3259C37.6493 41.3616 38.6659 41.3449 39.7739 41.3449H39.7716Z" fill="#EAEAEA"/>
</g>
<defs>
<clipPath id="clip0_624_1416">
<rect width="25" height="25" fill="white" transform="translate(18 18)"/>
</clipPath>
</defs>
</svg>
