<svg width="60" height="60" viewBox="0 0 60 60" fill="none" xmlns="http://www.w3.org/2000/svg">
<circle cx="30" cy="30" r="30" fill="#2E2E32"/>
<path d="M13.4722 14.9434H45.8596V45.8587H13.4722V14.9434Z" fill="#EAEAEA"/>
<path d="M41.0051 22.3824C40.7585 21.7476 40.4647 21.2942 39.9895 20.819C39.5143 20.3438 39.0608 20.05 38.426 19.7997C37.9472 19.6147 37.2254 19.3934 35.9013 19.3318C34.4685 19.2665 34.0368 19.252 30.4058 19.252C26.7747 19.252 26.343 19.2665 24.9102 19.3318C23.5862 19.3934 22.8643 19.6147 22.3855 19.7997C21.7507 20.0464 21.2973 20.3402 20.8221 20.819C20.3469 21.2942 20.0531 21.7476 19.8064 22.3824C19.6214 22.8613 19.4001 23.5831 19.3385 24.9071C19.2732 26.34 19.2587 26.7716 19.2587 30.4027C19.2587 34.0338 19.2732 34.4654 19.3385 35.8983C19.4001 37.2259 19.6214 37.9441 19.8064 38.4229C20.0531 39.0577 20.3469 39.5112 20.8221 39.9864C21.2973 40.4616 21.7507 40.7554 22.3855 41.0021C22.8643 41.1871 23.5862 41.4083 24.9102 41.47C26.3467 41.5353 26.7747 41.5498 30.4058 41.5498C34.0368 41.5498 34.4685 41.5353 35.9013 41.47C37.2254 41.4083 37.9472 41.1871 38.426 41.0021C39.0608 40.7554 39.5143 40.4616 39.9895 39.9864C40.4647 39.5112 40.7585 39.0577 41.0051 38.4229C41.1938 37.9441 41.4114 37.2223 41.4731 35.8983C41.5384 34.4654 41.5529 34.0338 41.5529 30.4027C41.5529 26.7716 41.5384 26.34 41.4731 24.9071C41.4114 23.5831 41.1901 22.8613 41.0051 22.3824ZM30.4021 37.3891C26.5462 37.3891 23.4193 34.2623 23.4193 30.4063C23.4193 26.5504 26.5462 23.4235 30.4021 23.4235C34.2581 23.4235 37.385 26.5504 37.385 30.4063C37.385 34.2623 34.2581 37.3891 30.4021 37.3891ZM37.6606 24.7765C36.761 24.7765 36.0283 24.0474 36.0283 23.1442C36.0283 22.241 36.761 21.5118 37.6606 21.5118C38.5602 21.5118 39.293 22.241 39.293 23.1442C39.293 24.0474 38.5639 24.7765 37.6606 24.7765Z" fill="#2E2E32"/>
<path d="M30.4019 25.8672C27.899 25.8672 25.8676 27.8986 25.8676 30.4015C25.8676 32.9044 27.899 34.9358 30.4019 34.9358C32.9048 34.9358 34.9362 32.9044 34.9362 30.4015C34.9362 27.8986 32.9048 25.8672 30.4019 25.8672Z" fill="#2E2E32"/>
<path d="M44.2044 12H16.5996C14.0604 12 12 14.0604 12 16.5996V44.2044C12 46.7436 14.0604 48.804 16.5996 48.804H44.2044C46.7472 48.804 48.804 46.7436 48.804 44.2044V16.5996C48.804 14.0568 46.7436 12 44.2044 12ZM43.9214 36.01C43.8561 37.4573 43.624 38.4476 43.2903 39.311C42.942 40.2069 42.4777 40.9651 41.7232 41.7196C40.9651 42.4741 40.2069 42.942 39.3146 43.2866C38.4513 43.624 37.461 43.8525 36.0136 43.9178C34.5626 43.9831 34.0983 44.0012 30.4056 44.0012C26.7129 44.0012 26.2486 43.9867 24.7976 43.9178C23.3502 43.8525 22.36 43.624 21.4966 43.2866C20.6043 42.9384 19.8425 42.4741 19.088 41.7196C18.3335 40.9651 17.8656 40.2033 17.521 39.311C17.1836 38.4476 16.9551 37.4573 16.8898 36.01C16.8245 34.559 16.81 34.0947 16.81 30.402C16.81 26.7092 16.8245 26.2449 16.8898 24.794C16.9551 23.3466 17.1872 22.3563 17.521 21.493C17.8692 20.597 18.3335 19.8389 19.088 19.0844C19.8425 18.3299 20.6043 17.8619 21.4966 17.5173C22.36 17.18 23.3502 16.9514 24.7976 16.8862C26.2486 16.8209 26.7129 16.8027 30.4056 16.8027C34.0983 16.8027 34.5626 16.8172 36.0136 16.8862C37.461 16.9514 38.4513 17.1836 39.3146 17.5173C40.2069 17.8656 40.9687 18.3299 41.7232 19.0844C42.4777 19.8425 42.9456 20.6006 43.2903 21.493C43.6276 22.3563 43.8561 23.3466 43.9214 24.794C43.9867 26.2449 44.0049 26.7092 44.0049 30.402C44.0049 34.0947 43.9903 34.559 43.9214 36.01Z" fill="#2E2E32"/>
</svg>
