<svg width="101" height="95" viewBox="0 0 101 95" fill="none" xmlns="http://www.w3.org/2000/svg">
<path d="M10.8788 47.3395C7.39962 44.6995 4.38667 40.3578 4.53819 34.4835C4.69554 28.1254 8.38451 27.1055 12.6562 25.9283C17.1961 24.6695 22.849 23.1077 26.4505 14.2553C29.2595 7.35526 32.4415 3.5847 35.9032 3.05438C39.1842 2.54736 41.3929 5.16402 41.4861 5.27475L40.6061 6.00322C40.6061 6.00322 38.7063 3.77119 36.0663 4.18496C33.0709 4.65118 30.1104 8.2877 27.5054 14.6866C23.6882 24.0634 17.7381 25.7069 12.9593 27.0298C8.80994 28.1778 5.81445 29.0054 5.68041 34.5184C5.49975 41.7448 10.4825 46.477 14.8067 48.336C19.0435 50.1601 23.2453 49.7347 25.7687 47.2229L26.5729 48.033C23.7173 50.8828 19.0318 51.4014 14.3579 49.3909C13.2099 48.8955 12.021 48.2195 10.8846 47.357L10.8788 47.3395Z" fill="#B3B4B5"/>
<path d="M29.0382 84.3228C28.9217 84.2295 28.8051 84.1363 28.6886 84.043C30.4544 82.6968 32.768 80.7387 35.2856 78.53C43.6892 71.1579 54.354 60.936 54.354 60.936L37.1912 48.5753L35.3613 46.2617C31.5733 52.6897 27.4123 63.4594 24.6266 71.257C23.3212 74.9051 22.3188 77.9006 21.7885 79.4974C21.7768 79.5091 21.7826 79.5207 21.7826 79.5207L17.7906 85.8788L31.2702 94.7486C31.2702 94.7486 36.3462 90.1214 29.044 84.3228H29.0382Z" fill="#DEDEDF"/>
<path d="M26.8816 66.921C26.8816 66.921 32.1849 70.2952 38.9101 75.447L40.7458 73.7103C40.7458 73.7103 35.361 69.4852 27.8141 64.415L26.8816 66.921Z" fill="#79262E"/>
<path d="M49.3362 51.3105L29.6326 36.3682L26.2991 42.6447C23.8864 49.8827 19.5214 53.6824 15.3895 55.6697L16.8756 68.3217C37.5991 69.8428 49.3362 51.3164 49.3362 51.3164V51.3105Z" fill="white"/>
<path d="M8.16884 57.6843C8.13387 57.6843 8.11637 57.6843 8.11637 57.6843L1.38533 57.5444L0.703491 73.6698C0.703491 73.6698 7.15482 75.6105 8.46606 66.659C11.4149 67.5915 14.218 68.116 16.8697 68.3083L15.3836 55.6562C12.6795 56.9558 10.0687 57.4745 8.16884 57.6785V57.6843Z" fill="#6D6E6E"/>
<path d="M35.2737 49.39L22.2603 39.5236C19.8359 37.6821 19.3581 34.2262 21.1996 31.8019L42.0106 4.35898C43.8871 1.88218 47.4187 1.39848 49.8897 3.27501L61.1139 15.3152L35.2795 49.39H35.2737Z" fill="#DEDEDF"/>
<path d="M48.0005 20.6595L36.3491 11.8252L35.4301 13.0372L47.0815 21.8715L48.0005 20.6595Z" fill="#B3B4B5"/>
<path d="M37.5346 34.4622L25.8833 25.6279L24.9643 26.84L36.6157 35.6742L37.5346 34.4622Z" fill="#B3B4B5"/>
<path d="M20.1566 52.4651C20.1566 52.4651 25.2792 60.4608 25.5356 67.7863L28.2572 67.1161C28.2572 67.1161 27.2198 57.2264 21.7126 50.8975L20.1566 52.4651Z" fill="#912B31"/>
<path d="M76.4059 4.76888C65.8985 -3.19765 57.151 3.76651 57.151 3.76651L56.3118 3.13129C55.9272 2.8399 55.3794 2.91566 55.088 3.30029L49.1554 11.127L47.8383 12.8636C47.3546 13.4989 47.1506 14.2973 47.2613 15.0898L47.407 20.3465C47.5236 21.1449 47.9257 21.8733 48.5435 22.392L53.4971 26.553C65.0943 36.6001 69.5059 35.4928 69.5059 35.4928C79.821 33.4531 88.6559 14.07 76.3943 4.77471L76.4059 4.76888Z" fill="white"/>
<path d="M79.6232 18.7935C78.8365 20.74 77.4785 22.8613 75.6311 25.2915C72.7406 29.1086 60.3508 28.6599 53.0603 14.3936L52.6582 14.9239C51.6849 16.2118 51.5043 17.9368 52.2094 19.3879C59.4533 34.3012 72.1753 34.8198 75.1125 30.9502C78.8831 25.9791 80.6081 22.3193 79.6232 18.7935Z" fill="#2F2E2E"/>
<path d="M75.6307 25.2936C77.4781 22.8576 78.836 20.7363 79.6227 18.7957C78.9234 16.2897 76.8545 13.8537 73.1714 11.0622C64.3132 4.34284 56.0961 10.392 56.0961 10.392L53.0598 14.3957C60.3562 28.6621 72.7401 29.1108 75.6307 25.2936Z" fill="#464648"/>
<path opacity="0.7" d="M63.7364 10.2333C64.3192 10.2508 64.9078 10.2741 65.4906 10.2916C66.796 10.3324 68.2296 10.4315 69.1737 11.3348C69.5875 11.7311 69.873 12.3663 69.605 12.8791C69.4534 13.1763 69.1504 13.357 68.8415 13.491C67.8799 13.9165 66.761 13.9806 65.7587 13.6601C65.4206 13.5552 65.1001 13.4095 64.7563 13.3337C64.3192 13.2405 63.8705 13.2638 63.4276 13.2521C62.4427 13.2288 59.8901 13.0715 60.0708 11.5854C60.2514 10.0993 62.6816 10.1984 63.7306 10.2333H63.7364Z" fill="white"/>
<path d="M59.3949 8.7457C59.3949 8.7457 69.6051 3.74549 78.8537 16.1761C80.6254 18.7053 79.7221 22.4118 79.7221 22.4118C79.7221 22.4118 82.129 15.0805 74.314 9.17696C65.9103 3.61145 60.5197 7.91816 59.3949 8.73988V8.7457Z" fill="#8A8C8E"/>
<path d="M59.2256 8.82915C59.2256 8.82915 69.092 4.42337 78.3406 16.854C80.1122 19.3832 79.78 22.163 79.78 22.163C79.78 22.163 81.6216 15.7583 73.8066 9.85483C65.403 4.28933 60.3562 7.99578 59.2314 8.82332L59.2256 8.82915Z" fill="#59595B"/>
<path d="M59.3947 8.74109C59.3947 8.74109 69.3486 4.07888 78.5914 16.5095C80.363 19.0387 79.7977 21.9701 79.7977 21.9701C79.7977 21.9701 81.8724 15.4139 74.0515 9.51035C65.6479 3.94484 60.5137 7.90772 59.3889 8.73526L59.3947 8.74109Z" fill="#DEDEDF"/>
<path d="M58.9928 11.0517C58.1362 12.1764 56.5335 12.3979 55.4029 11.547C54.2782 10.6903 54.0567 9.08771 54.9076 7.95713C55.7643 6.83237 57.3669 6.61092 58.4975 7.46177C59.6222 8.31845 59.8437 9.92108 58.9928 11.0517Z" fill="#6D6E6E"/>
<path d="M58.981 8.88064C58.8528 8.46687 58.608 8.08807 58.2351 7.80834C57.3026 7.09735 55.9681 7.28384 55.2629 8.21628C54.9832 8.58343 54.8433 9.02051 54.8317 9.45176C54.8142 10.1103 55.1056 10.763 55.6709 11.1943C56.6033 11.9052 57.9379 11.7188 58.643 10.7863C59.0684 10.221 59.1733 9.51587 58.981 8.88647V8.88064Z" fill="white"/>
<path opacity="0.2" d="M58.981 8.88574C58.9694 9.317 58.8353 9.74825 58.5498 10.1212C57.8388 11.0537 56.51 11.2402 55.5776 10.5292C55.2105 10.2494 54.9599 9.87063 54.8317 9.45686C54.8142 10.1154 55.1056 10.7681 55.6709 11.1994C56.6033 11.9103 57.9379 11.7239 58.643 10.7914C59.0684 10.2261 59.1733 9.52097 58.981 8.89157V8.88574Z" fill="#2F2E2E"/>
<path d="M69.5177 35.4914C69.5177 35.4914 75.4329 48.3591 89.7925 37.4437L94.5479 41.7912C94.5479 41.7912 82.1814 61.9144 63.2703 46.5583L53.5438 60.3293L54.3481 60.9412L51.6323 64.5194L26.4797 45.4452L48.6602 20.7646L61.5279 31.7616L69.5118 35.4914H69.5177Z" fill="white"/>
<path d="M48.217 18.1743C48.217 18.1743 29.2243 17.7314 21.386 43.9971L28.2627 49.2129C28.2627 49.2129 34.7724 33.9151 43.7296 30.331C44.6213 29.9755 45.4138 29.4044 46.0549 28.6934L51.2358 22.9647L48.2112 18.1801L48.217 18.1743Z" fill="#C8C9CB"/>
<path d="M48.2173 18.1728C48.2173 18.1728 28.2048 16.9548 20.3665 43.2205L27.2432 48.4364C27.2432 48.4364 33.9393 32.6898 43.1005 29.4029C43.6775 29.1931 44.2194 28.8901 44.6915 28.4938L51.2361 22.9633L48.2115 18.1787L48.2173 18.1728Z" fill="white"/>
<path d="M69.5176 35.4919C69.5176 35.4919 59.6979 34.5478 52.5822 24.1045L51.8071 25.1243C51.8071 25.1243 57.53 35.725 70.287 36.7216L69.5176 35.4919Z" fill="#C8C9CB"/>
<path d="M77.7579 41.737L76.8488 52.3202C76.8488 52.3202 74.2845 52.4309 71.7145 51.3877C71.7145 51.3877 72.3206 49.3713 73.8766 46.8537C75.1412 44.814 76.6565 42.5004 77.3733 41.6729C77.5131 41.7311 77.7579 41.7311 77.7579 41.7311V41.737Z" fill="#C8C9CB"/>
<path d="M92.421 44.5824L87.8054 38.8421L89.0526 37.9912L93.773 42.9098L92.421 44.5824Z" fill="#C8C9CB"/>
<path opacity="0.2" d="M63.2759 46.5561L64.4356 45.0292C64.4356 45.0292 78.8768 59.348 93.7492 41.0547L94.5535 41.789C94.5535 41.789 82.1928 62.0754 63.2759 46.5561Z" fill="#2F2E2E"/>
<path d="M34.8481 35.8848L27.0098 29.5093C27.0098 29.5093 28.5425 27.2248 29.9877 25.9951L35.5066 35.1039L34.8481 35.8848Z" fill="#C8C9CB"/>
<path d="M21.0712 40.9836L28.2043 46.3917L29.2184 44.4511L21.8463 38.8564L21.0712 40.9836Z" fill="#C8C9CB"/>
<path d="M54.4076 59.1989L31.3185 41.6924L30.477 42.8023L53.5661 60.3088L54.4076 59.1989Z" fill="#C8C9CB"/>
<path d="M100.649 38.0298L100.422 37.4762C100.294 37.1615 99.9557 36.9808 99.6177 37.0507L97.9627 37.3887L99.8916 35.3316C100.206 35.0576 100.218 34.5681 99.9091 34.2826L99.5653 33.9562C99.472 33.8688 99.3671 33.8163 99.2506 33.7872C99.0641 33.7406 98.8601 33.7697 98.6911 33.8804L96.0511 35.6288L98.4988 32.4002C98.7378 32.0913 98.6736 31.6426 98.3647 31.4095L97.9044 31.0598C97.6247 30.8442 97.2283 30.8733 96.9777 31.1181L94.5301 33.9387L95.1304 30.9374C95.2528 30.6402 95.1595 30.2964 94.9031 30.1041C94.5651 29.8476 94.0755 29.9467 93.8599 30.3139L92.065 34.4516L91.8552 32.9538C91.8086 32.61 91.5113 32.3477 91.1616 32.3419H90.608C90.2176 32.3303 89.8971 32.6391 89.8912 33.0296L89.798 37.4354L93.7492 41.0486L94.5534 41.7829L100.288 38.9389C100.638 38.7816 100.795 38.3795 100.649 38.024V38.0298Z" fill="#6D6E6E"/>
<path d="M20.3666 43.2217C20.3666 43.2217 16.2755 46.4444 17.272 48.2802C18.2686 50.1159 20.1509 53.4144 23.2863 53.904C24.5975 54.1079 26.0369 50.6054 26.0369 50.6054C26.0369 50.6054 26.4857 51.9808 27.4356 52.6626C28.3914 53.3445 30.3611 52.3713 28.2632 49.2126L20.3666 43.2217Z" fill="#6D6E6E"/>
<path d="M46.9302 32.3894L46.1268 31.7803L35.6271 45.6282L36.4305 46.2373L46.9302 32.3894Z" fill="#C8C9CB"/>
<path d="M59.0877 52.4931L41.288 38.9971L40.7704 39.6797L58.5701 53.1758L59.0877 52.4931Z" fill="#C8C9CB"/>
<path d="M48.755 44.6685L48.1141 44.1826L42.7551 51.2505L43.396 51.7364L48.755 44.6685Z" fill="#C8C9CB"/>
<path d="M58.1709 40.8861L55.9744 39.2207L54.3089 41.4172L56.5054 43.0827L58.1709 40.8861Z" fill="#C8C9CB"/>
<path d="M62.0943 43.8715L59.8978 42.2061L55.9613 47.3979L58.1578 49.0633L62.0943 43.8715Z" fill="#C8C9CB"/>
<path d="M55.9007 43.8842L53.7042 42.2188L52.0388 44.4153L54.2353 46.0807L55.9007 43.8842Z" fill="#C8C9CB"/>
<path d="M52.707 36.742L51.221 35.6153C50.3695 34.9697 49.1558 35.1366 48.5102 35.988L48.0595 36.5824C47.4139 37.4339 47.5808 38.6476 48.4323 39.2932L49.9183 40.4199C50.7698 41.0655 51.9835 40.8986 52.6291 40.0471L53.0798 39.4527C53.7254 38.6013 53.5585 37.3876 52.707 36.742Z" fill="#C8C9CB"/>
<path d="M21.7707 79.5283L17.7787 85.8864L31.2583 94.7562C31.2583 94.7562 36.3343 90.1289 29.0321 84.3303C28.9155 84.2371 28.799 84.1438 28.6824 84.0506C30.4482 82.7044 31.6254 81.737 34.143 79.5283L24.1718 72.5C22.8663 76.1482 22.301 77.9081 21.7765 79.505C21.7649 79.5166 21.7707 79.5283 21.7707 79.5283Z" fill="#6D6E6E"/>
<g clip-path="url(#clip0_740_306)">
<path d="M38.3767 27.127C39.4698 28.22 41.2311 28.231 42.3106 27.1514C43.3902 26.0718 43.3793 24.3105 42.2862 23.2175C41.1931 22.1244 39.4318 22.1134 38.3523 23.193C37.2727 24.2726 37.2836 26.0339 38.3767 27.127Z" fill="#0B3D91"/>
<path d="M41.7718 23.4975C41.7839 23.5097 41.8036 23.5098 41.8157 23.4976C41.8278 23.4855 41.8278 23.4658 41.8156 23.4537C41.8034 23.4415 41.7838 23.4415 41.7716 23.4536C41.7595 23.4657 41.7596 23.4854 41.7718 23.4975Z" fill="white"/>
<path d="M41.9704 23.7544C41.9825 23.7666 42.0022 23.7666 42.0143 23.7545C42.0264 23.7424 42.0264 23.7227 42.0142 23.7105C42.0021 23.6983 41.9824 23.6983 41.9703 23.7104C41.9581 23.7225 41.9582 23.7422 41.9704 23.7544Z" fill="white"/>
<path d="M41.8717 24.4507C41.8839 24.4628 41.9036 24.4629 41.9157 24.4508C41.9278 24.4387 41.9278 24.419 41.9156 24.4068C41.9034 24.3946 41.8837 24.3946 41.8716 24.4067C41.8595 24.4188 41.8596 24.4385 41.8717 24.4507Z" fill="white"/>
<path d="M38.1873 24.8569C38.1994 24.8691 38.2191 24.8691 38.2312 24.857C38.2434 24.8449 38.2433 24.8252 38.2311 24.8131C38.219 24.8009 38.1993 24.8008 38.1872 24.8129C38.1751 24.8251 38.1751 24.8447 38.1873 24.8569Z" fill="white"/>
<path d="M38.0697 25.0903C38.0819 25.1025 38.1016 25.1025 38.1137 25.0904C38.1258 25.0783 38.1258 25.0586 38.1136 25.0465C38.1014 25.0343 38.0817 25.0342 38.0696 25.0463C38.0575 25.0585 38.0576 25.0781 38.0697 25.0903Z" fill="white"/>
<path d="M37.9491 24.6607C37.9582 24.6698 37.9729 24.6698 37.982 24.6607C37.9911 24.6516 37.9911 24.6369 37.982 24.6278C37.9729 24.6187 37.9582 24.6187 37.9491 24.6278C37.94 24.6369 37.94 24.6516 37.9491 24.6607Z" fill="white"/>
<path d="M38.507 25.9078C38.5161 25.9168 38.5308 25.9168 38.5399 25.9078C38.549 25.8987 38.549 25.8839 38.5399 25.8749C38.5308 25.8658 38.5161 25.8658 38.507 25.8748C38.4979 25.8839 38.4979 25.8987 38.507 25.9078Z" fill="white"/>
<path d="M40.2126 27.0328C40.2216 27.0418 40.2364 27.0418 40.2455 27.0328C40.2545 27.0237 40.2545 27.0089 40.2455 26.9999C40.2364 26.9908 40.2216 26.9908 40.2126 26.9998C40.2035 27.0089 40.2035 27.0237 40.2126 27.0328Z" fill="white"/>
<path d="M41.0652 27.0025C41.0743 27.0116 41.089 27.0116 41.0981 27.0025C41.1072 26.9934 41.1072 26.9787 41.0981 26.9696C41.089 26.9605 41.0743 26.9605 41.0652 26.9696C41.0561 26.9787 41.0561 26.9934 41.0652 27.0025Z" fill="white"/>
<path d="M40.6057 23.4302C40.6148 23.4393 40.6296 23.4393 40.6386 23.4302C40.6477 23.4211 40.6477 23.4064 40.6386 23.3973C40.6296 23.3882 40.6148 23.3882 40.6057 23.3973C40.5967 23.4064 40.5967 23.4211 40.6057 23.4302Z" fill="white"/>
<path d="M41.3868 23.5542C41.3958 23.5633 41.4106 23.5633 41.4197 23.5542C41.4287 23.5452 41.4287 23.5304 41.4197 23.5213C41.4106 23.5122 41.3958 23.5122 41.3867 23.5213C41.3777 23.5304 41.3777 23.5451 41.3868 23.5542Z" fill="white"/>
<path d="M41.3697 23.4732C41.3787 23.4823 41.3935 23.4823 41.4026 23.4732C41.4116 23.4641 41.4116 23.4494 41.4026 23.4403C41.3935 23.4312 41.3787 23.4312 41.3697 23.4403C41.3606 23.4494 41.3606 23.4641 41.3697 23.4732Z" fill="white"/>
<path d="M41.3573 23.397C41.3664 23.4061 41.3811 23.4061 41.3902 23.397C41.3993 23.3879 41.3993 23.3732 41.3902 23.3641C41.3811 23.355 41.3664 23.355 41.3573 23.3641C41.3482 23.3732 41.3482 23.3879 41.3573 23.397Z" fill="white"/>
<path d="M40.592 23.5865C40.601 23.5955 40.6158 23.5955 40.6249 23.5865C40.6339 23.5774 40.6339 23.5626 40.6249 23.5536C40.6158 23.5445 40.601 23.5445 40.5919 23.5536C40.5829 23.5626 40.5829 23.5774 40.592 23.5865Z" fill="white"/>
<path d="M42.1129 23.398C42.122 23.4071 42.1368 23.4071 42.1458 23.398C42.1549 23.3889 42.1549 23.3742 42.1458 23.3651C42.1368 23.356 42.122 23.356 42.1129 23.3651C42.1039 23.3742 42.1039 23.3889 42.1129 23.398Z" fill="white"/>
<path d="M41.7489 23.981C41.758 23.9901 41.7728 23.9901 41.7818 23.981C41.7909 23.9719 41.7909 23.9572 41.7818 23.9481C41.7727 23.939 41.758 23.939 41.7489 23.9481C41.7398 23.9572 41.7398 23.9719 41.7489 23.981Z" fill="white"/>
<path d="M41.6686 23.7163C41.6777 23.7254 41.6924 23.7254 41.7015 23.7163C41.7106 23.7073 41.7106 23.6925 41.7015 23.6834C41.6924 23.6744 41.6777 23.6744 41.6686 23.6834C41.6595 23.6925 41.6595 23.7073 41.6686 23.7163Z" fill="white"/>
<path d="M41.2473 23.5454C41.2564 23.5545 41.2712 23.5545 41.2802 23.5454C41.2893 23.5364 41.2893 23.5216 41.2802 23.5125C41.2712 23.5035 41.2564 23.5035 41.2473 23.5125C41.2383 23.5216 41.2383 23.5364 41.2473 23.5454Z" fill="white"/>
<path d="M39.8578 27.5445C39.8669 27.5536 39.8816 27.5536 39.8907 27.5445C39.8998 27.5354 39.8998 27.5207 39.8907 27.5116C39.8816 27.5025 39.8669 27.5025 39.8578 27.5116C39.8487 27.5207 39.8487 27.5354 39.8578 27.5445Z" fill="white"/>
<path d="M38.0539 24.9351C38.063 24.9442 38.0777 24.9442 38.0868 24.9351C38.0959 24.926 38.0959 24.9113 38.0868 24.9022C38.0777 24.8931 38.0629 24.8931 38.0539 24.9022C38.0448 24.9113 38.0448 24.926 38.0539 24.9351Z" fill="white"/>
<path d="M38.9987 26.3033C39.0078 26.3123 39.0225 26.3123 39.0316 26.3033C39.0407 26.2942 39.0407 26.2794 39.0316 26.2704C39.0225 26.2613 39.0078 26.2613 38.9987 26.2704C38.9896 26.2794 38.9896 26.2942 38.9987 26.3033Z" fill="white"/>
<path d="M38.4112 25.2661C38.4203 25.2752 38.435 25.2752 38.4441 25.2662C38.4532 25.2571 38.4532 25.2423 38.4441 25.2332C38.435 25.2242 38.4202 25.2242 38.4112 25.2332C38.4021 25.2423 38.4021 25.2571 38.4112 25.2661Z" fill="white"/>
<path d="M38.3232 25.6421C38.3322 25.6512 38.347 25.6512 38.3561 25.6421C38.3651 25.633 38.3651 25.6183 38.3561 25.6092C38.347 25.6001 38.3322 25.6001 38.3231 25.6092C38.3141 25.6183 38.3141 25.633 38.3232 25.6421Z" fill="white"/>
<path d="M39.5282 26.5552C39.5373 26.5643 39.552 26.5643 39.5611 26.5552C39.5702 26.5461 39.5702 26.5314 39.5611 26.5223C39.552 26.5132 39.5373 26.5132 39.5282 26.5223C39.5191 26.5314 39.5191 26.5461 39.5282 26.5552Z" fill="white"/>
<path d="M40.4378 26.813C40.4469 26.8221 40.4616 26.8221 40.4707 26.813C40.4798 26.8039 40.4798 26.7892 40.4707 26.7801C40.4616 26.771 40.4469 26.771 40.4378 26.7801C40.4287 26.7892 40.4287 26.8039 40.4378 26.813Z" fill="white"/>
<path d="M40.6806 27.4556C40.6897 27.4647 40.7044 27.4647 40.7135 27.4556C40.7226 27.4465 40.7226 27.4318 40.7135 27.4227C40.7044 27.4136 40.6897 27.4136 40.6806 27.4227C40.6715 27.4318 40.6715 27.4465 40.6806 27.4556Z" fill="white"/>
<path d="M40.736 27.7017C40.7451 27.7108 40.7598 27.7108 40.7689 27.7017C40.778 27.6926 40.778 27.6779 40.7689 27.6688C40.7598 27.6597 40.7451 27.6597 40.736 27.6688C40.7269 27.6779 40.7269 27.6926 40.736 27.7017Z" fill="white"/>
<path d="M41.0212 27.4663C41.0302 27.4754 41.045 27.4754 41.0541 27.4663C41.0631 27.4573 41.0631 27.4425 41.054 27.4334C41.045 27.4244 41.0302 27.4244 41.0211 27.4334C41.0121 27.4425 41.0121 27.4573 41.0212 27.4663Z" fill="white"/>
<path d="M39.1881 24.897C39.1972 24.9061 39.212 24.9061 39.221 24.897C39.2301 24.8879 39.2301 24.8732 39.221 24.8641C39.212 24.855 39.1972 24.855 39.1881 24.8641C39.1791 24.8732 39.1791 24.8879 39.1881 24.897Z" fill="white"/>
<path d="M38.8119 25.2856C38.8241 25.2978 38.8438 25.2978 38.8559 25.2857C38.868 25.2736 38.8679 25.2539 38.8558 25.2418C38.8436 25.2296 38.8239 25.2295 38.8118 25.2417C38.7997 25.2538 38.7997 25.2735 38.8119 25.2856Z" fill="white"/>
<path d="M38.6676 25.6968C38.6798 25.7089 38.6995 25.709 38.7116 25.6969C38.7237 25.6848 38.7237 25.6651 38.7115 25.6529C38.6993 25.6407 38.6796 25.6407 38.6675 25.6528C38.6554 25.6649 38.6555 25.6846 38.6676 25.6968Z" fill="white"/>
<path d="M40.5515 27.0024C40.5637 27.0146 40.5834 27.0146 40.5955 27.0025C40.6076 26.9904 40.6076 26.9707 40.5954 26.9586C40.5832 26.9464 40.5635 26.9463 40.5514 26.9585C40.5393 26.9706 40.5394 26.9903 40.5515 27.0024Z" fill="white"/>
<path d="M41.1575 27.5434C41.1697 27.5556 41.1894 27.5557 41.2015 27.5435C41.2136 27.5314 41.2135 27.5117 41.2014 27.4996C41.1892 27.4874 41.1695 27.4874 41.1574 27.4995C41.1453 27.5116 41.1453 27.5313 41.1575 27.5434Z" fill="white"/>
<path d="M40.9931 27.1401C41.0052 27.1523 41.0249 27.1523 41.037 27.1402C41.0491 27.1281 41.0491 27.1084 41.0369 27.0963C41.0248 27.0841 41.0051 27.084 40.993 27.0962C40.9808 27.1083 40.9809 27.128 40.9931 27.1401Z" fill="white"/>
<path d="M40.6918 26.8618C40.704 26.874 40.7237 26.874 40.7358 26.8619C40.7479 26.8498 40.7478 26.8301 40.7357 26.8179C40.7235 26.8058 40.7038 26.8057 40.6917 26.8178C40.6796 26.8299 40.6796 26.8496 40.6918 26.8618Z" fill="white"/>
<path d="M42.3517 24.0059L42.4121 24.0557L42.3601 23.9975C42.3689 23.9851 42.3686 23.9684 42.3593 23.9563L42.4082 23.8967L42.3503 23.9481C42.3383 23.9404 42.3223 23.9409 42.3109 23.9499L42.2495 23.8987L42.3033 23.9583C42.2959 23.9697 42.2962 23.9849 42.3043 23.9961L42.2537 24.0571L42.3125 24.0043C42.3243 24.0126 42.3401 24.0131 42.3521 24.0051L42.3517 24.0059Z" fill="white"/>
<path d="M40.8137 23.6817L40.8741 23.7315L40.8221 23.6732C40.8311 23.6611 40.8306 23.6441 40.8213 23.6321L40.8702 23.5725L40.8124 23.6239C40.8003 23.6162 40.7844 23.6167 40.773 23.6257L40.7116 23.5744L40.7653 23.6341C40.7579 23.6455 40.7582 23.6606 40.7664 23.6719L40.7157 23.7329L40.7745 23.68C40.7862 23.6886 40.8021 23.6889 40.8141 23.6809L40.8137 23.6817Z" fill="white"/>
<path d="M41.2723 27.3487L41.3328 27.3985L41.2808 27.3402C41.2898 27.3281 41.2893 27.3111 41.2799 27.2991L41.3288 27.2395L41.271 27.2909C41.2589 27.2832 41.243 27.2837 41.2316 27.2926L41.1702 27.2414L41.224 27.3011C41.2166 27.3125 41.2168 27.3276 41.225 27.3389L41.1743 27.3999L41.2331 27.347C41.2448 27.3556 41.2608 27.3559 41.2725 27.3477L41.2723 27.3487Z" fill="white"/>
<path d="M38.1845 25.9375L38.2449 25.9874L38.1929 25.9291C38.2017 25.9167 38.2014 25.9 38.192 25.8879L38.2409 25.8283L38.1831 25.8798C38.171 25.872 38.1551 25.8725 38.1437 25.8815L38.0823 25.8303L38.1361 25.8899C38.1287 25.9013 38.129 25.9165 38.1371 25.9278L38.0864 25.9887L38.1452 25.9359C38.1569 25.9445 38.1729 25.9447 38.1848 25.9367L38.1845 25.9375Z" fill="white"/>
<path d="M40.6675 27.6026L40.7279 27.6524L40.6759 27.5941C40.6849 27.582 40.6844 27.565 40.6751 27.553L40.724 27.4934L40.6661 27.5448C40.6541 27.5371 40.6381 27.5376 40.6267 27.5466L40.5653 27.4953L40.6191 27.555C40.6117 27.5664 40.612 27.5815 40.6201 27.5928L40.5695 27.6538L40.6283 27.6009C40.6399 27.6095 40.6559 27.6098 40.6677 27.6016L40.6675 27.6026Z" fill="white"/>
<path d="M41.2691 25.1738C40.9506 25.0321 40.6473 24.8863 40.3995 24.7556C39.8956 24.4899 38.5205 23.7589 37.4784 23.5291L37.5112 23.6027C38.1151 23.774 38.4348 23.9581 38.7524 24.1249C39.0975 24.3062 40.1455 24.9608 40.6381 25.2391C40.8047 25.3332 41.0044 25.4381 41.2237 25.5421C41.2379 25.4529 41.2501 25.3614 41.2602 25.2676C41.2637 25.2363 41.2667 25.2047 41.2697 25.1736L41.2691 25.1738ZM41.1673 25.8377C41.0744 25.8192 40.9982 25.8021 40.9467 25.7882C40.6491 25.7069 39.1038 25.4064 38.7505 25.3395C38.3972 25.2727 37.271 25.2333 36.9417 25.2195L36.8715 25.2778C37.9157 25.34 38.2103 25.3925 38.5954 25.4474C39.0721 25.515 40.0137 25.6996 40.3264 25.7698C40.6253 25.8367 40.8969 25.8951 41.1424 25.9455C41.1439 25.9393 41.1457 25.9328 41.147 25.9263C41.1539 25.8971 41.1606 25.8674 41.1673 25.8377ZM42.9343 25.8004C42.5088 25.6867 41.8957 25.4505 41.3238 25.198C41.3218 25.2199 41.3196 25.2415 41.3171 25.2634C41.306 25.3666 41.2916 25.4679 41.2749 25.5663C41.7167 25.7723 42.2303 25.9697 42.7037 26.0603C42.4437 26.0518 41.6714 25.9354 41.2181 25.8473C41.2094 25.8837 41.2006 25.9195 41.1913 25.9549C41.8729 26.0942 42.3486 26.1707 42.6431 26.1979C43.0492 26.2357 43.967 26.3295 44.7116 25.9697C43.9505 26.056 43.3093 25.8999 42.9347 25.8L42.9343 25.8004Z" fill="#FC3D21"/>
<path d="M39.5928 25.4012C39.6034 25.3033 39.6158 25.1703 39.6266 25.0687C39.6413 24.9325 39.6614 24.8006 39.686 24.6732C39.665 24.6605 39.6443 24.6479 39.6235 24.6354C39.59 24.7931 39.5634 24.9573 39.5451 25.1255C39.5317 25.2484 39.5268 25.3533 39.5183 25.413C39.5166 25.425 39.5117 25.4506 39.5052 25.4848C39.532 25.4901 39.5589 25.4954 39.5861 25.5007C39.5873 25.4682 39.5894 25.4347 39.5932 25.4012L39.5928 25.4012ZM39.6257 26.0054C39.6233 25.936 39.5924 25.7931 39.5858 25.6188C39.5523 25.6123 39.5185 25.6059 39.4844 25.5996C39.4616 25.7394 39.4412 25.9189 39.4743 26.0104C39.5243 26.1481 39.6286 26.0945 39.6255 26.0056L39.6257 26.0054ZM41.3171 25.2629C41.443 24.1024 41.1642 23.1172 40.678 23.0584C40.3002 23.0129 39.9018 23.5851 39.6838 24.3866C39.704 24.3966 39.724 24.4063 39.7438 24.4163C39.9462 23.6251 40.3272 23.0831 40.6835 23.1259C41.1313 23.1799 41.3821 24.1403 41.26 25.2669C41.2346 25.5001 41.1964 25.7212 41.1472 25.9251C40.9591 26.706 40.6119 27.2352 40.2283 27.2094C40.111 27.2014 39.898 27.0315 39.7585 26.6691C39.7507 26.6699 39.7447 26.6874 39.7461 26.6947C39.8767 26.9973 40.0515 27.2375 40.2383 27.2601C40.6875 27.3144 41.1917 26.4234 41.3175 25.2629L41.3171 25.2629Z" fill="white"/>
<path d="M39.0221 23.1205L39.3532 23.4516L39.1653 24.1955L39.529 23.8319C39.5699 23.7909 39.5706 23.6851 39.5602 23.6586L39.7894 23.8879C39.7716 23.8775 39.6726 23.8865 39.6281 23.931L39.0937 24.4654C39.0608 24.4983 39.0635 24.5915 39.0691 24.632L38.7497 24.3125L38.9354 23.5621L38.5674 23.9301C38.531 23.9665 38.5322 24.0379 38.5399 24.1055L38.296 23.8616C38.3454 23.8816 38.4245 23.8691 38.4641 23.8355C38.5037 23.8018 38.9715 23.3281 38.9921 23.3075C39.0366 23.2631 39.0296 23.1828 39.0227 23.1203L39.0221 23.1205Z" fill="white"/>
<path d="M41.3204 26.884L41.761 27.3246C41.7425 27.2943 41.7435 27.2386 41.7666 27.1857C41.7898 27.1328 42.1784 26.2771 42.1784 26.2771L42.0108 26.1096C41.9293 26.0959 41.8431 26.0805 41.751 26.0636C41.7496 26.065 41.7481 26.0662 41.7463 26.0671C41.6951 26.1037 41.095 26.4416 41.064 26.4568C41.0208 26.4778 40.928 26.4567 40.886 26.4527L41.1234 26.6901C41.126 26.6402 41.1324 26.5953 41.166 26.5705C41.1995 26.5457 41.2712 26.5006 41.2712 26.5006L41.5166 26.7461C41.4985 26.7864 41.4806 26.821 41.4599 26.85C41.4351 26.8851 41.3705 26.8875 41.3198 26.8838L41.3204 26.884ZM41.3874 26.4296L41.7376 26.2452L41.5797 26.622L41.3876 26.4298L41.3874 26.4296ZM41.7952 25.9472C41.8161 25.9505 41.8374 25.9538 41.8583 25.9571L41.7941 25.8928C41.7946 25.9051 41.7961 25.925 41.7952 25.9472Z" fill="white"/>
<path d="M39.4831 24.8867C39.5166 24.8619 39.5882 24.8168 39.5882 24.8168L39.8337 25.0623C39.8156 25.1026 39.7977 25.1372 39.777 25.1662C39.7522 25.2013 39.6876 25.2037 39.6369 25.2L40.025 25.5881C40.0384 25.5909 40.0518 25.5933 40.0652 25.5962C40.0633 25.568 40.0692 25.5343 40.0833 25.5019C40.1065 25.449 40.495 24.5933 40.495 24.5933L40.1106 24.2088C40.1122 24.2441 40.1203 24.3427 40.0632 24.3835C40.012 24.4201 39.4119 24.758 39.3809 24.7732C39.3377 24.7942 39.2449 24.7731 39.2029 24.7691L39.4403 25.0065C39.4429 24.9566 39.4493 24.9118 39.4829 24.8869L39.4831 24.8867ZM40.0541 24.5612L39.8962 24.938L39.7041 24.7458L40.0543 24.5614L40.0541 24.5612Z" fill="white"/>
<path d="M41.1128 25.9385C40.9929 25.9137 40.8668 25.8871 40.7344 25.8585C40.7533 25.9119 40.7603 25.9624 40.735 25.9931C40.6875 26.051 40.5548 25.9692 40.469 25.8614C40.4517 25.8398 40.4378 25.8157 40.4264 25.791C40.3936 25.7837 40.3603 25.7762 40.3265 25.7687C40.2922 25.761 40.2506 25.7519 40.2026 25.7419L40.127 25.8175C40.1835 25.7996 40.2588 25.8083 40.2933 25.8393C40.3082 25.8525 40.3123 25.946 40.5243 26.1361C40.6271 26.2283 40.9185 26.3141 41.0338 26.1928C41.102 26.1211 41.1195 26.0298 41.1128 25.9385ZM40.3767 25.5678L40.2998 25.6448C40.3294 25.6509 40.3584 25.6568 40.3868 25.6629C40.3784 25.6173 40.3766 25.5806 40.3767 25.5678ZM41.0926 25.8216C41.0849 25.792 41.0755 25.7633 41.0657 25.7367C41.015 25.5982 40.9239 25.491 40.9624 25.4113C40.9894 25.3549 41.0692 25.3576 41.1684 25.4595C41.2675 25.5614 41.3016 25.7137 41.3054 25.7602L41.4938 25.5718C41.4792 25.5717 41.4099 25.576 41.3862 25.5402C41.3411 25.4716 41.2592 25.3595 41.1478 25.2493C41.0199 25.123 40.8135 25.1104 40.687 25.2295C40.5102 25.3959 40.6024 25.5817 40.6537 25.687C40.6591 25.6979 40.6653 25.7099 40.6723 25.7232C40.7958 25.75 40.8925 25.7722 40.947 25.7872C40.9837 25.7972 41.0332 25.8088 41.0924 25.8214L41.0926 25.8216Z" fill="white"/>
</g>
<defs>
<clipPath id="clip0_740_306">
<rect width="6.84095" height="5.52885" fill="white" transform="translate(40.0377 20.9688) rotate(45)"/>
</clipPath>
</defs>
</svg>
