<svg width="45" height="45" viewBox="0 0 45 45" fill="none" xmlns="http://www.w3.org/2000/svg">
<g clip-path="url(#clip0_17_164)">
<path d="M39.3761 0H5.62389C2.51922 0 0 2.51922 0 5.62389V39.3717C0 42.4763 2.51922 44.9956 5.62389 44.9956H39.3761C42.4808 44.9956 45 42.4763 45 39.3717V5.62389C45 2.51478 42.4808 0 39.3761 0ZM37.7218 23.6487C37.7218 26.1103 37.4157 28.5763 37.4157 28.5763C37.4157 28.5763 37.1186 30.6742 36.2049 31.5967C35.0473 32.8075 33.7522 32.8164 33.1535 32.8873C28.8956 33.1934 22.5 33.2067 22.5 33.2067C22.5 33.2067 14.5875 33.1357 12.1481 32.9007C11.4695 32.772 9.94826 32.8119 8.79066 31.6011C7.877 30.6786 7.57983 28.5807 7.57983 28.5807C7.57983 28.5807 7.2738 26.1192 7.2738 23.6532V21.3424C7.2738 18.8808 7.57983 16.4148 7.57983 16.4148C7.57983 16.4148 7.877 14.317 8.79066 13.3944C9.94826 12.1836 11.2433 12.1747 11.8421 12.1038C16.1044 11.7978 22.4911 11.7978 22.4911 11.7978H22.5044C22.5044 11.7978 28.8956 11.7978 33.1535 12.1038C33.7478 12.1747 35.0473 12.1792 36.2049 13.3944C37.1186 14.317 37.4157 16.4148 37.4157 16.4148C37.4157 16.4148 37.7218 18.8764 37.7218 21.3424V23.6532V23.6487Z" fill="white"/>
<path d="M19.3554 26.4472L27.5828 22.1893L19.3554 17.896V26.4472Z" fill="white"/>
</g>
<defs>
<clipPath id="clip0_17_164">
<rect width="45" height="45" fill="white"/>
</clipPath>
</defs>
</svg>
