<svg width="45" height="45" viewBox="0 0 45 45" fill="none" xmlns="http://www.w3.org/2000/svg">
<g clip-path="url(#clip0_17_152)">
<path d="M35.4642 12.6938C35.1626 11.9177 34.8034 11.3633 34.2224 10.7822C33.6413 10.2012 33.0869 9.84197 32.3108 9.53593C31.7253 9.30974 30.8427 9.03919 29.2238 8.96379C27.4719 8.88395 26.9441 8.86621 22.5044 8.86621C18.0648 8.86621 17.537 8.88395 15.7851 8.96379C14.1662 9.03919 13.2836 9.30974 12.6981 9.53593C11.922 9.83753 11.3675 10.1968 10.7865 10.7822C10.2055 11.3633 9.84626 11.9177 9.54466 12.6938C9.31846 13.2793 9.04791 14.1619 8.97251 15.7808C8.89268 17.5327 8.87494 18.0605 8.87494 22.5002C8.87494 26.9398 8.89268 27.4676 8.97251 29.2196C9.04791 30.8429 9.31846 31.721 9.54466 32.3065C9.84626 33.0827 10.2055 33.6371 10.7865 34.2181C11.3675 34.7991 11.922 35.1583 12.6981 35.4599C13.2836 35.6861 14.1662 35.9567 15.7851 36.0321C17.5414 36.1119 18.0648 36.1297 22.5044 36.1297C26.9441 36.1297 27.4719 36.1119 29.2238 36.0321C30.8427 35.9567 31.7253 35.6861 32.3108 35.4599C33.0869 35.1583 33.6413 34.7991 34.2224 34.2181C34.8034 33.6371 35.1626 33.0827 35.4642 32.3065C35.6949 31.721 35.961 30.8384 36.0364 29.2196C36.1162 27.4676 36.134 26.9398 36.134 22.5002C36.134 18.0605 36.1162 17.5327 36.0364 15.7808C35.961 14.1619 35.6904 13.2793 35.4642 12.6938ZM22.5 31.0424C17.7853 31.0424 13.9622 27.2193 13.9622 22.5046C13.9622 17.7899 17.7853 13.9667 22.5 13.9667C27.2147 13.9667 31.0379 17.7899 31.0379 22.5046C31.0379 27.2193 27.2147 31.0424 22.5 31.0424ZM31.3749 15.6211C30.275 15.6211 29.3791 14.7296 29.3791 13.6252C29.3791 12.5209 30.275 11.6294 31.3749 11.6294C32.4749 11.6294 33.3708 12.5209 33.3708 13.6252C33.3708 14.7296 32.4793 15.6211 31.3749 15.6211Z" fill="white"/>
<path d="M22.5 16.9561C19.4397 16.9561 16.9559 19.4398 16.9559 22.5001C16.9559 25.5604 19.4397 28.0442 22.5 28.0442C25.5603 28.0442 28.044 25.5604 28.044 22.5001C28.044 19.4398 25.5603 16.9561 22.5 16.9561Z" fill="white"/>
<path d="M39.3761 0H5.62389C2.51922 0 0 2.51922 0 5.62389V39.3761C0 42.4808 2.51922 45 5.62389 45H39.3761C42.4852 45 45 42.4808 45 39.3761V5.62389C45 2.51478 42.4808 0 39.3761 0ZM39.0302 29.3569C38.9503 31.1266 38.6665 32.3374 38.2584 33.393C37.8326 34.4885 37.2649 35.4154 36.3424 36.338C35.4154 37.2605 34.4885 37.8326 33.3974 38.254C32.3418 38.6665 31.131 38.9459 29.3613 39.0257C27.5872 39.1056 27.0195 39.1277 22.5044 39.1277C17.9894 39.1277 17.4216 39.11 15.6475 39.0257C13.8779 38.9459 12.6671 38.6665 11.6115 38.254C10.5204 37.8282 9.589 37.2605 8.66647 36.338C7.74394 35.4154 7.17179 34.484 6.75044 33.393C6.33797 32.3374 6.05855 31.1266 5.97871 29.3569C5.89888 27.5828 5.88114 27.0151 5.88114 22.5C5.88114 17.9849 5.89888 17.4172 5.97871 15.6431C6.05855 13.8734 6.3424 12.6626 6.75044 11.607C7.17623 10.5115 7.74394 9.58457 8.66647 8.66203C9.589 7.7395 10.5204 7.16736 11.6115 6.74601C12.6671 6.33353 13.8779 6.05411 15.6475 5.97428C17.4216 5.89444 17.9894 5.87226 22.5044 5.87226C27.0195 5.87226 27.5872 5.89001 29.3613 5.97428C31.131 6.05411 32.3418 6.33797 33.3974 6.74601C34.4885 7.17179 35.4199 7.7395 36.3424 8.66203C37.2649 9.589 37.8371 10.516 38.2584 11.607C38.6709 12.6626 38.9503 13.8734 39.0302 15.6431C39.11 17.4172 39.1322 17.9849 39.1322 22.5C39.1322 27.0151 39.1144 27.5828 39.0302 29.3569Z" fill="white"/>
</g>
<defs>
<clipPath id="clip0_17_152">
<rect width="45" height="45" fill="white"/>
</clipPath>
</defs>
</svg>
