<?xml version="1.0" encoding="utf-8"?>
<!-- Generator: Adobe Illustrator 27.9.0, SVG Export Plug-In . SVG Version: 6.00 Build 0)  -->
<svg version="1.1" id="Layer_1" xmlns="http://www.w3.org/2000/svg" xmlns:xlink="http://www.w3.org/1999/xlink" x="0px" y="0px"
	 viewBox="0 0 80 80" style="enable-background:new 0 0 80 80;" xml:space="preserve">
<style type="text/css">
	.st0{fill:#EC1C24;}
</style>
<path class="st0" d="M79.82,33.89c-0.16-0.29-0.4-0.48-0.71-0.6c0,0-7.37-2.92-7.45-2.95c-0.02-0.09-1.61-7.85-1.61-7.85
	c-0.06-0.33-0.22-0.59-0.47-0.8c-0.24-0.21-0.53-0.32-0.86-0.32c0,0-7.93-0.22-8.01-0.23c-0.05-0.07-4.2-6.83-4.2-6.83
	c-0.17-0.29-0.4-0.48-0.71-0.59c-0.3-0.12-0.6-0.12-0.92-0.01c0,0-7.53,2.5-7.61,2.53c-0.07-0.06-6.28-4.98-6.28-4.98
	c-0.26-0.2-0.54-0.31-0.87-0.31c-0.32,0-0.61,0.11-0.87,0.31h0c0,0-6.22,4.92-6.29,4.98c-0.09-0.04-7.61-2.53-7.61-2.53
	c-0.32-0.11-0.62-0.11-0.93,0.01c-0.31,0.11-0.54,0.3-0.7,0.59c0,0-4.16,6.75-4.2,6.83c-0.09,0-8.02,0.23-8.02,0.23
	c-0.33,0-0.62,0.11-0.86,0.32c-0.25,0.21-0.4,0.47-0.47,0.8c0,0-1.6,7.76-1.62,7.85c-0.08,0.03-7.45,2.95-7.45,2.95
	c-0.31,0.12-0.54,0.31-0.7,0.6c-0.13,0.22-0.19,0.44-0.19,0.67c0,0.07,0.01,0.16,0.02,0.24l1.37,9.33l23.12,8.44
	c0,0,12.25,4.28,12.68,4.44c-0.43,0.15-8.77,3-8.77,3c-0.03,0.01-0.75,0.21-1.01,0.75c-0.07,0.13-0.1,0.27-0.1,0.41
	c0,0.14,0.02,0.28,0.09,0.43c0.98,2.44,2.66,4.52,4.86,6.02c2.25,1.53,4.9,2.34,7.64,2.34c2.75,0,5.39-0.81,7.65-2.34
	c2.2-1.5,3.88-3.58,4.86-6.02c0.06-0.15,0.09-0.29,0.09-0.43c0-0.15-0.03-0.29-0.1-0.41c-0.27-0.54-0.99-0.75-1.02-0.76
	c0,0-8.34-2.84-8.77-2.99c0.43-0.15,12.68-4.44,12.68-4.44l23.12-8.44l1.38-9.33c0.02-0.08,0.02-0.16,0.02-0.24
	C80,34.32,79.94,34.1,79.82,33.89z"/>
</svg>
