<svg width="800" height="399" viewBox="0 0 800 399" fill="none" xmlns="http://www.w3.org/2000/svg">
<g style="mix-blend-mode:multiply">
<path opacity="0.01" d="M2.84171 398.481L0.121094 25.1078L799.094 7.58887L799.01 243.25C801.494 295.823 802.731 398.557 668.83 393.147C457.557 369.516 229.155 373.363 2.84171 398.481Z" fill="#FEFEFE"/>
<path opacity="0.03" d="M2.96234 397.965L0.232422 25.7654L798.805 7.86621L798.689 242.283C801.173 294.845 801.024 398.128 668.439 392.826C460.1 369.522 226.132 373.2 2.96234 397.965Z" fill="#FDFDFD"/>
<path opacity="0.04" d="M3.09004 397.444L0.355469 26.4172L798.528 8.13232L798.375 241.305C800.858 293.851 799.328 397.688 668.055 392.495C462.651 369.522 223.116 373.02 3.09004 397.438V397.444Z" fill="#FCFCFC"/>
<path opacity="0.05" d="M3.21067 396.922L0.466797 27.0689L798.24 8.40381L798.054 240.333C800.537 292.868 797.626 397.254 667.664 392.169C465.195 369.522 220.093 372.852 3.21067 396.922Z" fill="#FBFBFB"/>
<path opacity="0.07" d="M3.33446 396.401L0.585938 27.7212L797.959 8.67041L797.74 239.35C800.219 291.869 795.927 396.809 667.281 391.833C467.746 369.512 217.077 372.673 3.33446 396.39V396.401Z" fill="#FAFAFA"/>
<path opacity="0.08" d="M3.45509 395.884L0.697266 28.3779L797.67 8.94678L797.415 238.382C799.893 290.89 794.22 396.379 666.886 391.517C470.285 369.527 214.049 372.509 3.45044 395.884H3.45509Z" fill="#F9F9F9"/>
<path opacity="0.1" d="M3.58083 395.363L0.818359 29.0301L797.391 9.21875L797.103 237.41C799.582 289.902 792.527 395.945 666.504 391.191C472.838 369.528 211.036 372.341 3.58083 395.363Z" fill="#F8F8F8"/>
<path opacity="0.11" d="M3.70146 394.842L0.929688 29.6819L797.103 9.48486L796.777 236.432C799.256 288.913 790.815 395.504 666.109 390.86C475.377 369.527 208.008 372.168 3.69681 394.842H3.70146Z" fill="#F7F7F7"/>
<path opacity="0.12" d="M3.82014 394.32L1.03906 30.3336L796.812 9.75635L796.454 235.46C798.933 287.924 789.111 395.07 665.72 390.534C477.924 369.527 204.988 371.994 3.82014 394.32Z" fill="#F6F6F6"/>
<path opacity="0.14" d="M3.94979 393.804L1.16406 30.9908L796.537 10.0278L796.147 234.482C798.626 286.936 787.422 394.624 665.343 390.208C480.481 369.533 201.978 371.825 3.95444 393.798L3.94979 393.804Z" fill="#F5F5F5"/>
<path opacity="0.15" d="M4.06846 393.282L1.27344 31.6425L796.242 10.2993L795.814 233.51C798.293 285.952 785.704 394.189 664.941 389.882C483.013 369.533 198.944 371.651 4.06381 393.282H4.06846Z" fill="#F4F4F4"/>
<path opacity="0.16" d="M4.19811 392.761L1.39844 32.2948L795.967 10.5659L795.507 232.532C797.981 284.959 784.015 393.75 664.564 389.551C485.57 369.528 195.934 371.478 4.19811 392.756V392.761Z" fill="#F3F3F3"/>
<path opacity="0.18" d="M4.31679 392.24L1.50781 32.9466L795.677 10.8374L795.184 231.56C797.658 283.975 782.311 393.315 664.171 389.225C488.112 369.533 192.914 371.309 4.31679 392.24Z" fill="#F2F2F2"/>
<path opacity="0.19" d="M4.44058 391.718L1.62695 33.5984L795.396 11.1035L794.866 230.582C797.34 282.981 780.607 392.875 663.783 388.893C490.659 369.527 189.894 371.13 4.44058 391.713V391.718Z" fill="#F1F1F1"/>
<path opacity="0.21" d="M4.56316 391.202L1.74023 34.256L795.109 11.3809L794.546 229.61C797.021 281.998 778.906 392.441 663.394 388.573C493.204 369.538 186.872 370.967 4.56316 391.197V391.202Z" fill="#F0F0F0"/>
<path opacity="0.22" d="M4.68891 390.68L1.86133 34.9072L794.83 11.6519L794.235 228.637C796.709 281.009 777.214 392.006 663.013 388.246C495.758 369.538 183.859 370.798 4.69356 390.68H4.68891Z" fill="#EFEFEF"/>
<path opacity="0.23" d="M4.80954 390.159L1.97266 35.5595L794.542 11.9185L793.909 227.659C796.383 280.021 775.502 391.566 662.617 387.916C498.297 369.533 180.831 370.619 4.80954 390.154V390.159Z" fill="#EEEEEE"/>
<path opacity="0.25" d="M4.93528 389.637L2.09375 36.2113L794.263 12.1899L793.598 226.687C796.072 279.032 773.809 391.131 662.236 387.589C500.85 369.538 177.818 370.451 4.93993 389.637H4.93528Z" fill="#EDEDED"/>
<path opacity="0.26" d="M5.05787 389.122L2.20703 36.8689L793.976 12.4619L793.274 225.715C795.743 278.049 772.104 390.697 661.842 387.269C503.391 369.544 174.792 370.288 5.05787 389.122Z" fill="#ECECEC"/>
<path opacity="0.27" d="M5.17654 388.6L2.31641 37.5206L793.681 12.7334L792.946 224.737C795.416 277.055 770.39 390.251 661.445 386.938C505.928 369.544 171.762 370.109 5.17189 388.6H5.17654Z" fill="#EBEBEB"/>
<path opacity="0.29" d="M5.30229 388.078L2.4375 38.1725L793.402 12.9995L792.635 223.759C795.104 276.066 768.698 389.811 661.064 386.606C508.481 369.538 168.749 369.935 5.30229 388.073V388.078Z" fill="#EAEAEA"/>
<path opacity="0.3" d="M5.42291 387.557L2.54883 38.8242L793.113 13.271L792.309 222.787C794.778 275.077 766.986 389.377 660.668 386.28C511.016 369.544 165.721 369.761 5.41826 387.551L5.42291 387.557Z" fill="#E9E9E9"/>
<path opacity="0.32" d="M5.54671 387.041L2.66797 39.4814L792.833 13.5425L791.995 221.814C794.465 274.094 765.292 388.942 660.29 385.96C513.572 369.549 162.71 369.598 5.55136 387.041H5.54671Z" fill="#E8E8E8"/>
<path opacity="0.33" d="M5.66929 386.519L2.78125 40.1331L792.546 13.814L791.676 220.842C794.146 273.11 763.591 388.507 659.901 385.634C516.117 369.549 159.689 369.429 5.67394 386.519H5.66929Z" fill="#E7E7E7"/>
<path opacity="0.34" d="M5.79503 385.998L2.90234 40.7854L792.267 14.0806L791.36 219.859C793.83 272.111 761.889 388.062 659.515 385.297C518.666 369.544 156.671 369.245 5.79503 385.993V385.998Z" fill="#E6E6E6"/>
<path opacity="0.36" d="M5.91761 385.476L3.01562 41.4371L791.98 14.3521L791.041 218.886C793.51 271.128 760.189 387.628 659.126 384.971C521.212 369.544 153.654 369.077 5.91761 385.471V385.476Z" fill="#E5E5E5"/>
<path opacity="0.37" d="M6.03945 384.955L3.13281 42.0889L791.698 14.6235L790.721 217.914C793.186 270.139 758.487 387.193 658.736 384.645C523.756 369.549 150.632 368.908 6.03945 384.955Z" fill="#E4E4E4"/>
<path opacity="0.38" d="M6.16203 384.439L3.24609 42.7465L791.411 14.8955L790.402 216.942C792.866 269.156 756.782 386.759 658.347 384.325C526.302 369.555 147.611 368.74 6.16203 384.439Z" fill="#E3E3E3"/>
<path opacity="0.4" d="M6.28852 383.917L3.36328 43.3978L791.128 15.1665L790.086 215.969C792.551 268.167 755.086 386.323 657.962 383.998C528.851 369.56 144.593 368.571 6.28852 383.917Z" fill="#E2E2E2"/>
<path opacity="0.41" d="M6.40841 383.396L3.47852 44.0501L790.839 15.4331L789.76 214.986C792.225 267.173 753.378 385.873 657.566 383.662C531.39 369.549 141.565 368.392 6.40376 383.39L6.40841 383.396Z" fill="#E1E1E1"/>
<path opacity="0.42" d="M6.52904 382.874L3.58984 44.7018L790.55 15.7046L789.439 214.013C791.903 266.185 751.671 385.438 657.175 383.336C533.933 369.549 138.542 368.218 6.52439 382.869L6.52904 382.874Z" fill="#E0E0E0"/>
<path opacity="0.44" d="M6.65673 382.359L3.71289 45.3595L790.273 15.9766L789.129 213.041C791.594 265.202 749.98 385.004 656.796 383.016C536.489 369.56 135.53 368.056 6.65673 382.359Z" fill="#DFDFDF"/>
<path opacity="0.45" d="M6.77737 381.837L3.82422 46.0112L789.985 16.248L788.803 212.069C791.268 264.213 748.273 384.569 656.4 382.69C539.028 369.56 132.502 367.882 6.77271 381.837H6.77737Z" fill="#DEDEDE"/>
<path opacity="0.47" d="M6.90506 381.315L3.94727 46.663L789.708 16.5142L788.494 211.091C790.954 263.224 746.578 384.129 656.021 382.358C541.583 369.56 129.491 367.708 6.90506 381.31V381.315Z" fill="#DDDDDD"/>
<path opacity="0.48" d="M7.02179 380.794L4.05469 47.3148L789.415 16.7856L788.169 210.119C790.629 262.235 744.871 383.695 655.626 382.032C544.122 369.56 126.464 367.539 7.02179 380.794Z" fill="#DCDCDC"/>
<path opacity="0.49" d="M7.14753 380.278L4.17578 47.9724L789.136 17.063L787.853 209.147C790.313 261.252 743.174 383.26 655.24 381.707C546.671 369.56 123.446 367.366 7.14753 380.273V380.278Z" fill="#DBDBDB"/>
<path opacity="0.51" d="M7.26621 379.756L4.28516 48.6237L788.846 17.3286L787.53 208.168C789.99 260.258 741.465 382.82 654.852 381.38C549.218 369.565 120.425 367.197 7.27086 379.756H7.26621Z" fill="#DBDBDB"/>
<path opacity="0.52" d="M7.39586 379.235L4.41016 49.2759L788.571 17.6006L787.217 207.196C789.678 259.275 739.772 382.386 654.47 381.055C551.77 369.565 117.411 367.029 7.40051 379.235H7.39586Z" fill="#DADADA"/>
<path opacity="0.53" d="M7.51454 378.713L4.51953 49.9277L788.28 17.8667L786.894 206.218C789.354 258.286 738.067 381.945 654.077 380.723C554.312 369.565 114.391 366.849 7.51918 378.713H7.51454Z" fill="#D9D9D9"/>
<path opacity="0.55" d="M7.63907 378.197L4.63477 50.5848L787.991 18.1436L786.572 205.251C789.033 257.303 736.36 381.511 653.685 380.403C556.855 369.571 111.367 366.686 7.63907 378.197Z" fill="#D8D8D8"/>
<path opacity="0.56" d="M7.76286 377.676L4.75391 51.2371L787.71 18.4102L786.254 204.268C788.71 256.309 734.66 381.066 653.298 380.072C559.401 369.571 108.347 366.513 7.76286 377.671V377.676Z" fill="#D7D7D7"/>
<path opacity="0.58" d="M7.88544 377.154L4.86719 51.8884L787.423 18.6812L785.935 203.295C788.391 255.32 732.96 380.63 652.909 379.745C561.942 369.57 105.325 366.338 7.88544 377.154Z" fill="#D6D6D6"/>
<path opacity="0.59" d="M8.00728 376.633L4.98438 52.5406L787.141 18.9478L785.62 202.318C788.075 254.332 731.259 380.191 652.524 379.414C564.492 369.565 102.308 366.165 8.01193 376.627L8.00728 376.633Z" fill="#D5D5D5"/>
<path opacity="0.6" d="M8.12987 376.111L5.09766 53.1924L786.854 19.2192L785.296 201.346C787.751 253.343 729.553 379.756 652.13 379.088C567.033 369.571 99.2821 365.991 8.12987 376.111Z" fill="#D4D4D4"/>
<path opacity="0.62" d="M8.25561 375.595L5.21875 53.8496L786.575 19.4907L784.984 200.373C787.44 252.359 727.856 379.321 651.749 378.762C569.586 369.571 96.2687 365.822 8.26026 375.59L8.25561 375.595Z" fill="#D3D3D3"/>
<path opacity="0.63" d="M8.37429 375.074L5.32812 54.5018L786.284 19.7627L784.657 199.396C787.112 251.366 726.147 378.882 651.351 378.436C572.123 369.576 93.2389 365.654 8.36963 375.074H8.37429Z" fill="#D2D2D2"/>
<path opacity="0.64" d="M8.50393 374.552L5.45312 55.153L786.01 20.0337L784.349 198.423C786.805 250.382 724.458 378.447 650.974 378.11C574.68 369.576 90.2294 365.48 8.50393 374.552Z" fill="#D1D1D1"/>
<path opacity="0.66" d="M8.62261 374.031L5.5625 55.8053L785.719 20.3003L784.026 197.445C786.482 249.388 722.749 378.007 650.581 377.779C577.222 369.571 87.2042 365.306 8.62261 374.025V374.031Z" fill="#D0D0D0"/>
<path opacity="0.67" d="M8.7491 373.515L5.67969 56.4629L785.431 20.5776L783.701 196.479C786.152 248.411 721.044 377.578 650.187 377.459C579.762 369.582 84.1776 365.144 8.7398 373.515H8.7491Z" fill="#CFCFCF"/>
<path opacity="0.68" d="M8.86703 372.993L5.79297 57.1147L785.145 20.8438L783.382 195.501C785.833 247.417 719.343 377.133 649.798 377.133C582.308 369.582 81.1564 364.97 8.86238 372.993H8.86703Z" fill="#CECECE"/>
<path opacity="0.7" d="M8.98962 372.472L5.90625 57.7665L784.858 21.1152L783.063 194.523C785.514 246.428 717.638 376.693 649.413 376.801C584.858 369.582 78.1398 364.796 8.98962 372.472Z" fill="#CDCDCD"/>
<path opacity="0.71" d="M9.11536 371.95L6.02734 58.4183L784.579 21.3813L782.747 193.545C785.198 245.439 715.941 376.252 649.028 376.47C587.407 369.576 75.1263 364.622 9.11536 371.945V371.95Z" fill="#CCCCCC"/>
<path opacity="0.73" d="M9.23404 371.434L6.13672 59.0754L784.289 21.6582L782.424 192.578C784.875 244.456 714.236 375.823 648.635 376.149C589.948 369.587 72.1012 364.453 9.23404 371.428V371.434Z" fill="#CBCBCB"/>
<path opacity="0.74" d="M9.36369 370.913L6.26172 59.7277L784.014 21.9248L782.112 191.6C784.563 243.467 712.538 375.384 648.253 375.824C592.501 369.587 69.087 364.285 9.36369 370.913Z" fill="#CACACA"/>
<path opacity="0.75" d="M9.48432 370.391L6.37305 60.3789L783.725 22.1958L781.79 190.627C784.241 242.478 710.836 374.948 647.862 375.497C595.045 369.587 66.0638 364.111 9.48432 370.391Z" fill="#C9C9C9"/>
<path opacity="0.77" d="M9.60811 369.87L6.49219 61.0312L783.444 22.4678L781.477 189.65C783.923 241.49 709.141 374.509 647.479 375.166C597.596 369.587 63.0484 363.938 9.61276 369.87H9.60811Z" fill="#C8C8C8"/>
<path opacity="0.78" d="M9.72874 369.354L6.60352 61.6888L783.156 22.7397L781.151 188.678C783.597 240.501 707.429 374.074 647.083 374.84C600.135 369.587 60.0206 363.77 9.72874 369.348V369.354Z" fill="#C7C7C7"/>
<path opacity="0.79" d="M9.85644 368.832L6.72656 62.3401L782.879 23.0107L780.842 187.705C783.288 239.518 705.739 373.639 646.704 374.514C602.69 369.592 57.0091 363.595 9.86108 368.832H9.85644Z" fill="#C6C6C6"/>
<path opacity="0.81" d="M9.97511 368.311L6.83594 62.9924L782.584 23.2773L780.514 186.728C782.96 238.524 704.03 373.2 646.306 374.188C605.227 369.593 53.9793 363.427 9.97511 368.311Z" fill="#C5C5C5"/>
<path opacity="0.82" d="M10.1016 367.789L6.95312 63.6436L782.301 23.5483L780.194 185.755C782.64 237.54 702.324 372.765 645.917 373.862C607.772 369.598 50.9573 363.258 10.0969 367.789H10.1016Z" fill="#C4C4C4"/>
<path opacity="0.84" d="M10.2234 367.267L7.07031 64.2959L782.018 23.8149L779.879 184.772C782.325 236.541 700.627 372.314 645.531 373.525C610.322 369.587 47.94 363.074 10.2234 367.262V367.267Z" fill="#C3C3C3"/>
<path opacity="0.85" d="M10.3441 366.752L7.18164 64.9535L781.729 24.0923L779.558 183.805C782.004 235.563 698.925 371.885 645.141 373.205C612.865 369.593 44.9168 362.911 10.3441 366.746V366.752Z" fill="#C2C2C2"/>
<path opacity="0.86" d="M10.4679 366.23L7.30078 65.6053L781.449 24.3584L779.24 182.827C781.686 234.569 697.221 371.445 644.753 372.879C615.407 369.598 41.8968 362.743 10.4679 366.23Z" fill="#C1C1C1"/>
<path opacity="0.88" d="M10.5924 365.709L7.41602 66.257L781.164 24.6299L778.922 181.855C781.364 233.586 695.523 371.01 644.366 372.553C617.955 369.598 38.8775 362.569 10.5924 365.709Z" fill="#C0C0C0"/>
<path opacity="0.89" d="M10.7142 365.187L7.5332 66.9088L780.881 24.896L778.602 180.877C781.044 232.592 693.821 370.57 643.981 372.222C620.504 369.598 35.8648 362.395 10.7189 365.187H10.7142Z" fill="#BFBFBF"/>
<path opacity="0.9" d="M10.8349 364.671L7.64453 67.5659L780.593 25.1729L778.281 179.904C780.723 231.608 692.114 370.136 643.59 371.896C623.048 369.598 32.8416 362.221 10.8395 364.665L10.8349 364.671Z" fill="#BEBEBE"/>
<path opacity="0.92" d="M10.9626 364.15L7.76758 68.2182L780.316 25.4448L777.972 178.932C780.413 230.625 690.424 369.701 643.21 371.57C625.603 369.598 29.8302 362.053 10.9672 364.144L10.9626 364.15Z" fill="#BDBDBD"/>
<path opacity="0.93" d="M11.0832 363.628L7.87891 68.8695L780.027 25.7104L777.646 177.954C780.087 229.631 688.712 369.261 642.815 371.244C628.142 369.603 26.8023 361.884 11.0832 363.628Z" fill="#BCBCBC"/>
<path opacity="0.95" d="M11.2058 363.106L7.99219 69.5217L779.736 25.9824L777.322 176.982C779.764 228.648 687.007 368.827 642.421 370.918C630.683 369.603 23.7764 361.71 11.2011 363.106H11.2058Z" fill="#BBBBBB"/>
<path opacity="0.96" d="M11.3315 362.591L8.11328 70.1794L779.457 26.2544L777.011 176.01C779.452 227.66 685.314 368.392 642.04 370.592C633.236 369.609 20.763 361.542 11.3315 362.591Z" fill="#BABABA"/>
<path opacity="0.97" d="M11.4541 362.069L8.22656 70.8306L779.17 26.5254L776.687 175.032C779.124 226.67 683.604 367.946 641.646 370.26C635.777 369.603 17.7371 361.368 11.4494 362.063L11.4541 362.069Z" fill="#B9B9B9"/>
<path opacity="0.99" d="M11.572 361.548L8.33984 71.4829L778.883 26.792L776.367 174.054C778.804 225.677 681.904 367.507 641.257 369.935C638.323 369.609 14.7159 361.194 11.572 361.542V361.548Z" fill="#B8B8B8"/>
<path d="M11.6966 361.025L8.45508 72.1342L778.599 27.063L776.045 173.081C778.482 224.693 680.201 367.072 640.866 369.608L11.6919 361.025H11.6966Z" fill="#B7B7B7"/>
</g>
<mask id="mask0_854_47" style="mask-type:luminance" maskUnits="userSpaceOnUse" x="0" y="0" width="784" height="371">
<path d="M783.953 0H0.00585938V370.701H783.953V0Z" fill="white"/>
</mask>
<g mask="url(#mask0_854_47)">
<path d="M529.429 376.791L514.961 70.5002L777.182 53.6006L783.693 191.432C786.13 243.044 680.207 367.073 640.872 369.61L529.429 376.791Z" fill="url(#paint0_linear_854_47)"/>
<path d="M529.427 376.791L514.959 70.5002L777.18 53.6006L783.691 191.432C786.128 243.044 680.205 367.073 640.87 369.61L529.427 376.791Z" fill="url(#paint1_linear_854_47)"/>
<path d="M-34.9102 394.293L-15.517 -10.5544L800.072 -30.6699L783.698 191.432C786.135 243.044 680.212 367.072 640.877 369.609L-34.9102 394.293Z" fill="url(#paint2_linear_854_47)"/>
<path d="M783.692 191.432C781.153 247.21 708.761 300.848 670.468 302.489C704.785 327.629 667.091 367.92 640.871 369.609C683.48 366.866 786.347 247.639 783.692 191.432Z" fill="url(#paint3_radial_854_47)"/>
</g>
<defs>
<linearGradient id="paint0_linear_854_47" x1="523.038" y1="63.9517" x2="747.852" y2="255.25" gradientUnits="userSpaceOnUse">
<stop offset="0.61" stop-color="white"/>
<stop offset="0.71" stop-color="#FBFBFB"/>
<stop offset="0.8" stop-color="#F1F0F0"/>
<stop offset="0.88" stop-color="#DFDFDF"/>
<stop offset="0.95" stop-color="#C7C6C6"/>
<stop offset="1" stop-color="#B3B2B2"/>
</linearGradient>
<linearGradient id="paint1_linear_854_47" x1="630.82" y1="215.198" x2="773.673" y2="215.198" gradientUnits="userSpaceOnUse">
<stop stop-color="white"/>
<stop offset="0.57" stop-color="white"/>
</linearGradient>
<linearGradient id="paint2_linear_854_47" x1="200.918" y1="-110.969" x2="629.778" y2="395.63" gradientUnits="userSpaceOnUse">
<stop offset="0.05" stop-color="#E0E0E0"/>
<stop offset="0.46" stop-color="white"/>
<stop offset="0.88" stop-color="#EAEAEA"/>
</linearGradient>
<radialGradient id="paint3_radial_854_47" cx="0" cy="0" r="1" gradientUnits="userSpaceOnUse" gradientTransform="translate(550.5 118.767) rotate(-3.68972) scale(246.043 287.076)">
<stop offset="0.79" stop-color="white"/>
<stop offset="0.81" stop-color="#FAFAFA"/>
<stop offset="0.84" stop-color="#EBEBEB"/>
<stop offset="0.87" stop-color="#D4D4D4"/>
<stop offset="0.91" stop-color="#B3B3B3"/>
<stop offset="0.94" stop-color="#898989"/>
<stop offset="0.95" stop-color="#808080"/>
<stop offset="0.97" stop-color="#828282"/>
<stop offset="0.98" stop-color="#8A8A8A"/>
<stop offset="0.99" stop-color="#989898"/>
<stop offset="1" stop-color="#B9B9B9"/>
</radialGradient>
</defs>
</svg>
