<svg width="253" height="65" viewBox="0 0 253 65" fill="none" xmlns="http://www.w3.org/2000/svg">
<path d="M47.8435 29.7557C45.9992 29.55 44.9827 29.4471 44.9827 29.4471C44.9827 29.4471 42.9497 29.3443 42.3398 29.3443L33.5543 29.6675C33.5543 29.6675 29.256 29.8439 28.6461 28.11L28.0216 23.0405C28.0216 23.0405 27.8038 21.2772 31.289 22.2176C31.289 22.2176 35.5728 22.7319 39.4646 22.629C39.4646 22.629 42.7319 23.5548 45.186 23.1433C45.186 23.1433 49.2811 23.2609 49.6877 20.8657C49.6877 20.8657 50.5009 18.7939 49.4844 17.6771C49.4844 17.6771 49.2811 16.2224 45.186 14.4591C45.186 14.4591 42.3398 14.7823 41.1055 14.2534C41.1055 14.2534 39.4646 14.2534 37.4316 14.5766L27.4262 14.8852C27.4262 14.8852 25.3787 15.9285 23.549 15.0909L21.2982 15.0028C21.2982 15.0028 19.4685 15.5024 18.0308 14.6942L16.9998 13.9595C16.9998 13.9595 15.3734 12.1962 17.4064 10.9619L37.6349 10.4476C37.6349 10.4476 40.2778 10.5357 40.9022 10.8737L45.186 11.1676L48.2501 10.8737C48.2501 10.8737 50.2831 10.5504 51.1108 8.0671C51.1108 8.0671 51.7352 6.40666 50.7042 4.14376C50.7042 4.14376 51.3286 2.17474 44.7794 0.822874C44.7794 0.822874 41.7154 0.426131 39.4646 0C39.4646 0 38.0269 0.52899 36.6038 0.734709C36.6038 0.734709 34.353 1.79269 32.1167 1.79269L18.6407 1.98371C18.6407 1.98371 15.5767 2.07188 14.3569 1.46942C14.3569 1.46942 13.3259 1.16084 11.6995 0.940427C11.6995 0.940427 10.4797 0.734709 9.46317 0.426131L6.60244 0.822874C6.60244 0.822874 5.78923 0.63185 2.94302 2.46862C2.94302 2.46862 1.09879 2.89475 0.271068 4.5405C0.271068 4.5405 -0.338835 5.0548 0.271068 7.74383L2.1153 9.0957L3.93048 10.4476C3.93048 10.4476 3.7417 12.3137 4.35161 17.3538C4.35161 17.3538 4.74369 20.9833 7.82224 21.6886L10.683 22.2176H20.7028L19.8896 23.1433C19.8896 23.1433 18.8586 23.6576 19.8896 24.9066L21.1094 26.5671C21.1094 26.5671 21.516 27.5957 20.7028 27.9924C20.7028 27.9924 20.9061 28.83 20.0929 29.1386L19.2797 29.7557L7.21234 29.2414L5.38263 28.5067L3.5384 28.7271L2.7252 29.9761L1.89747 30.2994C1.89747 30.2994 0.88097 31.2251 1.08427 32.0627C1.08427 32.0627 1.49087 34.4285 2.1153 34.546C2.1153 34.546 2.5219 36.0007 4.55491 36.4122L19.2652 36.0889C19.2652 36.0889 21.2982 35.3689 22.5325 35.3689H28.0361L34.1642 36.0007C34.1642 36.0007 38.2448 36.9118 39.8857 37.0146C39.8857 37.0146 42.9497 37.7493 44.9827 37.7493C44.9827 37.7493 49.2811 37.8522 49.2811 37.5436C49.2811 37.5436 51.1108 37.4261 51.5174 35.3689C51.5174 35.3689 51.7352 33.0766 51.1108 32.1656C51.1108 32.1656 49.8765 30.079 47.8289 29.7851L47.8435 29.7557Z" fill="#333333"/>
<path d="M37.2283 45.4636C37.2283 45.4636 36.6038 44.0236 33.5543 42.8774C33.5543 42.8774 32.7266 41.9517 30.4903 41.5403C30.4903 41.5403 28.8494 41.3345 28.2395 40.0855L27.6296 39.057C27.6296 39.057 27.4263 38.4251 25.7999 37.2055C25.7999 37.2055 23.1424 36.5883 21.7048 36.9851C21.7048 36.9851 19.4685 37.2055 19.6573 39.0716C19.6573 39.0716 19.8606 41.026 19.454 41.555C19.454 41.555 18.6408 42.6864 18.0163 42.9803C18.0163 42.9803 16.782 43.5975 15.7655 45.155C15.7655 45.155 14.3424 46.404 14.1246 47.9322C14.1246 47.9322 12.7015 50.2098 13.718 53.2221C13.718 53.2221 13.9213 53.7217 14.7345 56.2051C14.7345 56.2051 15.3444 58.8941 18.2051 60.5398L20.2381 61.9946L22.6777 63.5375C22.6777 63.5375 23.0989 64.1546 25.1319 64.2575L28.617 64.0518C28.617 64.0518 31.2745 63.5375 33.3075 61.5684C33.3075 61.5684 35.9649 59.7023 35.9649 59.0998C35.9649 59.0998 36.9814 58.1741 38.6223 55.9993C38.6223 55.9993 39.6388 55.0736 39.4355 53.8393C39.4355 53.8393 39.8421 49.1812 39.0289 48.3731C39.0289 48.3731 38.419 46.9183 37.1992 45.4636H37.2283ZM30.4903 51.2531L29.6626 52.3993C28.4428 53.3397 28.0362 53.516 28.0362 53.516C26.6131 55.4997 24.7688 53.325 24.7688 53.325C23.1424 52.5903 22.5325 50.8417 22.5325 50.8417C21.7048 49.387 22.5325 48.0351 22.5325 48.0351C23.1424 46.2865 25.3787 45.6693 25.3787 45.6693H27.4263L28.4428 46.6979C29.4738 46.9036 30.287 48.6522 30.287 48.6522C31.1147 49.4898 30.5048 51.2384 30.5048 51.2384L30.4903 51.2531Z" fill="#333333"/>
<path d="M120.872 18.3971C120.872 18.3971 121.453 17.2657 117.576 17.3685C117.576 17.3685 115.092 17.4714 114.875 16.9424C114.875 16.9424 113.045 17.4861 112.842 14.1652C112.842 13.2248 113.045 8.69896 113.045 8.69896C113.045 8.69896 113.669 7.56751 113.045 6.8328C113.045 6.8328 112.42 5.80421 112.42 3.95274C112.42 3.95274 112.42 1.16085 109.56 1.16085C109.56 1.16085 108.224 0.440833 105.566 0.631858C105.566 0.631858 104.143 1.16085 104.347 2.39516C104.347 2.39516 104.347 3.74702 103.112 5.09889C103.112 5.09889 102.502 7.05321 103.315 7.67037C103.315 7.67037 104.332 12.5195 104.129 15.0028C104.129 15.0028 104.332 15.6199 104.129 16.1342C104.129 16.1342 103.708 18.5147 104.332 23.0699L105.145 32.4595C105.145 32.4595 105.348 33.1795 105.145 34.4138L105.348 42.9952C105.348 42.9952 105.523 46.1838 103.054 44.9348C103.054 44.9348 101.428 44.2442 93.6587 44.8613L86.732 44.7585C86.732 44.7585 83.2468 44.6556 83.8712 42.378C83.8712 42.378 83.4646 39.2775 84.4811 39.3804C84.4811 39.3804 86.732 38.1314 87.5452 36.8971L88.765 35.5599C88.765 35.5599 89.9993 33.6056 90.4059 32.1509C90.4059 32.1509 91.0013 29.9761 90.4059 27.9189C90.4059 27.9189 89.9848 26.861 88.5617 25.0095C88.5617 25.0095 87.3419 23.3638 85.9042 22.5262C85.9042 22.5262 84.2778 20.8657 83.4501 20.66C83.4501 20.66 80.7927 18.3971 83.8567 17.8828L85.6864 18.0885L87.7194 17.9857C87.7194 17.9857 89.157 17.9857 89.3603 17.8975C89.3603 17.8975 90.5802 18.1914 91.8145 17.4861C91.8145 17.4861 93.0343 17.1628 93.8475 15.9285C93.8475 15.9285 94.8785 15.6199 94.8785 14.4738C94.8785 14.4738 94.8785 12.2843 94.2686 11.1529C94.2686 11.1529 93.4554 9.40428 91.2046 9.08101C91.2046 9.08101 90.1881 8.44916 86.7174 8.44916C86.7174 8.44916 84.06 9.08101 84.6844 5.76013C84.6844 5.76013 84.8732 3.90866 83.6534 3.08579C83.6534 3.08579 82.8402 2.36577 80.996 2.0425C80.996 2.0425 77.322 1.11677 75.4923 2.0425C75.4923 2.0425 73.4448 2.46863 73.4448 4.51112L73.2415 6.17156C73.2415 6.17156 74.2725 8.03772 73.2415 8.65488C73.2415 8.65488 71.4118 8.75774 69.5676 8.8606C69.5676 8.8606 67.5346 8.8606 66.3147 9.28673C66.3147 9.28673 64.0639 10.1978 64.0639 11.0353C64.0639 11.0353 63.0329 12.0052 63.8606 14.3856C63.8606 14.3856 63.8606 16.5457 66.1114 16.7514C66.1114 16.7514 66.7213 17.3685 69.1755 17.4714L73.6771 17.7653C73.6771 17.7653 74.8969 18.5 73.4738 19.4257C73.4738 19.4257 72.0362 19.6314 70.4098 21.6005C70.4098 21.6005 69.7999 21.8943 68.1735 24.4952L66.9392 27.2871C66.9392 27.2871 66.126 29.6676 66.9392 31.0194C66.9392 31.0194 67.1425 34.9428 70.2065 37.5143C70.2065 37.5143 72.254 39.4686 73.4738 40.2033C73.4738 40.2033 75.5214 43.627 73.4738 44.6556C73.4738 44.6556 70.6131 45.0671 67.9557 45.0671C67.9557 45.0671 65.9081 45.4932 65.5015 47.3447C65.5015 47.3447 65.0949 48.6818 65.5015 49.2108C65.5015 49.2108 65.9081 52.3407 68.3623 52.7668C68.7689 52.855 71.223 53.4721 71.223 53.4721L73.256 53.2664L75.5068 52.6346L87.9518 52.2231L94.2831 52.5464L101.224 52.6346C101.224 52.6346 103.257 52.1643 104.274 53.2958C104.274 53.2958 105.145 53.4281 104.942 55.9114C104.942 55.9114 105.145 57.5571 104.521 58.3947C104.521 58.3947 104.114 59.3057 104.521 60.0404C104.521 60.0404 105.334 62.9352 106.757 63.2438C106.757 63.2438 111.375 64.4928 113.219 62.7295C113.219 62.7295 114.439 62.318 114.032 59.9376L113.219 36.0742C113.219 36.0742 113.219 33.1648 113.626 32.9737L113.844 28.0953C113.844 28.0953 113.422 26.0381 115.47 26.0381C115.47 26.0381 118.549 25.9352 119.376 25.2152C119.376 25.2152 121.453 25.0977 121.656 22.1147C121.656 22.1147 122.266 19.7343 120.843 18.3971H120.872ZM81.025 30.608C80.4151 32.4595 78.3676 32.768 78.3676 32.768C76.3346 32.5623 76.1313 31.4309 76.1313 31.4309C75.3181 30.9166 75.3181 28.3304 75.3181 28.3304C76.1313 26.185 77.9755 26.0675 77.9755 26.0675C79.1953 26.0675 80.0085 26.5965 80.0085 26.5965C81.2428 27.4193 81.2428 28.9622 81.2428 28.9622L81.025 30.6374V30.608Z" fill="#333333"/>
<path d="M137.426 30.2551C137.426 30.2551 139.503 32.5621 144.106 32.7972C144.106 32.7972 145.994 33.003 147.257 32.8854L148.927 32.5621L149.77 32.2389C149.77 32.2389 149.566 32.4593 151.657 31.2837L152.064 30.6519L152.689 30.2404L153.327 29.9025L153.952 29.5792L154.17 29.3735C154.17 29.3735 154.591 28.5212 155.636 28.4184C155.636 28.4184 159.819 24.7154 160.24 21.9529C160.24 21.9529 161.285 16.2222 159.615 14.1209C159.615 14.1209 158.976 9.97717 157.103 8.81633L155.215 6.17138C155.215 6.17138 154.388 5.42198 152.921 4.5991L151.251 3.42357C151.251 3.42357 149.784 2.57131 148.1 2.05701C148.1 2.05701 145.181 1.71904 140.781 2.68886C140.781 2.68886 137.862 3.52643 135.974 5.75994C135.974 5.75994 132.62 7.97876 131.574 12.6368C131.574 12.6368 130.325 17.1773 131.792 22.4966C131.792 22.4966 132.62 27.4632 137.441 30.2258L137.426 30.2551ZM140.549 14.1503C141.812 10.9764 145.573 11.285 145.573 11.285L148.695 12.0197C150.801 12.9895 151.411 14.8997 151.411 14.8997C152.892 17.2067 151.628 19.7488 151.628 19.7488C151.628 21.2476 150.162 22.526 150.162 22.526C148.913 23.3489 146.822 23.8779 146.822 23.8779C145.355 24.4216 143.467 23.2313 143.467 23.2313C140.534 21.8795 140.534 20.5129 140.534 20.5129C139.285 16.8834 140.534 14.1503 140.534 14.1503H140.549Z" fill="#333333"/>
<path d="M187.656 21.6596C187.656 21.6596 187.656 20.3812 183.474 20.6016L179.292 20.8073C179.292 20.8073 177.186 20.8955 177.186 19.7347C177.186 19.7347 176.576 18.0595 177.825 17.5159C177.825 17.5159 177.404 16.884 182.007 17.5159C182.007 17.5159 187.453 18.5738 187.874 16.7811C187.874 16.7811 188.92 16.5607 188.92 13.7982C188.92 13.7982 189.762 11.2561 188.499 10.4186C188.499 10.4186 187.468 8.3026 184.534 8.40546L178.246 8.50832C178.246 8.50832 176.373 8.93445 176.373 5.76051C176.373 5.76051 176.576 3.10086 175.11 2.36615C175.11 2.36615 172.394 0.147333 170.71 1.08776C170.71 1.08776 168.401 1.52859 168.198 4.70253L168.401 17.942V20.3665C168.401 20.3665 168.822 22.2768 168.822 23.5405C168.822 23.5405 167.776 24.3927 168.822 26.9348L169.258 30.1088C169.258 30.1088 169.258 32.548 172.176 32.7684C172.176 32.7684 176.576 33.2974 176.155 30.6378C176.155 30.6378 176.155 28.0957 177.84 28.6247L186.001 28.2132C186.001 28.2132 189.355 28.3308 188.731 24.8189C188.731 24.8189 189.355 22.3796 187.685 21.6449L187.656 21.6596Z" fill="#333333"/>
<path d="M181.586 45.6847C181.586 45.6847 182.007 42.8341 178.653 41.35C178.653 41.35 176.983 40.5124 174.05 40.1891L164.422 40.7181C164.422 40.7181 163.376 41.0414 161.706 40.8357L158.352 40.9532C158.352 40.9532 156.885 40.8357 154.794 41.0561L146.009 40.7328C146.009 40.7328 143.496 41.0561 142.654 39.7924L141.391 39.043L139.3 39.2634C139.3 39.2634 136.584 39.9981 135.539 42.9663C135.539 42.9663 134.072 44.4357 135.96 46.4488C135.96 46.4488 135.742 48.0505 140.142 48.5648L146.836 48.1534C146.836 48.1534 149.334 48.0505 154.373 47.4186L162.331 47.0954H166.934C166.934 47.0954 170.085 47.1982 170.085 50.3722L170.506 58.8507C170.506 58.8507 170.085 63.5088 174.906 63.4059C174.906 63.4059 176.576 63.5088 179.292 63.0826C179.292 63.0826 181.804 62.7741 181.804 59.4826C181.804 59.4826 182.429 57.2491 182.007 52.5028C182.007 52.5028 181.804 47.8301 181.586 45.6994V45.6847Z" fill="#333333"/>
<path d="M231.802 21.0861C231.802 21.0861 234.444 20.8657 236.434 20.9832C236.434 20.9832 238.844 20.5277 240.166 21.4387C240.166 21.4387 241.923 22.3351 244.348 22.2175L247.877 21.9824C247.877 21.9824 251.188 21.5416 251.188 20.0869C251.188 19.3081 250.97 19.2052 250.97 19.3081C251.188 18.5146 251.188 16.6337 249.648 15.7374C249.648 15.7374 248.327 14.077 243.927 14.5031H241.052C241.052 14.5031 239.077 14.5031 239.512 13.0484C239.512 13.0484 239.077 11.1528 241.27 11.2704H248.312C248.312 11.2704 251.188 11.3879 251.623 10.1683C251.623 10.1683 252.059 9.60993 252.291 7.93479C252.291 7.93479 252.291 4.58452 249.866 4.3641C249.866 4.3641 250.084 3.58531 245.452 2.82122C245.452 2.82122 243.477 3.24735 241.27 2.26284L237.32 1.91018C237.32 1.91018 236.434 2.82122 234.662 2.92408L223.641 3.37959L217.483 3.15918C217.483 3.15918 215.93 2.92408 215.726 2.26284L213.737 1.5869C213.737 1.5869 213.069 1.01383 211.094 1.3518L208.669 2.14528C208.669 2.14528 205.358 2.46856 200.958 3.24735C200.958 3.24735 198.736 3.68817 198.736 5.93638C198.736 5.93638 198.301 6.83273 199.186 8.61072C199.186 8.61072 199.186 10.8295 202.483 10.7267H208.669C208.669 10.7267 211.094 11.05 209.104 15.1643L203.819 15.3994C203.819 15.3994 201.829 14.8411 201.611 17.2803C201.611 17.2803 200.943 18.9554 202.047 20.513C202.047 20.513 202.265 22.0853 204.254 21.9677H208.219C208.219 21.9677 210.644 22.2028 211.53 22.3057H214.172C214.172 22.3057 215.494 21.9677 216.365 21.8502C216.365 21.8502 217.687 21.2918 218.34 20.9538C218.34 20.9538 228.926 19.8371 231.787 21.0567L231.802 21.0861ZM230.262 12.9602C230.262 14.5031 229.376 14.5031 229.376 14.5031L222.987 14.7382C218.819 14.7382 219.676 14.1945 219.458 13.9594C217.919 12.5047 219.458 10.7267 219.458 10.7267C221.215 10.2859 222.319 10.1683 222.319 10.1683C222.769 10.4916 225.615 10.374 225.615 10.374L230.03 10.4916C230.466 11.2704 230.248 12.9602 230.248 12.9602H230.262Z" fill="#333333"/>
<path d="M218.805 59.8931L228.709 59.5551C228.709 59.5551 234.445 59.658 235.084 60.9951C235.084 60.9951 236.42 61.7739 238.83 62.1266L242.359 62.7878C242.359 62.7878 245.437 62.1266 245.888 61.3331C245.888 61.3331 248.298 60.2163 248.734 58.982C248.734 58.982 249.387 57.88 249.387 57.0865L249.605 54.4268L250.041 48.4022C250.041 48.4022 250.476 46.6242 250.258 43.7148C250.258 43.7148 250.258 41.4813 245.858 41.2755C245.858 41.2755 240.776 41.0551 238.569 40.9376L229.536 40.6143L227.329 40.4967C227.329 40.4967 224.904 39.2771 226.661 38.2632C226.661 38.2632 227.547 38.3661 227.329 36.2501C227.329 36.2501 226.893 33.5758 227.779 33.5758L228.883 33.4729L241.662 33.8109C241.662 33.8109 244.523 33.8109 245.176 34.1342L246.062 34.4721L248.051 34.5897C248.051 34.5897 249.808 34.7072 250.026 32.7823C250.026 32.7823 250.244 31.3423 250.694 30.8868C250.694 30.8868 251.144 29.432 250.476 29.3439C250.476 29.3439 250.258 27.6687 247.616 28.1096L242.548 27.3161L227.794 26.7724C227.794 26.7724 225.369 27.6687 223.379 26.8752H219.633C219.633 26.8752 218.761 27.2132 216.322 27.3161C216.322 27.3161 213.679 27.6687 210.818 26.8752L205.518 26.6401H202.657C202.657 26.6401 199.782 26.8752 199.578 29.3439C199.578 29.3439 198.911 30.7839 200.014 32.1211C200.014 32.1211 200.014 33.6933 202.207 33.6933L209.482 33.3701L218.079 33.4582C218.079 33.4582 219.168 32.5766 219.4 34.3546C219.4 34.3546 219.4 35.3685 220.068 37.1318C220.286 37.4697 220.504 39.8208 220.504 39.8208L216.104 40.0412C216.104 40.0412 213.897 41.0404 211.907 40.1294C211.907 40.1294 211.486 38.5865 208.379 38.7922C208.379 38.7922 206.621 38.131 205.518 39.0273C205.518 39.0273 202.889 40.0412 202.889 41.9221V45.4781C202.889 45.6985 205.082 46.9328 205.518 48.7255C205.518 48.7255 205.968 50.8121 205.736 52.9427L205.953 56.0726C205.953 56.0726 205.736 58.8645 206.825 59.2024C206.825 59.2024 207.26 61.436 209.685 62.3176C209.685 62.3176 210.571 62.538 212.328 62.9935L213.214 62.876L215.639 62.1119C215.639 62.1119 217.179 60.187 218.732 59.8784L218.805 59.8931ZM231.802 47.5206C235.766 47.1826 236.652 47.9614 236.652 47.9614C237.755 48.2994 237.973 50.2978 237.973 50.2978C238.191 53.0897 235.766 52.6635 235.766 52.6635L230.698 52.1052L218.137 52.3109C215.712 52.5313 215.93 50.768 215.93 50.768C215.494 47.9761 216.148 47.9761 216.148 47.9761L231.787 47.5353L231.802 47.5206Z" fill="#333333"/>
</svg>
