<svg width="119" height="89" viewBox="0 0 119 89" fill="none" xmlns="http://www.w3.org/2000/svg">
<path d="M118.688 34.4219C118.454 33.9891 118.102 33.6941 117.634 33.517C117.634 33.517 106.647 29.1307 106.53 29.0914C106.491 28.9537 104.13 17.2896 104.13 17.2896C104.032 16.7979 103.818 16.4045 103.427 16.0898C103.057 15.775 102.647 15.6177 102.139 15.6177C102.139 15.6177 90.3135 15.2833 90.1965 15.2833C90.1184 15.185 83.9323 5.03542 83.9323 5.03542C83.6786 4.60269 83.3273 4.30765 82.859 4.15029C82.4101 3.97327 81.9613 3.97327 81.4929 4.15029C81.4929 4.15029 70.2721 7.90719 70.155 7.9662C70.0574 7.86785 60.788 0.472071 60.788 0.472071C60.3977 0.157357 59.9684 0 59.4805 0C58.9926 0 58.5633 0.157357 58.1925 0.472071C58.1925 0.472071 48.9231 7.86785 48.8255 7.9662C48.6889 7.90719 37.4875 4.15029 37.4875 4.15029C37.0192 3.99294 36.5704 3.99294 36.102 4.15029C35.6532 4.30765 35.3019 4.60269 35.0482 5.03542C35.0482 5.03542 28.8426 15.185 28.784 15.2833C28.6474 15.2833 16.8411 15.6177 16.8411 15.6177C16.3532 15.6177 15.9239 15.775 15.5531 16.0898C15.1824 16.4045 14.9482 16.7979 14.8506 17.2896C14.8506 17.2896 12.4698 28.9537 12.4308 29.0914C12.3137 29.1307 1.32699 33.5367 1.32699 33.5367C0.858642 33.7137 0.526894 34.0088 0.273204 34.4219C0.0780584 34.7562 0 35.0709 0 35.425C0 35.543 0 35.661 0.0390292 35.7791L2.08806 49.8035L36.5508 62.4904C36.5508 62.4904 54.8165 68.9224 55.4605 69.1584C54.8165 69.3748 42.3857 73.6628 42.3857 73.6628C42.3467 73.6628 41.2734 73.9775 40.8831 74.8036C40.7855 75.0003 40.727 75.197 40.727 75.433C40.727 75.6297 40.766 75.8658 40.8636 76.0821C42.3272 79.7407 44.825 82.8681 48.1035 85.1302C51.46 87.4315 55.4019 88.651 59.5 88.651C63.5981 88.651 67.54 87.4315 70.8965 85.1302C74.175 82.8878 76.6728 79.7603 78.1364 76.0821C78.234 75.8658 78.273 75.6297 78.273 75.433C78.273 75.2167 78.234 75.0003 78.1364 74.8036C77.7461 73.9971 76.6728 73.6824 76.6143 73.6628C76.6143 73.6628 64.1835 69.3945 63.5395 69.1584C64.1835 68.9224 82.4492 62.4904 82.4492 62.4904L116.912 49.8035L118.961 35.7791C118.98 35.661 119 35.543 119 35.425C119 35.0709 118.902 34.7366 118.727 34.4219H118.688ZM81.4539 8.37926C81.7076 8.71365 88.6548 17.3093 88.7524 17.447C88.6743 17.6043 72.887 45.5942 72.7504 45.8302C72.5553 45.6729 69.1012 43.0568 68.9646 42.9585C69.0231 42.7814 81.2978 8.79232 81.4539 8.37926ZM70.4477 47.5415C70.3501 47.7185 62.0759 62.3331 61.4124 63.4739C61.6466 62.1757 64.6128 45.6139 64.6519 45.4172C64.8275 45.4172 67.2668 45.3385 67.2668 45.3385C67.6376 45.3385 68.184 45.5352 68.4572 45.7712C68.4572 45.7712 70.2916 47.3841 70.4282 47.5022L70.4477 47.5415ZM59.6171 4.44534C59.9683 4.6617 69.4134 10.3659 69.55 10.4446C69.511 10.6019 64.1835 42.3684 64.1445 42.6438C63.8908 42.5651 59.7537 41.2866 59.5976 41.2472V4.44534H59.6171ZM58.856 44.0796C59.2073 43.942 59.7927 43.942 60.144 44.0796C60.144 44.0796 62.4077 44.9648 62.5833 45.0238C62.5443 45.2205 59.7342 61.802 59.5 63.1198C59.2853 61.802 56.4557 45.2205 56.4167 45.0238C56.5923 44.9648 58.856 44.06 58.856 44.06V44.0796ZM57.5485 63.4739C56.9046 62.3134 48.6109 47.6989 48.5133 47.5415C48.6499 47.4235 50.4647 45.8106 50.4647 45.8106C50.7379 45.5745 51.3039 45.3582 51.6746 45.3778C51.6746 45.3778 54.114 45.4368 54.2896 45.4565C54.3286 45.6335 57.2949 62.1954 57.529 63.5132L57.5485 63.4739ZM49.1182 10.5036C49.1378 10.6609 54.9336 42.3487 54.9726 42.6241C54.7189 42.6241 50.4062 42.8601 50.2306 42.8601C50.172 42.7028 37.8973 8.69398 37.7412 8.30058C38.151 8.37926 48.9621 10.4839 49.1182 10.5036ZM29.9354 17.6043C30.033 17.742 46.191 45.5352 46.3276 45.7516C46.0935 45.8499 42.1125 47.5612 41.9759 47.6202C41.8588 47.4825 18.773 19.768 18.4998 19.4336C18.9096 19.3549 29.7793 17.6043 29.9159 17.5846L29.9354 17.6043ZM35.8093 54.9569C35.6532 54.8586 4.56642 36.7822 4.19564 36.5658C4.56642 36.3495 14.1676 30.9797 14.3237 30.901C14.4408 31.019 39.0682 51.5344 39.2829 51.7115C39.0877 51.8885 35.9264 54.8586 35.8093 54.9766V54.9569ZM37.468 59.6383C37.4875 59.4613 37.8583 57.0419 37.8583 57.0419C37.9169 56.6682 38.2096 56.1568 38.5023 55.9208C38.5023 55.9208 40.3952 54.3865 40.5318 54.2685C40.6879 54.3865 53.5285 65.1458 54.5433 65.9916C53.3139 65.5195 37.6437 59.6973 37.468 59.6383ZM41.9369 52.6163C42.0344 52.4589 43.1858 50.2952 43.1858 50.2952C43.3614 49.9609 43.8298 49.5871 44.1615 49.4691C44.1615 49.4691 46.4643 48.6823 46.6399 48.6233C46.7375 48.8003 55.1482 63.3362 55.8117 64.477C54.797 63.6116 42.0735 52.7343 41.9173 52.6163H41.9369ZM45.4105 79.3079C45.0202 78.7769 44.7275 78.3638 44.3372 77.6754C43.9469 77.0066 43.7517 76.5542 43.4785 75.9444C43.6932 75.8461 53.5285 72.0892 54.7775 71.5974C53.7432 72.4629 45.5861 79.1309 45.4105 79.2883V79.3079ZM48.2401 82.3764C47.6546 81.865 47.3034 81.5109 46.8545 81.0389C47.0302 80.8815 54.9921 73.9578 55.9874 73.053C55.3044 74.2135 49.9183 83.3205 49.8012 83.5172C49.2353 83.1435 48.845 82.8681 48.2401 82.3567V82.3764ZM53.4895 85.4252C52.7675 85.1695 52.2991 84.9335 51.7332 84.6384C51.8503 84.4417 56.9631 75.197 57.6266 74.0168C57.3729 75.3347 55.4019 85.7399 55.3434 85.9759C54.7189 85.8186 54.2311 85.6809 53.4895 85.4252ZM59.461 86.4874C58.6804 86.4874 58.1925 86.4284 57.5485 86.3693C57.5876 86.1136 59.2658 75.6494 59.461 74.3315C59.6756 75.6494 61.3539 86.1136 61.3734 86.3693C60.7294 86.448 60.2416 86.4874 59.461 86.4874ZM65.4324 85.4252C64.7104 85.6809 64.2225 85.8186 63.5786 85.9759C63.5395 85.7399 61.5685 75.3347 61.3149 74.0168C61.9588 75.197 67.0912 84.4417 67.2083 84.6384C66.6228 84.9335 66.174 85.1498 65.452 85.4252H65.4324ZM75.4434 75.9444C75.1897 76.5542 74.9946 77.0066 74.6043 77.6754C74.214 78.3638 73.9213 78.7572 73.531 79.3079C73.3554 79.1506 65.1983 72.4629 64.164 71.6171C65.4129 72.0892 75.2483 75.8658 75.4434 75.9641V75.9444ZM72.0869 81.0389C71.6381 81.5306 71.2868 81.865 70.7014 82.3764C70.0964 82.8878 69.7061 83.1632 69.1597 83.5369C69.0426 83.3402 63.6371 74.2332 62.9541 73.0727C63.9688 73.9578 71.9113 80.8815 72.1064 81.0389H72.0869ZM63.1102 64.4967C63.7737 63.3362 72.1845 48.8003 72.2821 48.643C72.4577 48.702 74.7604 49.4888 74.7604 49.4888C75.1117 49.6068 75.5605 49.9805 75.7361 50.3149C75.7361 50.3149 76.907 52.4589 76.9851 52.6359C76.8485 52.7736 64.1054 63.6313 63.0907 64.4967H63.1102ZM64.3787 66.0113C65.3934 65.1655 78.234 54.4062 78.3706 54.2882C78.5072 54.4062 80.4196 55.9404 80.4196 55.9404C80.7124 56.1765 81.0051 56.6879 81.0636 57.0616C81.0636 57.0616 81.4344 59.481 81.4539 59.658C81.2783 59.717 65.6081 65.5589 64.3787 66.0113ZM79.7366 51.8098C79.6 51.5934 77.2388 47.9546 77.1412 47.8169C77.2583 47.6595 100.325 19.9647 100.617 19.6303C100.754 20.0237 104.345 30.5076 104.384 30.665C104.266 30.783 79.9318 51.6524 79.7171 51.8295L79.7366 51.8098ZM114.668 48.4463C114.512 48.5053 84.5763 59.7367 84.3226 59.835C84.264 59.5793 83.2883 55.3307 83.2493 55.1733C83.4054 55.0946 114.492 36.9986 114.863 36.7822C114.863 37.1953 114.668 48.2889 114.668 48.4463Z" fill="#ED1C24" fill-opacity="0.6"/>
</svg>
