<svg width="114" height="121" viewBox="0 0 114 121" fill="none" xmlns="http://www.w3.org/2000/svg">
<g clip-path="url(#clip0_43_289)">
<path d="M63.507 29.6387C51.526 29.6387 41.8156 39.349 41.8156 51.3301C41.8156 55.2035 42.8441 58.8366 44.625 61.9843L35.1907 70.7419L45.6357 83.4308L54.5046 71.0447C57.2516 72.3002 60.2925 73.0215 63.5115 73.0215C75.488 73.0215 85.2029 63.3111 85.2029 51.3301C85.2029 39.349 75.4925 29.6387 63.5115 29.6387H63.507Z" fill="white"/>
<path d="M45.6312 84.3167C45.364 84.3167 45.1147 84.1965 44.9455 83.9917L34.5005 71.3028C34.2022 70.9377 34.2378 70.4034 34.5807 70.0828L43.5119 61.7972C41.8156 58.5693 40.9251 54.963 40.9251 51.3255C40.9251 38.877 51.054 28.7437 63.507 28.7437C75.9599 28.7437 86.0888 38.8725 86.0888 51.3255C86.0888 63.7785 75.9599 73.9073 63.507 73.9073C60.5106 73.9073 57.5855 73.3152 54.8028 72.1442L46.3569 83.9427C46.1966 84.1698 45.9384 84.3033 45.6623 84.3123C45.6534 84.3123 45.6445 84.3123 45.6312 84.3123V84.3167ZM36.4105 70.8219L45.5822 81.9659L53.7743 70.5236C54.0237 70.1763 54.4822 70.0561 54.8696 70.2342C57.6166 71.4898 60.524 72.1309 63.507 72.1309C74.976 72.1309 84.3079 62.799 84.3079 51.3299C84.3079 39.8609 74.976 30.529 63.507 30.529C52.038 30.529 42.706 39.8609 42.706 51.3299C42.706 54.8962 43.6366 58.4313 45.3996 61.5434C45.6045 61.9041 45.5332 62.3537 45.2305 62.6342L36.4105 70.8219Z" fill="#333333"/>
<path d="M18.321 74.277C18.0984 74.277 17.8757 74.1924 17.7021 74.0277L6.69168 63.3823C6.33995 63.0395 6.3266 62.4785 6.66942 62.1223C7.01224 61.7706 7.57323 61.7573 7.92941 62.1001L18.9398 72.7454C19.2916 73.0883 19.3049 73.6492 18.9621 74.0054C18.7885 74.188 18.5525 74.277 18.321 74.277Z" fill="#333333"/>
<path d="M25.7519 35.9163C25.5159 35.9163 25.2844 35.8228 25.1107 35.6403L3.82005 13.4324C3.58853 13.192 3.51285 12.8358 3.62415 12.5197C3.73546 12.2036 4.01595 11.9766 4.34987 11.932L58.0307 5.02659C58.4181 4.97316 58.7921 5.18242 58.9523 5.5386C59.1126 5.89478 59.028 6.31329 58.7386 6.57152L26.344 35.6893C26.1748 35.8407 25.9611 35.9163 25.7474 35.9163H25.7519ZM6.32667 13.4725L25.7964 33.7882L55.4217 7.15922L6.32667 13.4725Z" fill="#333333"/>
<path d="M91.0219 32.3011C90.5321 32.3011 90.1314 31.9004 90.1314 31.4106V18.3789L59.1882 7.23045L60.9781 23.2764C61.0315 23.7661 60.6798 24.2069 60.19 24.2603C59.7003 24.3138 59.2595 23.962 59.2061 23.4723L57.256 6.00608C57.2203 5.69887 57.3495 5.40057 57.5899 5.20912C57.8303 5.01768 58.1553 4.9687 58.4447 5.0711L91.3202 16.9141C91.6719 17.0432 91.9079 17.3771 91.9079 17.7511V31.4062C91.9079 31.8959 91.5072 32.2966 91.0174 32.2966L91.0219 32.3011Z" fill="#333333"/>
<path d="M7.31055 63.6316C7.00335 63.6316 6.7184 63.4758 6.55367 63.2087C6.36668 62.9059 6.37558 62.523 6.58038 62.2336L25.0216 35.7249C25.3021 35.3197 25.8587 35.2218 26.2594 35.5023C26.6645 35.7828 26.7625 36.3393 26.482 36.74L9.21167 61.5613L36.6687 57.5588C37.154 57.4875 37.6082 57.8259 37.6794 58.3112C37.7506 58.7965 37.4123 59.2506 36.927 59.3219L7.43967 63.6227C7.39515 63.6272 7.35508 63.6316 7.31055 63.6316Z" fill="#333333"/>
<path d="M48.0399 56.4012C47.5991 56.4012 47.2162 56.0717 47.1583 55.6265C47.096 55.1367 47.4388 54.6915 47.9286 54.6292L62.6076 52.7325L61.0137 36.3215C60.9648 35.8317 61.3254 35.3954 61.8151 35.3509C62.3049 35.3019 62.7412 35.6625 62.7857 36.1523L64.4642 53.4226C64.5088 53.9034 64.1704 54.3309 63.694 54.3932L48.1601 56.4012C48.12 56.4056 48.0844 56.4101 48.0443 56.4101L48.0399 56.4012Z" fill="#333333"/>
<path d="M5.91265 17.8358C8.6863 17.8358 10.9348 15.5873 10.9348 12.8136C10.9348 10.04 8.6863 7.7915 5.91265 7.7915C3.13899 7.7915 0.890503 10.04 0.890503 12.8136C0.890503 15.5873 3.13899 17.8358 5.91265 17.8358Z" fill="white"/>
<path d="M5.9037 18.7263C4.46116 18.7263 3.08542 18.2054 1.99461 17.2392C0.810315 16.193 0.106858 14.7504 0.00890867 13.1743C-0.089041 11.5982 0.436325 10.08 1.48261 8.89571C3.64195 6.45587 7.3863 6.22881 9.82613 8.38815C11.0104 9.43443 11.7139 10.877 11.8074 12.4531C11.9009 14.0292 11.38 15.5474 10.3337 16.7317C9.28741 17.916 7.84043 18.6194 6.26878 18.7129C6.14412 18.7218 6.02391 18.7263 5.9037 18.7263ZM5.9126 8.68645C4.76837 8.68645 3.63304 9.15394 2.81828 10.0756C2.08811 10.9037 1.72303 11.9633 1.78981 13.063C1.85659 14.1627 2.34634 15.1734 3.17446 15.9036C4.00258 16.6337 5.06222 17.0033 6.16193 16.932C7.26163 16.8652 8.27229 16.3755 9.00246 15.5474C9.73263 14.7237 10.1022 13.6596 10.0309 12.5599C9.96415 11.4602 9.4744 10.4495 8.64628 9.71938C7.86269 9.02483 6.88319 8.682 5.90815 8.682L5.9126 8.68645Z" fill="#333333"/>
<path d="M7.31067 70.7373C10.7064 70.7373 13.4592 67.9845 13.4592 64.5888C13.4592 61.193 10.7064 58.4402 7.31067 58.4402C3.91492 58.4402 1.16211 61.193 1.16211 64.5888C1.16211 67.9845 3.91492 70.7373 7.31067 70.7373Z" fill="white"/>
<path d="M7.31062 71.6278C3.42826 71.6278 0.271606 68.4712 0.271606 64.5888C0.271606 60.7065 3.42826 57.5498 7.31062 57.5498C11.193 57.5498 14.3496 60.7065 14.3496 64.5888C14.3496 68.4712 11.193 71.6278 7.31062 71.6278ZM7.31062 59.3307C4.4122 59.3307 2.05251 61.6904 2.05251 64.5888C2.05251 67.4872 4.4122 69.8469 7.31062 69.8469C10.209 69.8469 12.5687 67.4872 12.5687 64.5888C12.5687 61.6904 10.209 59.3307 7.31062 59.3307Z" fill="#333333"/>
<path d="M58.1419 10.9349C60.9155 10.9349 63.164 8.68642 63.164 5.91277C63.164 3.13912 60.9155 0.890625 58.1419 0.890625C55.3682 0.890625 53.1198 3.13912 53.1198 5.91277C53.1198 8.68642 55.3682 10.9349 58.1419 10.9349Z" fill="white"/>
<path d="M58.1419 11.8208C56.7484 11.8208 55.3504 11.3311 54.2284 10.3382C53.0441 9.29195 52.3407 7.84942 52.2472 6.27333C52.1537 4.69723 52.6746 3.17901 53.7209 1.99471C54.7627 0.810408 56.2097 0.106951 57.7858 0.00900146C59.3663 -0.0844959 60.8801 0.436418 62.0644 1.4827C63.2487 2.52898 63.9521 3.97151 64.0456 5.54761C64.1391 7.12371 63.6182 8.64193 62.5719 9.82623C61.4054 11.1441 59.7759 11.8164 58.1419 11.8164V11.8208ZM58.1509 1.781C58.0663 1.781 57.9817 1.781 57.8971 1.7899C56.7974 1.85669 55.7867 2.34644 55.0565 3.17456C54.3264 3.99822 53.9568 5.06231 54.0281 6.16202C54.0948 7.26173 54.5846 8.27239 55.4127 9.00256C57.1179 10.5119 59.7314 10.356 61.2452 8.65083C61.9753 7.82271 62.3404 6.76307 62.2736 5.66337C62.2069 4.56366 61.7171 3.553 60.889 2.82283C60.1277 2.15054 59.166 1.78545 58.1553 1.78545L58.1509 1.781Z" fill="#333333"/>
<path d="M25.7519 39.6429C28.3018 39.6429 30.3689 37.5758 30.3689 35.0259C30.3689 32.476 28.3018 30.4089 25.7519 30.4089C23.202 30.4089 21.1349 32.476 21.1349 35.0259C21.1349 37.5758 23.202 39.6429 25.7519 39.6429Z" fill="white"/>
<path d="M25.7518 40.5379C22.7154 40.5379 20.2444 38.0669 20.2444 35.0304C20.2444 31.994 22.7154 29.5186 25.7518 29.5186C28.7883 29.5186 31.2637 31.9896 31.2637 35.0304C31.2637 38.0713 28.7927 40.5379 25.7518 40.5379ZM25.7518 31.2995C23.6949 31.2995 22.0253 32.9735 22.0253 35.0304C22.0253 37.0874 23.6993 38.757 25.7518 38.757C27.8043 38.757 29.4828 37.0829 29.4828 35.0304C29.4828 32.978 27.8088 31.2995 25.7518 31.2995Z" fill="#333333"/>
<path d="M91.022 22.1721C93.4612 22.1721 95.4386 20.1947 95.4386 17.7555C95.4386 15.3163 93.4612 13.3389 91.022 13.3389C88.5827 13.3389 86.6053 15.3163 86.6053 17.7555C86.6053 20.1947 88.5827 22.1721 91.022 22.1721Z" fill="white"/>
<path d="M91.0219 23.0627C88.0968 23.0627 85.7148 20.6807 85.7148 17.7556C85.7148 14.8304 88.0968 12.4485 91.0219 12.4485C93.9471 12.4485 96.329 14.8304 96.329 17.7556C96.329 20.6807 93.9471 23.0627 91.0219 23.0627ZM91.0219 14.2249C89.0763 14.2249 87.4957 15.8055 87.4957 17.7511C87.4957 19.6968 89.0763 21.2773 91.0219 21.2773C92.9676 21.2773 94.5481 19.6968 94.5481 17.7511C94.5481 15.8055 92.9676 14.2249 91.0219 14.2249Z" fill="#333333"/>
<path d="M69.5621 83.0256L79.3749 94.272L92.8296 84.8333C92.8296 84.8333 110.3 88.2481 113.114 105.118V119.979H58.89V102.104C58.89 102.104 35.5958 96.0797 35.5958 86.8412C35.5958 86.8412 39.2111 75.9688 49.6516 78.6936C60.0966 81.4184 56.7396 82.8253 69.5621 83.0256Z" fill="white"/>
<path d="M113.11 120.865H58.8856C58.3958 120.865 57.9951 120.465 57.9951 119.975V102.785C54.046 101.685 34.7009 95.8438 34.7009 86.8413C34.7009 86.7478 34.7143 86.6499 34.7454 86.5608C34.7855 86.445 38.7525 74.936 49.8742 77.8344C53.6453 78.8183 55.6399 79.6286 57.2382 80.2831C59.9719 81.3962 61.4768 82.0106 69.5754 82.1353C69.8292 82.1353 70.0652 82.251 70.2344 82.4425L79.5173 93.0834L92.3176 84.1032C92.5135 83.9651 92.7628 83.9117 92.9988 83.9562C93.1813 83.9919 111.111 87.6872 113.991 104.966C114 105.015 114.005 105.064 114.005 105.113V119.975C114.005 120.465 113.604 120.865 113.114 120.865H113.11ZM59.776 119.085H112.219V105.189C109.726 90.4921 95.4698 86.3872 93.0121 85.7861L79.878 94.9978C79.504 95.2605 78.9964 95.1982 78.6937 94.8554L69.1436 83.9073C61.0583 83.7603 59.4466 83.1059 56.5615 81.9305C55.0077 81.2982 53.0754 80.5102 49.4201 79.5574C40.4176 77.2066 36.936 85.7416 36.4818 86.9882C36.7044 93.9293 52.8572 99.6237 59.1082 101.244C59.5 101.347 59.776 101.703 59.776 102.108V119.093V119.085Z" fill="#333333"/>
<path d="M85.3987 77.6874C83.1681 77.6874 80.9464 77.3313 78.8004 76.6234C78.3329 76.472 78.0791 75.9689 78.2305 75.5014C78.3819 75.0339 78.885 74.7801 79.3525 74.9315C81.3204 75.5771 83.3551 75.9065 85.3987 75.9065C96.093 75.9065 104.793 67.2068 104.793 56.5125C104.793 46.7754 97.5088 38.512 87.8474 37.2921C87.3576 37.2298 87.0148 36.7846 87.0772 36.2948C87.1395 35.8051 87.5847 35.4578 88.07 35.5246C98.6174 36.8558 106.574 45.8805 106.574 56.5125C106.574 68.1863 97.0769 77.6874 85.3987 77.6874Z" fill="#333333"/>
<path d="M94.232 120.865C93.7423 120.865 93.3416 120.465 93.3416 119.975V108.929C93.3416 108.439 93.7423 108.038 94.232 108.038C94.7218 108.038 95.1225 108.439 95.1225 108.929V119.975C95.1225 120.465 94.7218 120.865 94.232 120.865Z" fill="#333333"/>
<path d="M34.1844 66.7571C28.677 67.79 21.3308 77.2021 21.1304 83.4264C20.9301 89.6506 31.7758 91.6586 36.7935 90.2561C41.8156 88.8492 45.4308 84.4326 45.0257 77.6028C44.6205 70.773 37.3945 66.156 34.18 66.7571H34.1844Z" fill="white"/>
<path d="M33.2227 91.5652C29.6476 91.5652 25.4446 90.5857 22.8579 88.5599C21.0814 87.1663 20.1776 85.381 20.24 83.3953C20.4537 76.797 28.1783 66.9753 34.0197 65.8801C35.8184 65.5417 38.3874 66.4678 40.7248 68.2932C43.8236 70.7152 45.7158 74.0856 45.9206 77.5495C46.3168 84.2679 42.9108 89.4681 37.0383 91.111C35.9609 91.4138 34.643 91.5652 33.2272 91.5652H33.2227ZM34.7721 67.5942C34.6163 67.5942 34.4738 67.6076 34.3447 67.6298C29.2335 68.5871 22.2034 77.6073 22.0164 83.4531C21.9719 84.869 22.6219 86.1111 23.9531 87.1574C27.0519 89.5884 33.1604 90.3452 36.5486 89.3969C41.6464 87.9677 44.4825 83.5778 44.1352 77.6563C43.9616 74.7045 42.3187 71.806 39.6206 69.7001C37.7195 68.2175 35.8807 67.5987 34.7677 67.5987L34.7721 67.5942Z" fill="#333333"/>
<path d="M63.5783 57.8927C66.8831 57.8927 69.5621 55.2137 69.5621 51.9089C69.5621 48.6041 66.8831 45.925 63.5783 45.925C60.2735 45.925 57.5945 48.6041 57.5945 51.9089C57.5945 55.2137 60.2735 57.8927 63.5783 57.8927Z" fill="white"/>
<path d="M63.5783 58.7832C59.7894 58.7832 56.704 55.6978 56.704 51.9089C56.704 48.1201 59.7894 45.0347 63.5783 45.0347C67.3671 45.0347 70.4525 48.1201 70.4525 51.9089C70.4525 55.6978 67.3671 58.7832 63.5783 58.7832ZM63.5783 46.8156C60.7689 46.8156 58.4849 49.0996 58.4849 51.9089C58.4849 54.7183 60.7689 57.0023 63.5783 57.0023C66.3876 57.0023 68.6716 54.7183 68.6716 51.9089C68.6716 49.0996 66.3876 46.8156 63.5783 46.8156Z" fill="#333333"/>
</g>
<defs>
<clipPath id="clip0_43_289">
<rect width="114" height="120.865" fill="white"/>
</clipPath>
</defs>
</svg>
