<svg width="119" height="102" viewBox="0 0 119 102" fill="none" xmlns="http://www.w3.org/2000/svg">
<path d="M38.8806 78.2119C38.6326 78.2119 38.3846 78.1126 38.2021 77.9189L26.1247 65.0608C25.7831 64.6969 25.7831 64.1251 26.1247 63.7613L38.2021 50.9032C38.5577 50.5251 39.152 50.5062 39.5263 50.8654C39.9007 51.2245 39.9147 51.8246 39.5638 52.2027L28.0994 64.4134L39.5638 76.6241C39.9194 77.0021 39.9053 77.6023 39.5263 77.9614C39.3438 78.1363 39.1145 78.2213 38.8806 78.2213V78.2119Z" fill="#333333"/>
<path d="M65.6463 78.2118C65.4171 78.2118 65.1831 78.1267 65.0006 77.9519C64.6263 77.5927 64.6122 76.9926 64.9632 76.6146L76.4275 64.4039L64.9632 52.1932C64.6075 51.8151 64.6216 51.215 65.0006 50.8558C65.3796 50.4967 65.9692 50.5109 66.3249 50.8936L78.4022 63.7517C78.7438 64.1156 78.7438 64.6874 78.4022 65.0513L66.3249 77.9094C66.1424 78.1078 65.8944 78.2023 65.6463 78.2023V78.2118Z" fill="#333333"/>
<path d="M48.8568 79.1379C48.796 79.1379 48.7352 79.1332 48.6697 79.119C48.1643 79.0151 47.8368 78.5189 47.9397 78.0038L53.4519 50.4305C53.5549 49.9201 54.0462 49.5846 54.5563 49.6933C55.0616 49.7973 55.3892 50.2935 55.2862 50.8085L49.774 78.3818C49.6851 78.8308 49.292 79.1379 48.8568 79.1379Z" fill="#333333"/>
<path d="M95.1869 85.8245C94.6722 85.8245 94.251 85.3992 94.251 84.8794V38.1016H8.69888V84.8794C8.69888 85.3992 8.27774 85.8245 7.76301 85.8245C7.24829 85.8245 6.82715 85.3992 6.82715 84.8794V37.1565C6.82715 36.6367 7.24829 36.2114 7.76301 36.2114H95.1916C95.7063 36.2114 96.1274 36.6367 96.1274 37.1565V84.8794C96.1274 85.3992 95.7063 85.8245 95.1916 85.8245H95.1869Z" fill="#333333"/>
<path d="M95.5519 102H8.97027C4.02422 102 0 97.9362 0 92.9413V90.451C0 89.9312 0.42114 89.5059 0.935866 89.5059H103.591C104.106 89.5059 104.527 89.9312 104.527 90.451V92.9413C104.527 97.9362 100.503 102 95.5566 102H95.5519ZM1.87173 91.3961V92.9413C1.87173 96.8965 5.05835 100.11 8.97027 100.11H95.5519C99.4685 100.11 102.65 96.8918 102.65 92.9413V91.3961H1.87173Z" fill="#333333"/>
<path d="M94.9903 97.5345C95.9646 97.5345 96.7544 96.7369 96.7544 95.753C96.7544 94.769 95.9646 93.9714 94.9903 93.9714C94.016 93.9714 93.2262 94.769 93.2262 95.753C93.2262 96.7369 94.016 97.5345 94.9903 97.5345Z" fill="#333333"/>
<path d="M94.9903 97.7707C93.8859 97.7707 92.9922 96.8634 92.9922 95.7529C92.9922 94.6424 93.8906 93.7351 94.9903 93.7351C96.0899 93.7351 96.9883 94.6424 96.9883 95.7529C96.9883 96.8634 96.0899 97.7707 94.9903 97.7707ZM94.9903 94.2029C94.148 94.2029 93.4601 94.8976 93.4601 95.7482C93.4601 96.5988 94.148 97.2934 94.9903 97.2934C95.8325 97.2934 96.5204 96.5988 96.5204 95.7482C96.5204 94.8976 95.8325 94.2029 94.9903 94.2029Z" fill="#333333"/>
<path d="M52.3336 30.3472C55.5459 30.3472 58.15 27.7174 58.15 24.4734C58.15 21.2294 55.5459 18.5996 52.3336 18.5996C49.1213 18.5996 46.5172 21.2294 46.5172 24.4734C46.5172 27.7174 49.1213 30.3472 52.3336 30.3472Z" fill="white"/>
<path d="M52.3336 31.297C48.6088 31.297 45.5813 28.2396 45.5813 24.4781C45.5813 20.7166 48.6088 17.6592 52.3336 17.6592C56.0583 17.6592 59.0858 20.7166 59.0858 24.4781C59.0858 28.2396 56.0583 31.297 52.3336 31.297ZM52.3336 19.5494C49.643 19.5494 47.453 21.7609 47.453 24.4781C47.453 27.1952 49.643 29.4068 52.3336 29.4068C55.0242 29.4068 57.2141 27.1952 57.2141 24.4781C57.2141 21.7609 55.0242 19.5494 52.3336 19.5494Z" fill="#333333"/>
<path d="M72.0992 32.3271C71.5845 32.3271 71.1633 31.9018 71.1633 31.382V22.5264C71.1633 22.0066 71.5845 21.5813 72.0992 21.5813H99.9552C100.47 21.5813 100.891 22.0066 100.891 22.5264C100.891 23.0462 100.47 23.4715 99.9552 23.4715H73.0351V31.382C73.0351 31.9018 72.6139 32.3271 72.0992 32.3271Z" fill="#333333"/>
<path d="M111.265 63.9786H99.9598C99.4451 63.9786 99.0239 63.5533 99.0239 63.0335C99.0239 62.5137 99.4451 62.0884 99.9598 62.0884H111.265C111.78 62.0884 112.201 62.5137 112.201 63.0335C112.201 63.5533 111.78 63.9786 111.265 63.9786Z" fill="#333333"/>
<path d="M117.329 46.4753H99.9598C99.445 46.4753 99.0239 46.05 99.0239 45.5302C99.0239 45.0104 99.445 44.5851 99.9598 44.5851H116.394V7.76398H58.15C57.6353 7.76398 57.2141 7.33869 57.2141 6.81888C57.2141 6.29907 57.6353 5.87378 58.15 5.87378H117.329C117.844 5.87378 118.265 6.29907 118.265 6.81888V45.5302C118.265 46.05 117.844 46.4753 117.329 46.4753Z" fill="#333333"/>
<path d="M111.635 69.5313C115.188 69.5313 118.069 66.6222 118.069 63.0337C118.069 59.4452 115.188 56.5361 111.635 56.5361C108.081 56.5361 105.201 59.4452 105.201 63.0337C105.201 66.6222 108.081 69.5313 111.635 69.5313Z" fill="white"/>
<path d="M111.635 70.4715C107.573 70.4715 104.265 67.1353 104.265 63.0289C104.265 58.9224 107.568 55.5862 111.635 55.5862C115.701 55.5862 119.005 58.9224 119.005 63.0289C119.005 67.1353 115.701 70.4715 111.635 70.4715ZM111.635 57.4811C108.603 57.4811 106.137 59.9715 106.137 63.0336C106.137 66.0957 108.603 68.586 111.635 68.586C114.667 68.586 117.133 66.0957 117.133 63.0336C117.133 59.9715 114.667 57.4811 111.635 57.4811Z" fill="#333333"/>
<path d="M100.367 28.4051C103.579 28.4051 106.183 25.7753 106.183 22.5313C106.183 19.2873 103.579 16.6575 100.367 16.6575C97.1548 16.6575 94.5507 19.2873 94.5507 22.5313C94.5507 25.7753 97.1548 28.4051 100.367 28.4051Z" fill="white"/>
<path d="M100.367 29.3502C96.6423 29.3502 93.6147 26.2928 93.6147 22.5313C93.6147 18.7698 96.6423 15.7124 100.367 15.7124C104.092 15.7124 107.119 18.7698 107.119 22.5313C107.119 26.2928 104.092 29.3502 100.367 29.3502ZM100.367 17.6026C97.6764 17.6026 95.4865 19.8141 95.4865 22.5313C95.4865 25.2485 97.6764 27.46 100.367 27.46C103.058 27.46 105.248 25.2485 105.248 22.5313C105.248 19.8141 103.058 17.6026 100.367 17.6026Z" fill="#333333"/>
<path d="M58.15 12.6927C61.3623 12.6927 63.9664 10.0629 63.9664 6.81887C63.9664 3.57486 61.3623 0.945068 58.15 0.945068C54.9377 0.945068 52.3336 3.57486 52.3336 6.81887C52.3336 10.0629 54.9377 12.6927 58.15 12.6927Z" fill="white"/>
<path d="M58.15 13.6378C54.4252 13.6378 51.3977 10.5804 51.3977 6.8189C51.3977 3.0574 54.4252 0 58.15 0C61.8747 0 64.9022 3.0574 64.9022 6.8189C64.9022 10.5804 61.8747 13.6378 58.15 13.6378ZM58.15 1.8902C55.4594 1.8902 53.2694 4.10174 53.2694 6.8189C53.2694 9.53607 55.4594 11.7476 58.15 11.7476C60.8406 11.7476 63.0305 9.53607 63.0305 6.8189C63.0305 4.10174 60.8406 1.8902 58.15 1.8902Z" fill="#333333"/>
</svg>
