<svg width="133" height="128" viewBox="0 0 133 128" fill="none" xmlns="http://www.w3.org/2000/svg">
<g clip-path="url(#clip0_122_32)">
<path d="M44.9233 112.971V119.602C44.9233 123.69 48.2897 127.039 52.4106 127.039H60.2702C64.3863 127.039 67.7575 123.695 67.7575 119.602V112.971H44.9282H44.9233Z" fill="white"/>
<path d="M60.2703 128H52.4106C47.748 128 43.9561 124.233 43.9561 119.602V112.971C43.9561 112.443 44.3914 112.01 44.9234 112.01H67.7527C68.2847 112.01 68.72 112.443 68.72 112.971V119.602C68.72 124.233 64.9281 128 60.2703 128ZM45.8956 113.937V119.606C45.8956 123.176 48.817 126.083 52.4155 126.083H60.2751C63.8688 126.083 66.7902 123.181 66.7902 119.606V113.937H45.8956Z" fill="#333333"/>
<path d="M132.033 90.9613V82.7839H126.48L123.472 76.5715L127.689 72.2089L121.494 66.7556L116.773 70.681L111.723 68.4997V65.7515L87.4721 90.9565H88.3475L90.761 96.9527L86.3209 101.532L92.2991 107.528L96.7972 102.949L102.722 105.567V112.106H111.283V105.567L117.208 102.949L121.706 107.528L127.685 101.532L123.244 96.9527L125.658 90.9565H132.023L132.033 90.9613ZM107.008 95.42C102.253 95.42 98.403 91.5907 98.403 86.8726C98.403 82.1544 102.258 78.3252 107.008 78.3252C111.757 78.3252 115.612 82.1544 115.612 86.8726C115.612 91.5907 111.757 95.42 107.008 95.42Z" fill="white"/>
<path d="M111.288 113.072H102.727C102.195 113.072 101.76 112.64 101.76 112.111V106.197L97.0245 104.107L92.9955 108.21C92.8166 108.392 92.5651 108.498 92.3087 108.498C92.0524 108.498 91.8009 108.397 91.6219 108.215L85.6437 102.218C85.2761 101.849 85.2713 101.253 85.6341 100.878L89.6389 96.746L87.6993 91.9318H87.4817C87.0947 91.9318 86.7465 91.7011 86.5917 91.3504C86.437 90.9997 86.5143 90.5865 86.7804 90.3078L111.032 65.1027C111.307 64.8193 111.723 64.728 112.091 64.8769C112.458 65.0211 112.7 65.3766 112.7 65.7706V67.8894L116.618 69.5806L120.879 66.0396C121.247 65.7321 121.784 65.7417 122.142 66.0589L128.337 71.5121C128.536 71.6851 128.652 71.9301 128.661 72.1944C128.671 72.4538 128.574 72.7084 128.391 72.9006L124.637 76.7828L127.09 81.8517H132.033C132.565 81.8517 133 82.2841 133 82.8126V90.9901C133 91.5186 132.565 91.951 132.033 91.951H126.321L124.381 96.7652L128.386 100.897C128.749 101.272 128.749 101.868 128.376 102.238L122.398 108.234C122.214 108.416 121.967 108.517 121.711 108.517C121.45 108.517 121.203 108.412 121.024 108.229L116.995 104.126L112.26 106.216V112.13C112.26 112.659 111.825 113.091 111.293 113.091L111.288 113.072ZM103.694 111.15H110.321V105.572C110.321 105.193 110.548 104.847 110.896 104.693L116.821 102.074C117.194 101.911 117.624 101.993 117.905 102.281L121.716 106.163L126.335 101.527L122.553 97.6252C122.287 97.3514 122.209 96.9526 122.35 96.6018L124.763 90.6057C124.908 90.2405 125.266 90.0003 125.663 90.0003H131.06V83.7447H126.475C126.103 83.7447 125.764 83.5333 125.605 83.2018L122.596 76.9894C122.422 76.629 122.49 76.1966 122.77 75.9083L126.291 72.2712L121.474 68.0336L117.392 71.4256C117.111 71.661 116.72 71.7139 116.386 71.5698L111.336 69.3885C110.983 69.2347 110.756 68.8888 110.756 68.5092V68.1585L89.2132 90.548C89.2132 90.548 89.2326 90.5913 89.2422 90.6105L91.6558 96.6067C91.796 96.9574 91.7186 97.3562 91.4526 97.63L87.6703 101.531L92.2894 106.168L96.1007 102.286C96.3812 101.997 96.8117 101.916 97.1841 102.079L103.109 104.698C103.457 104.851 103.685 105.197 103.685 105.577V111.155L103.694 111.15ZM107.008 96.3808C101.731 96.3808 97.4356 92.1143 97.4356 86.8725C97.4356 81.6306 101.731 77.3641 107.008 77.3641C112.284 77.3641 116.579 81.6306 116.579 86.8725C116.579 92.1143 112.284 96.3808 107.008 96.3808ZM107.008 79.286C102.795 79.286 99.3703 82.6877 99.3703 86.8725C99.3703 91.0573 102.795 94.459 107.008 94.459C111.22 94.459 114.645 91.0573 114.645 86.8725C114.645 82.6877 111.22 79.286 107.008 79.286Z" fill="#333333"/>
<path d="M90.1757 54.6288C90.1757 36.0637 75.0271 21.0156 56.338 21.0156C37.649 21.0156 22.5004 36.0637 22.5004 54.6288C22.5004 63.0609 25.6346 70.7675 30.8002 76.6676H30.7857C30.7857 76.6676 40.0431 86.9447 40.4784 96.2512H72.1928C72.6281 86.9399 81.8856 76.6628 81.8856 76.6628H81.871C87.0367 70.7627 90.1708 63.0609 90.1708 54.624L90.1757 54.6288Z" fill="white"/>
<path d="M72.1976 97.2121H40.4833C39.9658 97.2121 39.5401 96.8085 39.5159 96.2944C39.1 87.4395 30.1569 77.4026 30.065 77.3017C30.0311 77.2633 30.0021 77.2248 29.9731 77.1864C24.527 70.9116 21.5282 62.9071 21.5282 54.6239C21.5282 35.5591 37.1411 20.0498 56.3332 20.0498C75.5253 20.0498 91.1382 35.5591 91.1382 54.6239C91.1382 62.9071 88.1394 70.9116 82.6933 77.1864C82.6691 77.2248 82.6353 77.2633 82.6062 77.3017C82.5143 77.4026 73.5713 87.4395 73.1601 96.2944C73.1359 96.8085 72.7103 97.2121 72.1928 97.2121H72.1976ZM41.3829 95.2902H71.298C72.2073 86.4305 80.0524 77.2873 81.073 76.1294C81.0972 76.0957 81.1214 76.0621 81.1456 76.0333C86.345 70.0948 89.2084 62.4891 89.2084 54.6239C89.2084 36.621 74.4612 21.9717 56.338 21.9717C38.2149 21.9717 23.4677 36.621 23.4677 54.6239C23.4677 62.4891 26.3311 70.09 31.5305 76.0333C31.5595 76.0669 31.5837 76.0957 31.6079 76.1294C32.6285 77.2873 40.4736 86.4305 41.3829 95.2854V95.2902Z" fill="#333333"/>
<path d="M69.818 101.507H42.8582C41.6561 101.507 40.6816 102.475 40.6816 103.669V115.085C40.6816 116.279 41.6561 117.247 42.8582 117.247H69.818C71.0201 117.247 71.9945 116.279 71.9945 115.085V103.669C71.9945 102.475 71.0201 101.507 69.818 101.507Z" fill="white"/>
<path d="M69.818 118.208H42.863C41.1266 118.208 39.7191 116.805 39.7191 115.085V103.674C39.7191 101.949 41.1314 100.551 42.863 100.551H69.818C71.5544 100.551 72.9619 101.954 72.9619 103.674V115.085C72.9619 116.81 71.5495 118.208 69.818 118.208ZM42.863 102.468C42.1955 102.468 41.6538 103.006 41.6538 103.669V115.08C41.6538 115.743 42.1955 116.282 42.863 116.282H69.818C70.4855 116.282 71.0272 115.743 71.0272 115.08V103.669C71.0272 103.006 70.4855 102.468 69.818 102.468H42.863Z" fill="#333333"/>
<path d="M56.3381 14.4523C55.806 14.4523 55.3707 14.0199 55.3707 13.4914V0.960925C55.3707 0.432416 55.806 0 56.3381 0C56.8701 0 57.3054 0.432416 57.3054 0.960925V13.4914C57.3054 14.0199 56.8701 14.4523 56.3381 14.4523Z" fill="#333333"/>
<path d="M13.5815 64.5791H0.967343C0.435304 64.5791 0 64.1467 0 63.6182C0 63.0896 0.435304 62.6572 0.967343 62.6572H13.5815C14.1135 62.6572 14.5488 63.0896 14.5488 63.6182C14.5488 64.1467 14.1135 64.5791 13.5815 64.5791Z" fill="#333333"/>
<path d="M20.4255 100.162C20.1788 100.162 19.9322 100.066 19.7435 99.8784C19.3663 99.5037 19.3663 98.8935 19.7435 98.5187L28.6624 89.659C29.0397 89.2842 29.6539 89.2842 30.0312 89.659C30.4085 90.0338 30.4085 90.6439 30.0312 91.0187L21.1123 99.8784C20.9237 100.066 20.677 100.162 20.4303 100.162H20.4255Z" fill="#333333"/>
<path d="M90.998 30.836C90.7513 30.836 90.5047 30.7399 90.316 30.5525C89.9388 30.1777 89.9388 29.5676 90.316 29.1928L99.2349 20.3331C99.6122 19.9583 100.226 19.9583 100.604 20.3331C100.981 20.7078 100.981 21.318 100.604 21.6928L91.6848 30.5525C91.4962 30.7399 91.2495 30.836 91.0028 30.836H90.998Z" fill="#333333"/>
<path d="M22.5004 30.836C22.2537 30.836 22.0071 30.7399 21.8184 30.5525L12.8995 21.6928C12.5223 21.318 12.5223 20.7078 12.8995 20.3331C13.2768 19.9583 13.8911 19.9583 14.2683 20.3331L23.1872 29.1928C23.5645 29.5676 23.5645 30.1777 23.1872 30.5525C22.9986 30.7399 22.7519 30.836 22.5052 30.836H22.5004Z" fill="#333333"/>
<path d="M62.8193 51.1645H39.7239C39.1919 51.1645 38.7566 50.7321 38.7566 50.2036C38.7566 49.6751 39.1919 49.2427 39.7239 49.2427H62.8193C63.3513 49.2427 63.7866 49.6751 63.7866 50.2036C63.7866 50.7321 63.3513 51.1645 62.8193 51.1645Z" fill="#333333"/>
<path d="M56.3381 97.2121C55.806 97.2121 55.3707 96.7796 55.3707 96.2511V50.2036C55.3707 49.6751 55.806 49.2427 56.3381 49.2427C56.8701 49.2427 57.3054 49.6751 57.3054 50.2036V96.2511C57.3054 96.7796 56.8701 97.2121 56.3381 97.2121Z" fill="#333333"/>
<path d="M112.134 71.195V63.0176H106.582L103.573 56.8052L107.791 52.4426L101.595 46.9893L96.8745 50.9147L91.825 48.7334V41.8628H82.3886V48.7334L77.3391 50.9147L72.6184 46.9893L66.4226 52.4426L70.6402 56.8052L67.6318 63.0176H62.0792V71.195H68.4443L70.8579 77.1912L66.4178 81.77L72.3959 87.7662L76.8941 83.1874L82.8191 85.8059V92.345H91.38V85.8059L97.305 83.1874L101.803 87.7662L107.781 81.77L103.341 77.1912L105.755 71.195H112.12H112.134ZM87.1092 75.6537C82.3547 75.6537 78.5047 71.8244 78.5047 67.1063C78.5047 62.3881 82.3596 58.5589 87.1092 58.5589C91.8589 58.5589 95.7137 62.3881 95.7137 67.1063C95.7137 71.8244 91.8589 75.6537 87.1092 75.6537Z" fill="white"/>
<path d="M91.3897 93.3058H82.8288C82.2967 93.3058 81.8614 92.8734 81.8614 92.3449V86.4304L77.1263 84.3404L73.0973 88.4435C72.9135 88.6261 72.6668 88.7318 72.4105 88.7318C72.1541 88.7318 71.9026 88.6309 71.7237 88.4483L65.7455 82.4522C65.3779 82.0822 65.3731 81.4864 65.7358 81.1117L69.7406 76.9797L67.8011 72.1655H62.0889C61.5569 72.1655 61.1216 71.733 61.1216 71.2045V63.0271C61.1216 62.4986 61.5569 62.0661 62.0889 62.0661H67.032L69.4843 56.9973L65.731 53.1151C65.5472 52.9277 65.4504 52.6731 65.4601 52.4088C65.4698 52.1494 65.5859 51.8996 65.7842 51.7266L71.98 46.2733C72.3379 45.9562 72.8748 45.9514 73.2424 46.2541L77.5035 49.7999L81.4213 48.1087V41.8723C81.4213 41.3438 81.8566 40.9114 82.3886 40.9114H91.825C92.3571 40.9114 92.7924 41.3438 92.7924 41.8723V48.1087L96.7101 49.7999L100.971 46.2541C101.339 45.9466 101.876 45.9562 102.234 46.2733L108.429 51.7266C108.628 51.8996 108.744 52.1446 108.754 52.4088C108.763 52.6683 108.666 52.9229 108.483 53.1151L104.729 56.9973L107.182 62.0661H112.125C112.657 62.0661 113.092 62.4986 113.092 63.0271V71.2045C113.092 71.733 112.657 72.1655 112.125 72.1655H106.413L104.473 76.9797L108.478 81.1117C108.841 81.4864 108.841 82.0822 108.468 82.4522L102.49 88.4483C102.306 88.6309 102.06 88.7318 101.803 88.7318C101.542 88.7318 101.295 88.6261 101.116 88.4435L97.0874 84.3404L92.3522 86.4304V92.3449C92.3522 92.8734 91.9169 93.3058 91.3849 93.3058H91.3897ZM83.7961 91.384H90.4224V85.8058C90.4224 85.4262 90.6497 85.0803 90.998 84.9265L96.9229 82.308C97.2954 82.1447 97.7258 82.2263 98.0064 82.5146L101.818 86.3968L106.437 81.7603L102.654 77.8589C102.388 77.5851 102.311 77.1863 102.451 76.8356L104.865 70.8394C105.01 70.4742 105.368 70.234 105.764 70.234H111.162V63.9784H106.577C106.205 63.9784 105.866 63.767 105.706 63.4355L102.698 57.2231C102.524 56.8627 102.592 56.4303 102.872 56.142L106.393 52.5049L101.576 48.2673L97.4937 51.6593C97.2132 51.8947 96.8214 51.9476 96.4876 51.8035L91.4381 49.6222C91.085 49.4684 90.8577 49.1225 90.8577 48.7429V42.8332H83.356V48.7429C83.356 49.1273 83.1286 49.4732 82.7756 49.6222L77.726 51.8035C77.3875 51.9476 77.0005 51.8947 76.72 51.6593L72.6378 48.2673L67.8204 52.5049L71.3416 56.142C71.6221 56.4303 71.6898 56.8627 71.5157 57.2231L68.5072 63.4355C68.3476 63.767 68.0091 63.9784 67.6366 63.9784H63.0514V70.234H68.4492C68.8458 70.234 69.1989 70.4742 69.3488 70.8394L71.7624 76.8356C71.9026 77.1863 71.8252 77.5851 71.5592 77.8589L67.7769 81.7603L72.396 86.3968L76.2073 82.5146C76.4878 82.2263 76.9231 82.1447 77.2907 82.308L83.2157 84.9265C83.5639 85.0803 83.7913 85.4262 83.7913 85.8058V91.384H83.7961ZM87.1093 76.6145C81.8324 76.6145 77.5374 72.348 77.5374 67.1062C77.5374 61.8643 81.8324 57.5978 87.1093 57.5978C92.3861 57.5978 96.6811 61.8643 96.6811 67.1062C96.6811 72.348 92.3861 76.6145 87.1093 76.6145ZM87.1093 59.5197C82.8965 59.5197 79.4721 62.9214 79.4721 67.1062C79.4721 71.291 82.8965 74.6927 87.1093 74.6927C91.322 74.6927 94.7464 71.291 94.7464 67.1062C94.7464 62.9214 91.322 59.5197 87.1093 59.5197Z" fill="#333333"/>
</g>
<defs>
<clipPath id="clip0_122_32">
<rect width="133" height="128" fill="white"/>
</clipPath>
</defs>
</svg>
