<svg width="900" height="400" viewBox="0 0 900 400" fill="none" xmlns="http://www.w3.org/2000/svg">
<g style="mix-blend-mode:multiply">
<path opacity="0.01" d="M3.19546 399.477L0.134766 25.1706L898.979 7.60791L898.885 243.858C901.679 296.562 903.071 399.554 752.432 394.13C514.75 370.44 257.798 374.296 3.19546 399.477Z" fill="#FEFEFE"/>
<path opacity="0.03" d="M3.33288 398.96L0.261719 25.8297L898.656 7.88574L898.526 242.889C901.319 295.582 901.152 399.123 751.994 393.808C517.613 370.446 254.399 374.133 3.33288 398.96Z" fill="#FDFDFD"/>
<path opacity="0.04" d="M3.47482 398.437L0.398438 26.4829L898.343 8.15234L898.17 241.908C900.964 294.586 899.243 398.682 751.561 393.476C520.481 370.446 251.004 373.953 3.47482 398.432V398.437Z" fill="#FCFCFC"/>
<path opacity="0.05" d="M3.61029 397.914L0.523438 27.1366L898.018 8.4248L897.809 240.934C900.603 293.6 897.327 398.247 751.12 393.149C523.342 370.446 247.602 373.784 3.61029 397.914Z" fill="#FBFBFB"/>
<path opacity="0.07" d="M3.75224 397.392L0.660156 27.7903L897.705 8.69189L897.459 239.948C900.248 292.598 895.419 397.8 750.692 392.812C526.215 370.435 244.213 373.605 3.75224 397.381V397.392Z" fill="#FAFAFA"/>
<path opacity="0.08" d="M3.88771 396.874L0.785156 28.4489L897.38 8.96924L897.092 238.978C899.881 291.618 893.498 397.37 750.247 392.496C529.071 370.451 240.806 373.441 3.88247 396.874H3.88771Z" fill="#F9F9F9"/>
<path opacity="0.1" d="M4.0277 396.352L0.919922 29.1026L897.065 9.2417L896.74 238.004C899.529 290.627 891.592 396.934 749.817 392.169C531.942 370.451 237.415 373.272 4.0277 396.352Z" fill="#F8F8F8"/>
<path opacity="0.11" d="M4.16317 395.829L1.04492 29.7563L896.74 9.50879L896.374 237.024C899.162 289.636 889.666 396.493 749.371 391.837C534.798 370.452 234.008 373.098 4.15793 395.829H4.16317Z" fill="#F7F7F7"/>
<path opacity="0.12" d="M4.30059 395.306L1.17188 30.4095L896.417 9.78076L896.014 236.049C898.803 288.644 887.753 396.057 748.938 391.51C537.667 370.451 230.614 372.924 4.30059 395.306Z" fill="#F6F6F6"/>
<path opacity="0.14" d="M4.44253 394.788L1.30859 31.0681L896.104 10.0527L895.664 235.068C898.453 287.653 885.849 395.611 748.51 391.183C540.54 370.456 227.224 372.754 4.44777 394.783L4.44253 394.788Z" fill="#F5F5F5"/>
<path opacity="0.15" d="M4.578 394.266L1.43359 31.7218L895.773 10.3252L895.292 234.093C898.081 286.667 883.918 395.175 748.06 390.856C543.391 370.456 223.813 372.58 4.57277 394.266H4.578Z" fill="#F4F4F4"/>
<path opacity="0.16" d="M4.71995 393.743L1.57031 32.3755L895.46 10.5923L894.942 233.113C897.726 285.671 882.014 394.734 747.631 390.525C546.264 370.451 220.423 372.406 4.71995 393.738V393.743Z" fill="#F3F3F3"/>
<path opacity="0.18" d="M4.85541 393.22L1.69531 33.0287L895.135 10.8643L894.581 232.138C897.364 284.685 880.098 394.298 747.191 390.197C549.125 370.456 217.027 372.237 4.85541 393.22Z" fill="#F2F2F2"/>
<path opacity="0.19" d="M4.99541 392.697L1.83008 33.6824L894.82 11.1313L894.224 231.158C897.007 283.689 878.182 393.857 746.756 389.866C551.991 370.451 213.63 372.058 4.99541 392.692V392.697Z" fill="#F1F1F1"/>
<path opacity="0.21" d="M5.13283 392.18L1.95703 34.3415L894.497 11.4092L893.864 230.184C896.647 282.703 876.269 393.422 746.318 389.544C554.854 370.462 210.231 371.894 5.13283 392.175V392.18Z" fill="#F0F0F0"/>
<path opacity="0.22" d="M5.27478 391.657L2.09375 34.9947L894.184 11.6812L893.514 229.209C896.297 281.712 874.365 392.986 745.889 389.217C557.727 370.462 206.841 371.725 5.28001 391.657H5.27478Z" fill="#EFEFEF"/>
<path opacity="0.23" d="M5.41025 391.134L2.21875 35.6484L893.859 11.9482L893.147 228.229C895.931 280.721 872.439 392.545 745.444 388.885C560.583 370.457 203.434 371.546 5.41025 391.129V391.134Z" fill="#EEEEEE"/>
<path opacity="0.25" d="M5.55219 390.611L2.35547 36.3016L893.546 12.2202L892.797 227.253C895.581 279.729 870.535 392.109 745.016 388.558C563.456 370.462 200.045 371.377 5.55743 390.611H5.55219Z" fill="#EDEDED"/>
<path opacity="0.26" d="M5.68766 390.095L2.48047 36.9612L893.221 12.4932L892.431 226.279C895.209 278.744 868.615 391.674 744.57 388.238C566.312 370.468 196.638 371.214 5.68766 390.095Z" fill="#ECECEC"/>
<path opacity="0.27" d="M5.82312 389.571L2.60547 37.6144L892.89 12.7651L892.064 225.299C894.842 277.747 866.689 391.227 744.125 387.905C569.168 370.468 193.232 371.034 5.81789 389.571H5.82312Z" fill="#EBEBEB"/>
<path opacity="0.29" d="M5.96507 389.049L2.74219 38.2681L892.577 13.0322L891.714 224.319C894.492 276.756 864.785 390.786 743.697 387.573C572.042 370.462 189.842 370.86 5.96507 389.043V389.049Z" fill="#EAEAEA"/>
<path opacity="0.3" d="M6.10054 388.526L2.86719 38.9213L892.252 13.3042L891.347 223.344C894.125 275.765 862.859 390.35 743.251 387.246C574.892 370.468 186.436 370.685 6.0953 388.52L6.10054 388.526Z" fill="#E9E9E9"/>
<path opacity="0.32" d="M6.24053 388.008L3.00195 39.5799L891.937 13.5762L890.995 222.368C893.773 274.779 860.953 389.914 742.826 386.924C577.769 370.473 183.049 370.522 6.24577 388.008H6.24053Z" fill="#E8E8E8"/>
<path opacity="0.33" d="M6.376 387.486L3.12695 40.2336L891.612 13.8486L890.634 221.394C893.412 273.793 859.038 389.479 742.386 386.598C580.63 370.473 179.648 370.353 6.38123 387.486H6.376Z" fill="#E7E7E7"/>
<path opacity="0.34" d="M6.5199 386.963L3.26562 40.8873L891.301 14.1157L890.281 220.408C893.059 272.792 857.126 389.032 741.955 386.26C583.5 370.468 176.255 370.168 6.5199 386.958V386.963Z" fill="#E6E6E6"/>
<path opacity="0.36" d="M6.65536 386.44L3.39062 41.5405L890.976 14.3877L889.919 219.433C892.697 271.806 855.21 388.596 741.515 385.933C586.361 370.467 172.859 369.999 6.65536 386.434V386.44Z" fill="#E5E5E5"/>
<path opacity="0.37" d="M6.79536 385.917L3.52539 42.1942L890.661 14.6602L889.562 218.459C892.335 270.815 853.299 388.161 741.079 385.607C589.227 370.473 169.462 369.83 6.79536 385.917Z" fill="#E4E4E4"/>
<path opacity="0.38" d="M6.93278 385.4L3.65234 42.8533L890.338 14.9326L889.202 217.484C891.975 269.829 851.381 387.725 740.641 385.286C592.09 370.479 166.063 369.662 6.93278 385.4Z" fill="#E3E3E3"/>
<path opacity="0.4" d="M7.0741 384.877L3.7832 43.5065L890.019 15.2046L888.847 216.509C891.62 268.838 849.471 387.289 740.207 384.959C594.957 370.484 162.667 369.492 7.0741 384.877Z" fill="#E2E2E2"/>
<path opacity="0.41" d="M7.20824 384.354L3.91211 44.1602L889.692 15.4717L888.479 215.523C891.252 267.841 847.549 386.838 739.76 384.621C597.812 370.473 159.259 369.313 7.20301 384.349L7.20824 384.354Z" fill="#E1E1E1"/>
<path opacity="0.42" d="M7.34566 383.831L4.03906 44.8134L889.369 15.7437L888.119 214.548C890.892 266.85 845.63 386.402 739.322 384.294C600.675 370.473 155.86 369.138 7.34042 383.826L7.34566 383.831Z" fill="#E0E0E0"/>
<path opacity="0.44" d="M7.48761 383.315L4.17578 45.473L889.056 16.0166L887.769 213.574C890.542 265.865 843.726 385.967 738.894 383.973C603.548 370.484 152.47 368.976 7.48761 383.315Z" fill="#DFDFDF"/>
<path opacity="0.45" d="M7.62307 382.791L4.30078 46.1262L888.731 16.2886L887.402 212.599C890.175 264.873 841.806 385.531 738.449 383.646C606.404 370.484 149.064 368.801 7.61784 382.791H7.62307Z" fill="#DEDEDE"/>
<path opacity="0.47" d="M7.76502 382.269L4.4375 46.7799L888.418 16.5557L887.052 211.619C889.82 263.882 839.897 385.09 738.02 383.314C609.278 370.484 145.674 368.627 7.76502 382.263V382.269Z" fill="#DDDDDD"/>
<path opacity="0.48" d="M7.90049 381.746L4.5625 47.4331L888.093 16.8276L886.691 210.644C889.459 262.891 837.981 384.654 737.58 382.987C612.139 370.484 142.273 368.458 7.90049 381.746Z" fill="#DCDCDC"/>
<path opacity="0.49" d="M8.04048 381.229L4.69727 48.0921L887.778 17.1055L886.334 209.669C889.102 261.905 836.07 384.218 737.145 382.661C615.005 370.484 138.876 368.284 8.04048 381.223V381.229Z" fill="#DBDBDB"/>
<path opacity="0.51" d="M8.17595 380.705L4.82227 48.7454L887.453 17.3721L885.972 208.689C888.74 260.909 834.15 383.777 736.71 382.334C617.871 370.489 135.48 368.115 8.18118 380.705H8.17595Z" fill="#DBDBDB"/>
<path opacity="0.52" d="M8.31985 380.183L4.96094 49.399L887.142 17.6445L885.619 207.714C888.387 259.923 832.243 383.341 736.278 382.007C620.741 370.489 132.087 367.946 8.32508 380.183H8.31985Z" fill="#DADADA"/>
<path opacity="0.53" d="M8.45532 379.66L5.08594 50.0528L886.817 17.9116L885.257 206.734C888.025 258.932 830.327 382.901 735.838 381.675C623.602 370.49 128.691 367.767 8.46055 379.66H8.45532Z" fill="#D9D9D9"/>
<path opacity="0.55" d="M8.59469 379.143L5.21484 50.7113L886.49 18.189L884.895 205.764C887.662 257.946 828.405 382.465 735.397 381.354C626.462 370.495 125.288 367.603 8.59469 379.143Z" fill="#D8D8D8"/>
<path opacity="0.56" d="M8.73273 378.62L5.34766 51.3651L886.173 18.4561L884.536 204.779C887.298 256.95 826.492 382.018 734.959 381.022C629.326 370.495 121.889 367.429 8.73273 378.615V378.62Z" fill="#D7D7D7"/>
<path opacity="0.58" d="M8.86819 378.097L5.47266 52.0183L885.848 18.728L884.174 203.804C886.937 255.958 824.577 381.582 734.519 380.695C632.182 370.495 118.488 367.254 8.86819 378.097Z" fill="#D6D6D6"/>
<path opacity="0.59" d="M9.00819 377.574L5.60742 52.672L885.533 18.9951L883.822 202.824C886.585 254.967 822.666 381.141 734.089 380.363C635.053 370.489 115.097 367.08 9.01342 377.569L9.00819 377.574Z" fill="#D5D5D5"/>
<path opacity="0.6" d="M9.14561 377.051L5.73438 53.3252L885.21 19.2671L883.457 201.849C886.22 253.976 820.747 380.705 733.646 380.036C637.911 370.494 111.692 366.906 9.14561 377.051Z" fill="#D4D4D4"/>
<path opacity="0.62" d="M9.28756 376.534L5.87109 53.9843L884.897 19.5396L883.108 200.874C885.87 252.99 818.838 380.27 733.217 379.709C640.784 370.495 108.302 366.737 9.29279 376.529L9.28756 376.534Z" fill="#D3D3D3"/>
<path opacity="0.63" d="M9.42303 376.011L5.99609 54.638L884.572 19.812L882.741 199.894C885.503 251.994 816.918 379.829 732.772 379.382C643.64 370.5 104.896 366.568 9.41779 376.011H9.42303Z" fill="#D2D2D2"/>
<path opacity="0.64" d="M9.56497 375.488L6.13281 55.2911L884.259 20.084L882.391 198.919C885.153 251.008 815.014 379.393 732.344 379.055C646.513 370.5 101.506 366.394 9.56497 375.488Z" fill="#D1D1D1"/>
<path opacity="0.66" d="M9.70044 374.966L6.25781 55.9449L883.934 20.3511L882.029 197.939C884.792 250.012 813.093 378.952 731.904 378.723C649.375 370.495 98.1048 366.22 9.70044 374.96V374.966Z" fill="#D0D0D0"/>
<path opacity="0.67" d="M9.84176 374.448L6.38867 56.6039L883.609 20.6289L881.663 196.97C884.42 249.032 811.173 378.522 731.459 378.402C652.232 370.506 94.6988 366.056 9.8313 374.448H9.84176Z" fill="#CFCFCF"/>
<path opacity="0.68" d="M9.9759 373.926L6.51758 57.2577L883.288 20.896L881.306 195.99C884.063 248.035 809.261 378.076 731.023 378.076C655.097 370.506 91.3014 365.882 9.97067 373.926H9.9759Z" fill="#CECECE"/>
<path opacity="0.7" d="M10.1133 373.403L6.64453 57.9108L882.965 21.168L880.946 195.009C883.703 247.044 807.343 377.634 730.59 377.743C657.965 370.506 87.9072 365.708 10.1133 373.403Z" fill="#CDCDCD"/>
<path opacity="0.71" d="M10.2553 372.88L6.78125 58.5646L882.652 21.4351L880.591 194.029C883.348 246.053 805.434 377.193 730.156 377.411C660.833 370.5 84.5176 365.534 10.2553 372.875V372.88Z" fill="#CCCCCC"/>
<path opacity="0.73" d="M10.3907 372.363L6.90625 59.2231L882.327 21.7124L880.229 193.059C882.987 245.067 803.518 376.763 729.716 377.09C663.694 370.511 81.1163 365.365 10.3907 372.357V372.363Z" fill="#CBCBCB"/>
<path opacity="0.74" d="M10.5327 371.84L7.04297 59.8769L882.014 21.9795L879.874 192.079C882.631 244.076 801.604 376.322 729.283 376.763C666.562 370.511 77.7214 365.196 10.5327 371.84Z" fill="#CACACA"/>
<path opacity="0.75" d="M10.6681 371.317L7.16797 60.53L881.689 22.2515L879.513 191.104C882.27 243.084 799.689 375.886 728.843 376.436C669.423 370.511 74.3201 365.021 10.6681 371.317Z" fill="#C9C9C9"/>
<path opacity="0.77" d="M10.8081 370.794L7.30273 61.1837L881.374 22.5239L879.161 190.124C881.913 242.093 797.783 375.445 728.412 376.104C672.295 370.511 70.9285 364.847 10.8134 370.794H10.8081Z" fill="#C8C8C8"/>
<path opacity="0.78" d="M10.9456 370.277L7.42969 61.8428L881.051 22.7964L878.796 189.149C881.548 241.102 795.859 375.009 727.969 375.777C675.153 370.511 67.5239 364.679 10.9456 370.272V370.277Z" fill="#C7C7C7"/>
<path opacity="0.79" d="M11.0875 369.754L7.56641 62.496L880.738 23.0684L878.446 188.174C881.198 240.116 793.955 374.573 727.541 375.45C678.026 370.516 64.1343 364.504 11.0927 369.754H11.0875Z" fill="#C6C6C6"/>
<path opacity="0.81" d="M11.223 369.231L7.69141 63.1498L880.407 23.3354L878.079 187.194C880.831 239.12 792.035 374.133 727.096 375.124C680.882 370.517 60.7277 364.336 11.223 369.231Z" fill="#C5C5C5"/>
<path opacity="0.82" d="M11.3643 368.708L7.82227 63.8029L880.088 23.6074L877.718 186.219C880.47 238.134 790.114 373.697 726.656 374.797C683.744 370.522 57.327 364.166 11.3591 368.708H11.3643Z" fill="#C4C4C4"/>
<path opacity="0.84" d="M11.5004 368.186L7.95312 64.4567L879.769 23.8745L877.363 185.234C880.115 237.132 788.205 373.245 726.222 374.459C686.611 370.511 53.9315 363.982 11.5004 368.18V368.186Z" fill="#C3C3C3"/>
<path opacity="0.85" d="M11.6359 367.668L8.07812 65.1157L879.444 24.1523L877.001 184.265C879.753 236.152 786.29 372.815 725.782 374.138C689.472 370.517 50.5302 363.818 11.6359 367.663V367.668Z" fill="#C2C2C2"/>
<path opacity="0.86" d="M11.7759 367.146L8.21289 65.7694L879.129 24.4194L876.644 183.285C879.396 235.156 784.373 372.374 725.346 373.812C692.333 370.522 47.1334 363.65 11.7759 367.146Z" fill="#C1C1C1"/>
<path opacity="0.88" d="M11.9133 366.623L8.33984 66.4226L878.806 24.6914L876.284 182.309C879.031 234.17 782.46 371.938 724.908 373.485C695.196 370.522 43.734 363.475 11.9133 366.623Z" fill="#C0C0C0"/>
<path opacity="0.89" d="M12.0533 366.1L8.47461 67.0764L878.491 24.9585L875.927 181.329C878.674 233.174 780.549 371.497 724.478 373.153C698.067 370.522 40.3477 363.301 12.0585 366.1H12.0533Z" fill="#BFBFBF"/>
<path opacity="0.9" d="M12.1887 365.583L8.59961 67.7349L878.166 25.2358L875.566 180.354C878.312 232.187 778.628 371.061 724.038 372.825C700.928 370.522 36.9463 363.126 12.194 365.577L12.1887 365.583Z" fill="#BEBEBE"/>
<path opacity="0.92" d="M12.3326 365.06L8.73828 68.3886L877.855 25.5083L875.218 179.38C877.965 231.202 776.726 370.625 723.612 372.499C703.803 370.522 33.5587 362.958 12.3379 365.054L12.3326 365.06Z" fill="#BDBDBD"/>
<path opacity="0.93" d="M12.4681 364.537L8.86328 69.0419L877.53 25.7749L874.851 178.399C877.598 230.205 774.8 370.184 723.166 372.172C706.66 370.527 30.1521 362.789 12.4681 364.537Z" fill="#BCBCBC"/>
<path opacity="0.95" d="M12.6075 364.014L8.99219 69.6955L877.204 26.0474L874.488 177.424C877.235 229.22 772.884 369.749 722.725 371.845C709.519 370.527 26.7494 362.615 12.6022 364.014H12.6075Z" fill="#BBBBBB"/>
<path opacity="0.96" d="M12.7455 363.497L9.125 70.3546L876.886 26.3198L874.134 176.45C876.881 228.229 770.976 369.313 722.293 371.519C712.389 370.533 23.3559 362.446 12.7455 363.497Z" fill="#BABABA"/>
<path opacity="0.97" d="M12.8868 362.974L9.25586 71.0078L876.567 26.5918L873.773 175.469C876.515 227.237 769.056 368.866 721.853 371.186C715.25 370.527 19.9552 362.271 12.8816 362.968L12.8868 362.974Z" fill="#B9B9B9"/>
<path opacity="0.99" d="M13.021 362.451L9.38477 71.6616L876.246 26.8589L873.416 174.489C876.157 226.241 767.144 368.425 721.417 370.86C718.116 370.533 16.5578 362.097 13.021 362.446V362.451Z" fill="#B8B8B8"/>
<path d="M13.1584 361.928L9.51172 72.3147L875.923 27.1309L873.051 173.514C875.792 225.255 765.226 367.989 720.974 370.533L13.1532 361.928H13.1584Z" fill="#B7B7B7"/>
</g>
<mask id="mask0_854_49" style="mask-type:luminance" maskUnits="userSpaceOnUse" x="0" y="0" width="882" height="372">
<path d="M881.946 0H0.00585938V371.627H881.946V0Z" fill="white"/>
</mask>
<g mask="url(#mask0_854_49)">
<path d="M595.607 377.733L579.33 70.6763L874.329 53.7344L881.653 191.911C884.395 243.651 765.232 367.99 720.98 370.533L595.607 377.733Z" fill="url(#paint0_linear_854_49)"/>
<path d="M595.607 377.733L579.33 70.6763L874.329 53.7344L881.653 191.911C884.395 243.651 765.232 367.99 720.98 370.533L595.607 377.733Z" fill="url(#paint1_linear_854_49)"/>
<path d="M-39.2754 395.278L-17.4581 -10.5812L900.08 -30.7471L881.658 191.91C884.4 243.651 765.237 367.99 720.985 370.533L-39.2754 395.278Z" fill="url(#paint2_linear_854_49)"/>
<path d="M881.654 191.911C878.797 247.828 797.357 301.6 754.277 303.245C792.883 328.448 750.478 368.84 720.98 370.533C768.916 367.783 884.641 248.258 881.654 191.911Z" fill="url(#paint3_radial_854_49)"/>
</g>
<defs>
<linearGradient id="paint0_linear_854_49" x1="588.417" y1="64.1114" x2="816.493" y2="281.9" gradientUnits="userSpaceOnUse">
<stop offset="0.61" stop-color="white"/>
<stop offset="0.71" stop-color="#FBFBFB"/>
<stop offset="0.8" stop-color="#F1F0F0"/>
<stop offset="0.88" stop-color="#DFDFDF"/>
<stop offset="0.95" stop-color="#C7C6C6"/>
<stop offset="1" stop-color="#B3B2B2"/>
</linearGradient>
<linearGradient id="paint1_linear_854_49" x1="709.674" y1="215.736" x2="870.384" y2="215.736" gradientUnits="userSpaceOnUse">
<stop stop-color="white"/>
<stop offset="0.57" stop-color="white"/>
</linearGradient>
<linearGradient id="paint2_linear_854_49" x1="226.032" y1="-111.247" x2="645.18" y2="444.383" gradientUnits="userSpaceOnUse">
<stop offset="0.05" stop-color="#E0E0E0"/>
<stop offset="0.46" stop-color="white"/>
<stop offset="0.88" stop-color="#EAEAEA"/>
</linearGradient>
<radialGradient id="paint3_radial_854_49" cx="0" cy="0" r="1" gradientUnits="userSpaceOnUse" gradientTransform="translate(619.313 119.064) rotate(-3.28889) scale(276.68 287.916)">
<stop offset="0.79" stop-color="white"/>
<stop offset="0.81" stop-color="#FAFAFA"/>
<stop offset="0.84" stop-color="#EBEBEB"/>
<stop offset="0.87" stop-color="#D4D4D4"/>
<stop offset="0.91" stop-color="#B3B3B3"/>
<stop offset="0.94" stop-color="#898989"/>
<stop offset="0.95" stop-color="#808080"/>
<stop offset="0.97" stop-color="#828282"/>
<stop offset="0.98" stop-color="#8A8A8A"/>
<stop offset="0.99" stop-color="#989898"/>
<stop offset="1" stop-color="#B9B9B9"/>
</radialGradient>
</defs>
</svg>
