<svg width="443" height="413" viewBox="0 0 443 413" fill="none" xmlns="http://www.w3.org/2000/svg">
<g clip-path="url(#clip0_196_243)">
<path d="M441.983 127.57C441.111 125.968 439.803 124.876 438.058 124.22C438.058 124.22 397.145 107.983 396.709 107.837C396.564 107.327 387.77 64.1488 387.77 64.1488C387.407 62.3285 386.608 60.8722 385.154 59.7072C383.773 58.5422 382.247 57.9597 380.358 57.9597C380.358 57.9597 336.32 56.7218 335.884 56.7218C335.593 56.3578 312.556 18.7858 312.556 18.7858C311.612 17.1839 310.303 16.0917 308.559 15.5092C306.888 14.8539 305.217 14.8539 303.472 15.5092C303.472 15.5092 261.687 29.4167 261.251 29.6351C260.887 29.271 226.369 1.89304 226.369 1.89304C224.916 0.728018 223.317 0.145508 221.5 0.145508C219.683 0.145508 218.084 0.728018 216.704 1.89304C216.704 1.89304 182.185 29.271 181.822 29.6351C181.313 29.4167 139.6 15.5092 139.6 15.5092C137.856 14.9267 136.185 14.9267 134.441 15.5092C132.769 16.0917 131.461 17.1839 130.516 18.7858C130.516 18.7858 107.407 56.3578 107.189 56.7218C106.68 56.7218 62.7147 57.9597 62.7147 57.9597C60.898 57.9597 59.2992 58.5422 57.9185 59.7072C56.5377 60.8722 55.6657 62.3285 55.3023 64.1488C55.3023 64.1488 46.4365 107.327 46.2912 107.837C45.8552 107.983 4.9416 124.293 4.9416 124.293C3.19751 124.948 1.96211 126.041 1.01739 127.57C0.290682 128.808 0 129.973 0 131.283C0 131.72 0 132.157 0.145341 132.594L7.77576 184.51L136.112 231.475C136.112 231.475 204.132 255.285 206.53 256.159C204.132 256.96 157.841 272.833 157.841 272.833C157.695 272.833 153.698 273.998 152.245 277.056C151.882 277.785 151.664 278.513 151.664 279.386C151.664 280.115 151.809 280.988 152.172 281.789C157.623 295.333 166.924 306.91 179.133 315.284C191.632 323.803 206.312 328.317 221.573 328.317C236.834 328.317 251.513 323.803 264.012 315.284C276.221 306.983 285.523 295.406 290.973 281.789C291.336 280.988 291.482 280.115 291.482 279.386C291.482 278.586 291.336 277.785 290.973 277.056C289.52 274.071 285.523 272.906 285.305 272.833C285.305 272.833 239.014 257.033 236.616 256.159C239.014 255.285 307.033 231.475 307.033 231.475L435.37 184.51L443 132.594C443.073 132.157 443.145 131.72 443.145 131.283C443.145 129.973 442.782 128.735 442.128 127.57H441.983ZM303.327 31.1642C304.272 32.402 330.143 64.2217 330.506 64.7314C330.215 65.3139 271.425 168.928 270.916 169.802C270.189 169.219 257.327 159.535 256.818 159.171C257.036 158.516 302.746 32.6933 303.327 31.1642ZM262.341 176.137C261.978 176.792 231.165 230.893 228.694 235.116C229.566 230.31 240.612 169.001 240.758 168.273C241.412 168.273 250.496 167.981 250.496 167.981C251.876 167.981 253.911 168.709 254.928 169.583C254.928 169.583 261.76 175.554 262.268 175.991L262.341 176.137ZM222.009 16.6014C223.317 17.4024 258.489 38.5184 258.998 38.8096C258.853 39.3922 239.014 156.986 238.868 158.006C237.924 157.715 222.517 152.982 221.936 152.836V16.6014H222.009ZM219.175 163.321C220.483 162.812 222.663 162.812 223.971 163.321C223.971 163.321 232.401 166.598 233.055 166.816C232.909 167.544 222.445 228.927 221.573 233.805C220.773 228.927 210.236 167.544 210.091 166.816C210.745 166.598 219.175 163.248 219.175 163.248V163.321ZM214.306 235.116C211.907 230.82 181.022 176.719 180.659 176.137C181.168 175.7 187.926 169.729 187.926 169.729C188.944 168.855 191.051 168.054 192.432 168.127C192.432 168.127 201.516 168.345 202.17 168.418C202.315 169.074 213.361 230.383 214.233 235.261L214.306 235.116ZM182.912 39.0281C182.985 39.6106 204.568 156.914 204.713 157.933C203.768 157.933 187.708 158.807 187.054 158.807C186.836 158.224 141.126 32.3292 140.545 30.8729C142.071 31.1642 182.331 38.9553 182.912 39.0281ZM111.477 65.3139C111.84 65.8236 172.011 168.709 172.52 169.51C171.648 169.875 156.823 176.209 156.314 176.428C155.878 175.918 69.9091 73.3234 68.8917 72.0855C70.4178 71.7943 110.895 65.3139 111.404 65.2411L111.477 65.3139ZM133.351 203.587C132.769 203.223 17.0049 136.307 15.6242 135.506C17.0049 134.705 52.7589 114.827 53.3402 114.536C53.7762 114.973 145.487 190.918 146.286 191.573C145.559 192.228 133.787 203.223 133.351 203.66V203.587ZM139.528 220.917C139.6 220.262 140.981 211.306 140.981 211.306C141.199 209.922 142.289 208.029 143.379 207.155C143.379 207.155 150.428 201.476 150.937 201.039C151.518 201.476 199.335 241.305 203.114 244.436C198.536 242.688 140.182 221.135 139.528 220.917ZM156.169 194.922C156.532 194.34 160.82 186.33 160.82 186.33C161.474 185.093 163.218 183.709 164.454 183.272C164.454 183.272 173.029 180.36 173.683 180.141C174.046 180.797 205.367 234.606 207.838 238.829C204.059 235.625 156.678 195.359 156.096 194.922H156.169ZM169.105 293.731C167.651 291.765 166.561 290.236 165.108 287.687C163.654 285.212 162.928 283.537 161.91 281.28C162.709 280.916 199.335 267.008 203.986 265.188C200.135 268.392 169.759 293.076 169.105 293.658V293.731ZM179.642 305.09C177.462 303.197 176.154 301.886 174.482 300.138C175.136 299.556 204.786 273.925 208.492 270.576C205.949 274.872 185.891 308.585 185.455 309.313C183.348 307.93 181.895 306.91 179.642 305.017V305.09ZM199.19 316.376C196.501 315.429 194.757 314.556 192.65 313.463C193.086 312.735 212.126 278.513 214.596 274.144C213.652 279.022 206.312 317.541 206.094 318.415C203.768 317.832 201.952 317.322 199.19 316.376ZM221.427 320.308C218.521 320.308 216.704 320.089 214.306 319.871C214.451 318.924 220.701 280.187 221.427 275.309C222.227 280.187 228.476 318.924 228.549 319.871C226.151 320.162 224.334 320.308 221.427 320.308ZM243.665 316.376C240.976 317.322 239.159 317.832 236.761 318.415C236.616 317.541 229.276 279.022 228.331 274.144C230.729 278.513 249.842 312.735 250.278 313.463C248.097 314.556 246.426 315.357 243.737 316.376H243.665ZM280.945 281.28C280 283.537 279.273 285.212 277.82 287.687C276.366 290.236 275.276 291.692 273.823 293.731C273.169 293.148 242.793 268.392 238.941 265.261C243.592 267.008 280.218 280.988 280.945 281.352V281.28ZM268.445 300.138C266.774 301.959 265.466 303.197 263.286 305.09C261.033 306.983 259.579 308.002 257.545 309.386C257.109 308.658 236.979 274.945 234.435 270.649C238.214 273.925 267.791 299.556 268.518 300.138H268.445ZM235.017 238.902C237.488 234.606 268.809 180.797 269.172 180.214C269.826 180.433 278.401 183.345 278.401 183.345C279.709 183.782 281.381 185.165 282.035 186.403C282.035 186.403 286.395 194.34 286.686 194.995C286.177 195.505 238.723 235.698 234.944 238.902H235.017ZM239.74 244.509C243.519 241.378 291.336 201.549 291.845 201.112C292.354 201.549 299.476 207.228 299.476 207.228C300.566 208.102 301.656 209.995 301.874 211.378C301.874 211.378 303.254 220.334 303.327 220.99C302.673 221.208 244.319 242.834 239.74 244.509ZM296.932 191.937C296.423 191.136 287.63 177.666 287.267 177.156C287.703 176.573 373.6 74.0515 374.69 72.8137C375.198 74.27 388.57 113.08 388.715 113.662C388.279 114.099 297.659 191.355 296.859 192.01L296.932 191.937ZM427.012 179.486C426.431 179.704 314.954 221.281 314.01 221.645C313.792 220.699 310.158 204.971 310.013 204.388C310.594 204.097 426.358 137.108 427.739 136.307C427.739 137.836 427.012 178.903 427.012 179.486Z" fill="#999999"/>
<path d="M46.6545 388.098C40.7681 385.84 39.7507 384.238 39.7507 381.763C39.7507 379.506 41.6402 377.175 45.8551 377.175C49.7066 377.175 52.0321 378.559 52.4681 378.777L53.7762 379.651L55.5929 374.117L55.9563 373.244L55.0842 372.734C54.0669 372.151 51.0874 370.695 46.0004 370.695C37.934 370.695 32.3383 375.501 32.3383 382.418C32.3383 387.879 35.8992 391.811 43.3116 394.505C48.6892 396.544 49.7793 398.51 49.7793 401.058C49.7793 404.481 47.2358 406.519 42.8756 406.519C39.8961 406.519 36.9166 405.646 34.6638 404.189L33.3557 403.316L31.6116 408.922L31.2483 409.796L32.0477 410.306C34.4458 411.908 38.8787 413.073 42.5849 413.073C53.4128 413.073 57.1917 406.374 57.1917 400.622C57.1917 394.869 54.0669 391.083 46.6545 388.17V388.098Z" fill="#999999"/>
<path d="M83.8619 370.622H76.3042V412.927H83.8619V370.622Z" fill="#999999"/>
<path d="M130.226 388.607C130.226 392.758 130.298 396.253 130.516 399.675C129.136 397.054 127.61 394.432 125.72 391.447L113.003 371.132L112.639 370.622H105.154V412.927H112.349V394.651C112.349 389.991 112.349 386.496 112.203 383.219C113.584 385.913 115.328 388.826 117.363 392.03L130.008 412.272L130.371 412.854H137.42V370.55H130.226V388.535V388.607Z" fill="#999999"/>
<path d="M175.281 377.176C178.988 377.176 181.386 378.122 182.476 378.705L183.711 379.287L185.383 373.972L185.746 373.025L184.801 372.443C183.711 371.933 180.514 370.622 175.063 370.622C162.273 370.622 153.698 379.287 153.698 392.102C153.698 404.918 161.619 412.927 173.973 412.927C179.133 412.927 182.984 411.835 184.656 410.961L185.455 410.524L183.929 404.117L182.621 404.772C180.732 405.719 177.825 406.301 174.991 406.301C166.488 406.301 161.401 400.913 161.401 391.957C161.401 383.001 166.706 377.176 175.281 377.176Z" fill="#999999"/>
<path d="M210.381 394.141H225.788V387.515H210.381V377.321H226.732V370.622H202.824V412.927H227.604V406.228H210.381V394.141Z" fill="#999999"/>
<path d="M266.338 375.137L265.538 375.501L266.701 380.234L267.064 381.763L273.314 378.413V412.927H280.508V370.622H275.058L266.338 375.137Z" fill="#999999"/>
<path d="M320.405 390.355C324.983 387.515 325.637 383.51 325.637 381.326C325.637 376.156 321.713 370.622 313.138 370.622C305.507 370.622 300.057 375.428 300.057 382.127C300.057 385.622 301.946 388.68 305.217 390.792C301.002 393.195 298.676 396.908 298.676 401.35C298.676 408.121 304.635 413 312.774 413C320.913 413 327.09 407.757 327.09 400.549C327.09 396.253 324.765 392.685 320.477 390.428L320.405 390.355ZM312.92 406.738C310.958 406.738 309.141 406.01 307.978 404.772C306.961 403.68 306.379 402.224 306.452 400.622C306.452 397.418 308.559 394.942 312.193 393.85C317.28 395.379 319.46 397.491 319.46 401.058C319.46 404.626 316.844 406.811 312.92 406.811V406.738ZM313.646 387.515C309.359 386.35 307.469 384.53 307.542 381.69C307.542 379.36 308.996 376.666 313.065 376.666H313.138C318.007 376.666 318.37 380.598 318.37 381.763C318.37 384.311 316.699 386.35 313.646 387.515Z" fill="#999999"/>
<path d="M354.996 370.622C346.93 370.622 340.607 377.103 340.607 385.404C340.607 392.976 345.912 398.51 353.179 398.51C355.868 398.51 358.266 397.855 360.301 396.471C359.429 399.02 358.193 401.131 356.522 402.588C354.56 404.554 352.016 405.719 349.182 406.01C347.366 406.228 346.203 406.301 345.185 406.228H343.95V412.854H345.113C345.113 412.854 345.331 412.854 345.476 412.854C346.639 412.854 348.31 412.709 350.054 412.563C354.56 412.053 358.848 410.015 361.9 407.029C365.097 403.971 368.876 398.146 368.876 388.025C368.876 377.248 363.571 370.622 354.923 370.622H354.996ZM361.028 388.753C359.647 390.865 357.176 392.175 354.415 392.175C350.708 392.175 348.165 389.335 348.165 385.185C348.165 380.452 350.854 377.03 354.56 377.03C356.231 377.03 357.612 377.54 358.702 378.632C360.446 380.379 361.318 383.51 361.318 387.515C361.318 388.025 361.246 388.389 361.028 388.826V388.753Z" fill="#999999"/>
<path d="M383.265 377.467H402.086L385.663 411.18L384.863 412.927H393.003L410.661 375.865L410.807 375.574V370.622H383.265V377.467Z" fill="#999999"/>
</g>
<defs>
<clipPath id="clip0_196_243">
<rect width="443" height="413" fill="white"/>
</clipPath>
</defs>
</svg>
