<svg width="2000" height="3258" viewBox="0 0 2000 3258" fill="none" xmlns="http://www.w3.org/2000/svg">
<mask id="mask0_199_33" style="mask-type:alpha" maskUnits="userSpaceOnUse" x="0" y="0" width="2000" height="3258">
<path d="M0 0H2000V3258H0V0Z" fill="white" fill-opacity="0.3"/>
</mask>
<g mask="url(#mask0_199_33)">
<path d="M2288 1671.36C2288 1903.92 2089.58 2092.71 1844.5 2092.71C1599.42 2092.71 1401 1903.92 1401 1671.36C1401 1438.79 1599.42 1250 1844.5 1250C2089.58 1250 2288 1438.79 2288 1671.36Z" fill="white" fill-opacity="0.3" stroke="#ED1C24" stroke-width="6"/>
<path d="M669 822.357C669 1054.92 470.584 1243.71 225.5 1243.71C-19.5839 1243.71 -218 1054.92 -218 822.357C-218 589.79 -19.5839 401 225.5 401C470.584 401 669 589.79 669 822.357Z" fill="white" fill-opacity="0.3" stroke="#ED1C24" stroke-width="6"/>
<path d="M997 970.621C997 1203.19 798.584 1391.98 553.5 1391.98C308.416 1391.98 110 1203.19 110 970.621C110 738.054 308.416 549.264 553.5 549.264C798.584 549.264 997 738.054 997 970.621Z" fill="white" fill-opacity="0.3" stroke="#F4911D" stroke-width="6"/>
<path d="M1863 2199.92C1863 2347.19 1737.34 2466.83 1582 2466.83C1426.66 2466.83 1301 2347.19 1301 2199.92C1301 2052.64 1426.66 1933 1582 1933C1737.34 1933 1863 2052.64 1863 2199.92Z" fill="white" fill-opacity="0.3" stroke="#F4911D" stroke-width="6"/>
<path d="M764 2709.36C764 2941.92 565.584 3130.71 320.5 3130.71C75.4161 3130.71 -123 2941.92 -123 2709.36C-123 2476.79 75.4161 2288 320.5 2288C565.584 2288 764 2476.79 764 2709.36Z" fill="white" fill-opacity="0.3" stroke="#ED1C24" stroke-width="6"/>
</g>
</svg>
